<svg xmlns="http://www.w3.org/2000/svg" version="1.1" xmlns:xlink="http://www.w3.org/1999/xlink" xmlns:svgjs="http://svgjs.com/svgjs" width="512" height="512" x="0" y="0" viewBox="0 0 64 64" style="enable-background:new 0 0 512 512" xml:space="preserve" class=""><g><g xmlns="http://www.w3.org/2000/svg"><g><path d="m55.3 62h-13.6c-3.7 0-6.7-3-6.7-6.7v-18.3c0-1.1.9-2 2-2h18.3c3.7 0 6.7 3 6.7 6.7v13.6c0 3.7-3 6.7-6.7 6.7zm-16.3-23v16.3c0 1.5 1.2 2.7 2.7 2.7h13.6c1.5 0 2.7-1.2 2.7-2.7v-13.6c0-1.5-1.2-2.7-2.7-2.7z" fill="#444444" data-original="#2b3954" class=""></path></g><g><path d="m22.3 62h-13.6c-3.7 0-6.7-3-6.7-6.7v-13.6c0-3.7 3-6.7 6.7-6.7h18.3c1.1 0 2 .9 2 2v18.3c0 3.7-3 6.7-6.7 6.7zm-13.6-23c-1.5 0-2.7 1.2-2.7 2.7v13.6c0 1.5 1.2 2.7 2.7 2.7h13.6c1.5 0 2.7-1.2 2.7-2.7v-16.3z" fill="#444444" data-original="#2b3954" class=""></path></g><g><path d="m55.3 29h-18.3c-1.1 0-2-.9-2-2v-18.3c0-3.7 3-6.7 6.7-6.7h13.6c3.7 0 6.7 3 6.7 6.7v13.6c0 3.7-3 6.7-6.7 6.7zm-16.3-4h16.3c1.5 0 2.7-1.2 2.7-2.7v-13.6c0-1.5-1.2-2.7-2.7-2.7h-13.6c-1.5 0-2.7 1.2-2.7 2.7z" fill="#444444" data-original="#2b3954" class=""></path></g><g><path d="m27 29h-18.3c-3.7 0-6.7-3-6.7-6.7v-13.6c0-3.7 3-6.7 6.7-6.7h13.6c3.7 0 6.7 3 6.7 6.7v18.3c0 1.1-.9 2-2 2zm-18.3-23c-1.5 0-2.7 1.2-2.7 2.7v13.6c0 1.5 1.2 2.7 2.7 2.7h16.3v-16.3c0-1.5-1.2-2.7-2.7-2.7z" fill="#444444" data-original="#03b8ff" class=""></path></g></g></g></svg>