<svg xmlns="http://www.w3.org/2000/svg" version="1.1" xmlns:xlink="http://www.w3.org/1999/xlink" xmlns:svgjs="http://svgjs.com/svgjs" width="512" height="512" x="0" y="0" viewBox="0 0 512 512" style="enable-background:new 0 0 512 512" xml:space="preserve" class=""><g><g xmlns="http://www.w3.org/2000/svg"><path d="m219.218 335.141c-11.075 0-20.054-8.978-20.054-20.054v-22.837c0-39.793 32.375-72.168 72.168-72.168h125.575c29.591 0 53.664-24.074 53.664-53.665s-24.074-53.665-53.664-53.665h-177.689c-11.075 0-20.054-8.978-20.054-20.054s8.978-20.054 20.054-20.054h177.689c51.706 0 93.771 42.066 93.771 93.771 0 51.706-42.065 93.772-93.771 93.772h-125.575c-17.678 0-32.061 14.382-32.061 32.061v22.837c.001 11.078-8.977 20.056-20.053 20.056z" fill="#c3d5ef" data-original="#c3d5ef"></path><g fill="#b7c8ea"><path d="m396.907 220.083h22.006c29.591 0 53.664-24.074 53.664-53.665s-24.074-53.665-53.664-53.665h-22.006c29.591 0 53.664 24.074 53.664 53.665s-24.073 53.665-53.664 53.665z" fill="#b7c8ea" data-original="#b7c8ea"></path><path d="m221.171 315.088v-22.837c0-39.794 32.375-72.168 72.168-72.168h-22.006c-39.793 0-72.168 32.374-72.168 72.168v22.837c0 11.075 8.978 20.054 20.054 20.054 4.066 0 7.843-1.219 11.003-3.298-5.449-3.586-9.051-9.747-9.051-16.756z" fill="#b7c8ea" data-original="#b7c8ea"></path></g><path d="m417.12 62.491v60.42c0 9.344-2.05 18.214-5.738 26.177-9.9 21.438-31.596 36.314-56.763 36.314h-270.804c-34.511 0-62.491-27.98-62.491-62.491v-60.42c0-34.511 27.98-62.491 62.491-62.491h270.804c34.521 0 62.501 27.98 62.501 62.491z" fill="#ffd064" data-original="#ffd064"></path><path d="m417.12 87.277v35.634c0 9.344-2.05 18.214-5.738 26.177-1.154 1.7-2.472 3.286-3.925 4.739-5.965 5.975-14.206 9.673-23.323 9.673-18.214 0-32.976-14.773-32.976-32.997v-24.693c0 9.107-3.698 17.348-9.673 23.313-5.965 5.975-14.216 9.663-23.323 9.663-18.203 0-32.976-14.762-32.976-32.976v46.719c0 9.107-3.688 17.348-9.653 23.323-5.388 5.378-12.62 8.901-20.665 9.55-.876.072-1.762.103-2.658.103-.886 0-1.772-.031-2.637-.103-16.988-1.35-30.349-15.556-30.349-32.873v-15.772c0 9.107-3.688 17.359-9.663 23.323-5.965 5.965-14.206 9.653-23.313 9.653-18.224 0-32.986-14.763-32.986-32.976v48.645h-65.975v-79.592c0 9.107-3.688 17.348-9.663 23.313-2.421 2.421-5.213 4.471-8.283 6.037-4.502 2.328-9.612 3.626-15.03 3.626-18.214 0-32.986-14.762-32.986-32.976v-18.533c0-34.511 27.969-62.48 62.491-62.48h270.804c34.52-.001 62.5 27.969 62.5 62.48z" fill="#ffc250" data-original="#ffc250"></path><path d="m131.826 185.395h-48.008c-34.522 0-62.497-27.975-62.497-62.487v-60.421c0-34.512 27.975-62.487 62.497-62.487h48.008c-34.512 0-62.486 27.975-62.486 62.487v60.421c0 34.512 27.974 62.487 62.486 62.487z" fill="#ffc250" data-original="#ffc250"></path><path d="m417.12 62.489v43.225c0 9.104-3.69 17.356-9.666 23.322-5.966 5.976-14.208 9.666-23.322 9.666-18.209 0-32.978-14.769-32.978-32.988v-24.695c0 9.104-3.69 17.346-9.666 23.312-5.966 5.976-14.218 9.666-23.322 9.666-18.209 0-32.978-14.769-32.978-32.978v46.715c0 9.104-3.69 17.346-9.656 23.322-5.976 5.966-14.218 9.656-23.322 9.656-18.219 0-32.988-14.769-32.988-32.978v-15.772c0 9.114-3.69 17.356-9.666 23.322-5.966 5.966-14.208 9.656-23.312 9.656-18.219 0-32.988-14.759-32.988-32.978v55.177c0 6.748-2.025 13.035-5.515 18.259-1.213 1.825-2.597 3.519-4.141 5.064-5.976 5.966-14.218 9.656-23.322 9.656-11.461 0-21.568-5.846-27.473-14.719-3.489-5.224-5.515-11.511-5.515-18.259v-86.12c0 9.104-3.69 17.346-9.666 23.312-2.416 2.416-5.214 4.472-8.282 6.036-4.502 2.326-9.616 3.63-15.03 3.63-18.219 0-32.988-14.769-32.988-32.978v-18.531c0-34.512 27.975-62.487 62.497-62.487h270.803c34.511.001 62.496 27.975 62.496 62.487z" fill="#df75a5" data-original="#df75a5"></path><g fill="#dd5790"><path d="m128.28 199.136c-2.565.639-5.254.979-8.004.979-11.466 0-21.572-5.841-27.475-14.711-3.492-5.223-5.511-11.517-5.511-18.265v-86.12h3.882c6.681 0 12.096 5.416 12.096 12.096v74.024c0 6.748 2.029 13.042 5.522 18.265 4.48 6.737 11.403 11.734 19.49 13.732z" fill="#dd5790" data-original="#dd5790"></path><path d="m260.214 159.733c-2.565.639-5.254.979-8.004.979-11.466 0-21.572-5.841-27.475-14.711-3.492-5.223-5.511-11.517-5.511-18.265v-14.981h3.684c6.79 0 12.294 5.504 12.294 12.294v2.687c0 6.748 2.029 13.042 5.522 18.265 4.48 6.737 11.403 11.733 19.49 13.732z" fill="#dd5790" data-original="#dd5790"></path><path d="m392.136 137.724c-2.565.639-5.254.979-8.004.979-11.466 0-21.572-5.841-27.475-14.711-3.492-5.223-5.511-11.517-5.511-18.265v-24.708h3.684c6.79 0 12.294 5.504 12.294 12.294v12.414c0 6.748 2.029 13.042 5.522 18.265 4.48 6.737 11.403 11.734 19.49 13.732z" fill="#dd5790" data-original="#dd5790"></path><path d="m160.164 111.962c4.772 0 8.884 3.283 10.025 7.916.922 3.743 2.484 7.236 4.565 10.349 4.481 6.737 11.404 11.734 19.491 13.732-2.565.639-5.254.979-8.004.979-11.466 0-21.572-5.841-27.475-14.711-3.492-5.223-5.511-11.517-5.511-18.265z" fill="#dd5790" data-original="#dd5790"></path><path d="m292.088 81.021c4.772 0 8.884 3.283 10.025 7.916.922 3.743 2.484 7.236 4.565 10.349 4.481 6.737 11.404 11.734 19.491 13.732-2.565.639-5.254.979-8.004.979-11.466 0-21.572-5.841-27.475-14.711-3.492-5.223-5.511-11.517-5.511-18.265z" fill="#dd5790" data-original="#dd5790"></path><path d="m131.828.003c-34.512 0-62.487 27.975-62.487 62.487v47.878c-4.502 2.326-9.616 3.63-15.03 3.63-18.219 0-32.988-14.769-32.988-32.978v-18.531c0-34.512 27.975-62.487 62.497-62.487h48.008z" fill="#dd5790" data-original="#dd5790"></path></g><path d="m270.568 308.466v165.131c0 21.207-17.196 38.402-38.403 38.402h-31.233c-21.207 0-38.403-17.196-38.403-38.402v-165.131z" fill="#9dc6fb" data-original="#9dc6fb"></path><path d="m162.53 316.668h108.038v42.674h-108.038z" fill="#80b4fb" data-original="#80b4fb"></path><path d="m234.567 511.92c-.792.06-1.594.08-2.396.08h-31.233c-21.207 0-38.403-17.196-38.403-38.403v-165.13h36.016v165.131c0 20.404 15.922 37.098 36.016 38.322z" fill="#80b4fb" data-original="#80b4fb"></path><path d="m281.148 341.116h-129.195c-11.786 0-21.34-9.554-21.34-21.34 0-11.786 9.554-21.34 21.34-21.34h129.194c11.786 0 21.34 9.554 21.34 21.34 0 11.786-9.554 21.34-21.339 21.34z" fill="#9dc6fb" data-original="#9dc6fb"></path><path d="m199.959 341.113h-48.008c-11.792 0-21.337-9.556-21.337-21.337 0-5.886 2.386-11.22 6.247-15.09 3.86-3.86 9.195-6.247 15.09-6.247h48.008c-5.886 0-11.22 2.386-15.09 6.247-3.86 3.87-6.247 9.205-6.247 15.09 0 11.782 9.555 21.337 21.337 21.337z" fill="#80b4fb" data-original="#80b4fb"></path></g></g></svg>