<svg xmlns="http://www.w3.org/2000/svg" version="1.1" xmlns:xlink="http://www.w3.org/1999/xlink" xmlns:svgjs="http://svgjs.com/svgjs" width="512" height="512" x="0" y="0" viewBox="0 0 497 497" style="enable-background:new 0 0 512 512" xml:space="preserve" class=""><g><g xmlns="http://www.w3.org/2000/svg"><path d="m164.602 366.254-37.603 37.603 18.787 18.787c12.86 12.86 33.711 12.86 46.572 0l14.318-14.318 1.479-43.552z" fill="#3b4556" data-original="#3b4556"></path><path d="m309.7 357.606-23.167-55.009-45.058-13.216-31.842 31.842 68.225 68.225c8.793 8.793 23.049 8.793 31.842 0 8.793-8.793 8.793-23.049 0-31.842z" fill="#3b4556" data-original="#3b4556"></path><path d="m341.542 325.764-14.59-53.184-53.635-15.041-31.842 31.842 68.225 68.225c8.793 8.793 23.049 8.793 31.842 0 8.793-8.793 8.793-23.049 0-31.842z" fill="#475066" data-original="#475066"></path><path d="m378.028 190.172c-1.267-9.714-8.912-17.36-18.627-18.627-9.714-1.267-17.36-8.912-18.627-18.627s-8.912-17.36-18.627-18.627-17.36-8.912-18.627-18.627c-1.267-9.714-8.912-17.36-18.627-18.627-10.39-1.355-20.82 2.193-28.229 9.602l-32.125 32.125 111.761 111.761 32.125-32.125c7.41-7.408 10.957-17.838 9.603-28.228z" fill="#c7c5cb" data-original="#c7c5cb"></path><path d="m476.98 102.185-71.35-71.35c-20.203-20.203-52.959-20.203-73.162 0-7.409 7.409-10.957 17.839-9.602 28.229 1.267 9.714 8.912 17.36 18.627 18.627 9.714 1.267 17.36 8.912 18.627 18.627s8.912 17.36 18.627 18.627c9.714 1.267 17.36 8.912 18.627 18.627 1.267 9.714 8.912 17.36 18.627 18.627 6.732.878 9.528 9.099 4.728 13.899l-84.428 84.428 47.659 41.344 93.021-93.021c26.692-26.694 26.692-69.971-.001-96.664z" fill="#475066" data-original="#475066"></path><path d="m271.263 382.854-61.631-61.631-45.03 45.03 61.631 61.631c12.435 12.435 32.595 12.435 45.03 0 12.435-12.434 12.435-32.595 0-45.03z" fill="#b2b0bc" data-original="#b2b0bc"></path><path d="m323.711 134.562c-.516-.106-1.035-.202-1.564-.271-9.715-1.267-17.36-8.912-18.627-18.627-1.267-9.714-8.912-17.36-18.627-18.627-10.39-1.354-20.82 2.193-28.229 9.602l-32.125 32.125 33.988 33.988c20.836-14.201 42.864-27.105 65.184-38.19z" fill="#b2b0bc" data-original="#b2b0bc"></path><path d="m408.312 290.836-158.017-158.018c-8.096-8.096-21.222-8.096-29.318 0-10.952 10.952-15.898 25.63-14.846 39.951 1.1 14.972-4.569 29.652-15.184 40.268l-174.93 174.93c-21.355 21.355-21.355 55.979 0 77.334 21.355 21.355 55.979 21.355 77.334 0l193.864-193.864 70.249 70.249c14.042 14.042 36.808 14.042 50.849 0 14.041-14.042 14.041-36.809-.001-50.85zm-329.44 140.038c-7.85 7.851-20.579 7.851-28.429 0-7.851-7.851-7.851-20.579 0-28.429 7.85-7.85 20.579-7.85 28.429 0 7.85 7.851 7.85 20.579 0 28.429z" fill="#ff6f7f" data-original="#ff6f7f"></path><g><g><path d="m128.452 356.731-9.552-9.553c-2.929-2.929-2.929-7.678 0-10.607 2.929-2.928 7.678-2.929 10.606 0l9.552 9.553c2.929 2.929 2.929 7.678 0 10.607-2.928 2.929-7.677 2.929-10.606 0z" fill="#303646" data-original="#303646"></path></g><g><path d="m227.877 257.306-9.553-9.553c-2.929-2.929-2.929-7.678 0-10.607s7.678-2.929 10.606 0l9.553 9.552c2.929 2.929 2.929 7.678 0 10.607-2.928 2.93-7.677 2.931-10.606.001z" fill="#303646" data-original="#303646"></path></g><g><path d="m169.563 322.02c-4.132-.284-7.252-3.864-6.969-7.996.284-4.132 3.86-7.253 7.996-6.969 10.353.713 18.927-7.862 18.217-18.217-.284-4.133 2.836-7.712 6.969-7.996s7.712 2.836 7.996 6.969c.636 9.265-2.759 18.339-9.315 24.894-6.533 6.534-15.595 9.952-24.894 9.315z" fill="#303646" data-original="#303646"></path></g></g><path d="m189.107 229.659c25.249-25.249 55.859-49.021 88.611-69.417l-27.424-27.423c-8.096-8.096-21.222-8.096-29.318 0-10.952 10.952-15.898 25.63-14.846 39.951 1.1 14.973-4.569 29.652-15.184 40.268l-174.93 174.93c-21.355 21.355-21.355 55.979 0 77.333 21.355 21.355 55.979 21.355 77.334 0l.501-.5c-12.201-70.448 22.196-162.083 95.256-235.142zm-110.235 201.215c-7.85 7.851-20.579 7.851-28.429 0-7.851-7.851-7.851-20.579 0-28.429 7.85-7.851 20.579-7.851 28.429 0 7.851 7.851 7.851 20.579 0 28.429z" fill="#fc5c70" data-original="#fc5c70"></path><path d="m341.494 77.691c9.715 1.267 17.36 8.913 18.627 18.627 1 7.669 5.984 14.034 12.815 17.004 33.729-12.3 66.595-19.504 95.442-19.74l-62.747-62.747c-20.203-20.203-52.959-20.203-73.162 0-7.409 7.409-10.957 17.838-9.602 28.229 1.266 9.715 8.912 17.361 18.627 18.627z" fill="#3b4556" data-original="#3b4556"></path></g></g></svg>