<svg xmlns="http://www.w3.org/2000/svg" version="1.1" xmlns:xlink="http://www.w3.org/1999/xlink" xmlns:svgjs="http://svgjs.com/svgjs" width="512" height="512" x="0" y="0" viewBox="0 0 60 60" style="enable-background:new 0 0 512 512" xml:space="preserve" class=""><g><path xmlns="http://www.w3.org/2000/svg" d="m3 57-1.257-2.349a5.873 5.873 0 0 1 1.331-7.335l4.7-3.991a23.52 23.52 0 0 0 7.126-10.643l1.136-3.482 11.964-3.2 16-1-22 22z" fill="#925c4c" data-original="#925c4c"></path><path xmlns="http://www.w3.org/2000/svg" d="m53.12 15.59-3.12 4.41-11.22 7.78c-6.43-1.85-13.85 1.96-16.69 3.64a2.36 2.36 0 0 1 -2.42-.01l-4.41-2.67a1.178 1.178 0 0 1 -.54-1.25l.43-2.05.4-1.96.79-3.8.41-1.96.23-1.1a4.3 4.3 0 0 1 4.23-3.42 3.9 3.9 0 0 1 .59.04c2.76.36 8.15.44 12.6-3.35a16.822 16.822 0 0 0 5.47-8.06 1.164 1.164 0 0 1 1.73-.66 35.151 35.151 0 0 1 7.99 6.62c3.8 4.49 3.53 7.8 3.53 7.8z" fill="#a9725e" data-original="#a9725e"></path><path xmlns="http://www.w3.org/2000/svg" d="m41.828 31.363c-6.273 5.33-7.439 9.408-13.713 14.739a61.952 61.952 0 0 1 -23.694 12.861 1.175 1.175 0 0 1 -1.189-.378l-1.364-1.607a1.17 1.17 0 0 1 .56-1.887 63.234 63.234 0 0 0 22.643-12.576c6.273-5.33 7.439-9.408 13.712-14.738l2.217 1.223z" fill="#513d3a" data-original="#513d3a"></path><path xmlns="http://www.w3.org/2000/svg" d="m58.59 20.21-14.34 12.18a1.174 1.174 0 0 1 -1.66-.13l-3.81-4.48 15.24-12.95a1.176 1.176 0 0 1 1.66.14l3.04 3.58a1.183 1.183 0 0 1 -.13 1.66z" fill="#443330" data-original="#443330"></path><g xmlns="http://www.w3.org/2000/svg" fill="#513d3a"><path d="m19.09 25.54a.984.984 0 0 1 -.96.72.842.842 0 0 1 -.27-.04l-2.71-.78.4-1.96a.235.235 0 0 1 .08.02l2.78.8a.994.994 0 0 1 .68 1.24z" fill="#513d3a" data-original="#513d3a"></path><path d="m20.4 19.8a1 1 0 0 1 -.97.72 1.241 1.241 0 0 1 -.27-.03l-2.82-.81.41-1.96a.235.235 0 0 1 .08.02l2.88.82a1.012 1.012 0 0 1 .69 1.24z" fill="#513d3a" data-original="#513d3a"></path></g></g></svg>