<svg xmlns="http://www.w3.org/2000/svg" version="1.1" xmlns:xlink="http://www.w3.org/1999/xlink" xmlns:svgjs="http://svgjs.com/svgjs" width="512" height="512" x="0" y="0" viewBox="0 0 512.00007 512" style="enable-background:new 0 0 512 512" xml:space="preserve" class=""><g transform="matrix(1,0,0,1,0,130)"><path xmlns="http://www.w3.org/2000/svg" d="m202.070312 53.867188c-16.304687-16.304688-17.597656-28.738282-5.824218-47.4375 11.777344-18.703126 48.898437 9.351562 48.898437 9.351562v104.863281" fill="#fee372" data-original="#fee372"></path><path xmlns="http://www.w3.org/2000/svg" d="m502.179688 182.578125c0 31.859375-43.640626 54.71875-96.28125 54.71875h-281.222657c-25.300781 0-46.457031-2.839844-63.730469-6.859375-41.863281-9.726562-60.945312-26.382812-60.945312-26.382812l18.699219-45.03125 46.007812 2.242187zm0 0" fill="#cce6f6" data-original="#cce6f6"></path><path xmlns="http://www.w3.org/2000/svg" d="m502.179688 182.578125s-51.25 18.699219-120.519532 18.699219c-50.378906 0-219.480468-22.355469-307.949218-34.550782-33.175782-4.558593-55.011719-7.707031-55.011719-7.707031-13.277344-18.378906 12.957031-81.523437 27.671875-113.46875 7.769531-16.847656 23.597656-28.839843 42.03125-30.988281 1.710937-.203125 3.414062-.308594 5.101562-.308594 9.292969 0 15.265625 15.5 24.207032 30.488282 8.378906 14.074218 19.359374 27.695312 38.132812 27.695312 38.789062 0 89.296875-56.652344 89.296875-56.652344 99.203125 67.960938 176 98.214844 176 98.214844s64.070313.351562 79.65625 15.9375c15.585937 15.582031 13.820313 44.328125 1.382813 52.640625zm0 0" fill="#fb6572" data-original="#fb6572"></path><path xmlns="http://www.w3.org/2000/svg" d="m73.714844 166.730469-12.769532 63.707031c-41.863281-9.726562-60.945312-26.382812-60.945312-26.382812l18.699219-45.03125 46.007812 2.242187zm0 0" fill="#9dcae0" data-original="#9dcae0"></path><path xmlns="http://www.w3.org/2000/svg" d="m117.714844 44.742188c-21.316406-26.808594-61.957032 65.472656-44 121.988281-33.179688-4.5625-55.015625-7.707031-55.015625-7.707031-13.277344-18.382813 12.960937-81.527344 27.671875-113.472657 7.769531-16.847656 23.601562-28.839843 42.035156-30.988281 1.710938-.199219 3.410156-.308594 5.101562-.308594 9.289063 0 15.265626 15.5 24.207032 30.488282zm0 0" fill="#ea394e" data-original="#ea394e"></path><path xmlns="http://www.w3.org/2000/svg" d="m279.136719 38.214844-94.101563 104.703125c-31.847656-18.914063-77.71875-34.445313-111.472656-44.339844-25.375-7.445313-43.902344-11.714844-44.46875-11.84375 3.222656-8.632813 6.667969-17.074219 9.984375-24.769531l41.5 13.554687 11.726563 3.828125c13.511718 4.410156 28.277343 2.675782 40.40625-4.730468l8.652343-5.285157c4.253907 1.957031 9.039063 3.105469 14.480469 3.105469 38.789062 0 89.296875-56.652344 89.296875-56.652344 11.671875 7.996094 23.039063 15.46875 33.996094 22.429688zm0 0" fill="#4695bc" data-original="#4695bc"></path><path xmlns="http://www.w3.org/2000/svg" d="m502.191406 182.574219s-51.261718 18.699219-120.53125 18.699219c-14.808594 0-39.875-1.933594-70.148437-4.964844v-.007813c0-16.054687 41.054687-53.910156 72.222656-56.671875 5.550781 27.011719 37.410156 19.390625 61.65625 11.074219 24.238281-8.3125 55.410156-20.769531 55.410156-20.769531 15.582031 15.585937 13.816407 44.328125 1.390625 52.640625zm0 0" fill="#4695bc" data-original="#4695bc"></path><path xmlns="http://www.w3.org/2000/svg" d="m80.578125 75.519531c-2.742187 7.101563-5.144531 14.902344-7.015625 23.058594-25.375-7.445313-43.902344-11.714844-44.46875-11.84375 3.222656-8.632813 6.667969-17.074219 9.984375-24.769531zm0 0" fill="#0e708e" data-original="#0e708e"></path><path xmlns="http://www.w3.org/2000/svg" d="m383.734375 139.628906c-31.167969 2.761719-72.222656 40.617188-72.222656 56.671875v.007813c-26.820313-2.699219-57.726563-6.261719-89.183594-10.109375 0-15.550781-15.296875-30.222657-37.289063-43.277344v-.007813l94.101563-104.703124c82.214844 52.230468 142.003906 75.785156 142.003906 75.785156 14.542969 14.542968-6.230469 22.855468-37.410156 25.632812zm0 0" fill="#fee372" data-original="#fee372"></path><g xmlns="http://www.w3.org/2000/svg" fill="#fb6572"><path d="m288.839844 72.65625c-2.007813 0-4.011719-.761719-5.542969-2.292969-3.058594-3.0625-3.058594-8.023437 0-11.082031l20.089844-20.089844c3.0625-3.058594 8.023437-3.058594 11.082031 0 3.058594 3.0625 3.0625 8.023438 0 11.082032l-20.089844 20.089843c-1.527344 1.53125-3.535156 2.292969-5.539062 2.292969zm0 0" fill="#fb6572" data-original="#fb6572"></path><path d="m314.589844 87.082031c-2.007813 0-4.011719-.765625-5.542969-2.296875-3.0625-3.058594-3.0625-8.019531 0-11.082031l20.089844-20.085937c3.0625-3.058594 8.023437-3.058594 11.082031 0 3.058594 3.0625 3.058594 8.023437 0 11.082031l-20.089844 20.085937c-1.527344 1.53125-3.535156 2.296875-5.539062 2.296875zm0 0" fill="#fb6572" data-original="#fb6572"></path><path d="m340.339844 101.507812c-2.007813 0-4.011719-.765624-5.542969-2.296874-3.058594-3.058594-3.058594-8.023438 0-11.082032l20.089844-20.085937c3.0625-3.0625 8.023437-3.0625 11.082031 0 3.058594 3.058593 3.0625 8.023437 0 11.082031l-20.089844 20.085938c-1.527344 1.53125-3.535156 2.296874-5.539062 2.296874zm0 0" fill="#fb6572" data-original="#fb6572"></path><path d="m366.089844 115.929688c-2.003906 0-4.011719-.761719-5.539063-2.292969-3.0625-3.0625-3.0625-8.023438 0-11.082031l20.085938-20.089844c3.0625-3.058594 8.023437-3.058594 11.082031 0 3.0625 3.0625 3.0625 8.023437 0 11.082031l-20.085938 20.089844c-1.53125 1.53125-3.535156 2.292969-5.542968 2.292969zm0 0" fill="#fb6572" data-original="#fb6572"></path></g><path xmlns="http://www.w3.org/2000/svg" d="m244.507812 56.035156c-3.554687 0-6.804687-2.5625-7.617187-6.023437-.800781-3.402344.832031-7.039063 3.898437-8.710938 5.328126-2.902343 12.210938 1.746094 11.507813 7.769531-.453125 3.878907-3.871094 6.964844-7.789063 6.964844zm0 0" fill="#1e2628" data-original="#1e2628"></path></g></svg>