<svg xmlns="http://www.w3.org/2000/svg" version="1.1" xmlns:xlink="http://www.w3.org/1999/xlink" xmlns:svgjs="http://svgjs.com/svgjs" width="512" height="512" x="0" y="0" viewBox="0 0 16.933333 16.933334" style="enable-background:new 0 0 512 512" xml:space="preserve" class=""><g><g xmlns="http://www.w3.org/2000/svg" id="layer1" transform="translate(0 -280.067)"><path id="path3534" d="m9.2604246 285.77791c-.9673802.96739-1.9347601 1.93477-2.9021501 2.90215l1.4324701 1.43247 2.9021504-2.90215z" fill="#c8d4d9" font-variant-ligatures="normal" font-variant-position="normal" font-variant-caps="normal" font-variant-numeric="normal" font-variant-alternates="normal" font-feature-settings="normal" text-indent="0" text-align="start" text-decoration-line="none" text-decoration-style="solid" text-decoration-color="#000000" text-transform="none" text-orientation="mixed" white-space="normal" shape-padding="0" isolation="auto" mix-blend-mode="normal" solid-color="#000000" solid-opacity="1" vector-effect="none" data-original="#c8d4d9"></path><path id="path3512" d="m9.7895944 281.1508c-.73797.00001-1.4759199.28272-2.0391498.84595l-1.05834 1.05833a.26460982.26460982 0 0 0 .2909398.42995s1.6863902-.72587 2.8845802.47232c.1927504.19275.1927504.49093 0 .68368l-1.0583299 1.05885a.26460982.26460982 0 0 0 0 .37465l1.5875003 1.58802a.26460982.26460982 0 0 0 .3731 0l.52968-.52917c.19275-.19274.49042-.19274.68317 0 .19275.19275.19275.49094 0 .68368a.26516505.26516505 0 0 0 .37517.37466l2.64635-2.64635a.26516505.26516505 0 0 0 -.37466-.37517c-.19274.19275-.49093.19275-.68368 0-.19274-.19275-.19274-.49042 0-.68317a.26460982.26460982 0 0 0 0-.3731l-2.11718-2.11718c-.56323-.56323-1.30118-.84595-2.0391506-.84595z" fill="#dbe9ee" font-variant-ligatures="normal" font-variant-position="normal" font-variant-caps="normal" font-variant-numeric="normal" font-variant-alternates="normal" font-feature-settings="normal" text-indent="0" text-align="start" text-decoration-line="none" text-decoration-style="solid" text-decoration-color="#000000" text-transform="none" text-orientation="mixed" white-space="normal" shape-padding="0" isolation="auto" mix-blend-mode="normal" solid-color="#000000" solid-opacity="1" vector-effect="none" data-original="#dbe9ee"></path><path id="path3542" d="m6.3360546 288.23978c-.2037699.00026-.4078701.0777-.56172.23151l-4.78369004 4.7842c-.61343999.61344-.61343999 1.61278 0 2.22622.61344004.61344 1.61279004.61344 2.22622014 0l4.7836897-4.7842c.3077102-.30771.3077102-.81626 0-1.12396l-1.1032897-1.10381c-.1538502-.15385-.3574302-.23031-.5612101-.22996z" fill="#ff6b6b" font-variant-ligatures="normal" font-variant-position="normal" font-variant-caps="normal" font-variant-numeric="normal" font-variant-alternates="normal" font-feature-settings="normal" text-indent="0" text-align="start" text-decoration-line="none" text-decoration-style="solid" text-decoration-color="#000000" text-transform="none" text-orientation="mixed" white-space="normal" shape-padding="0" isolation="auto" mix-blend-mode="normal" solid-color="#000000" solid-opacity="1" vector-effect="none" data-original="#ff6b6b"></path><path id="path3519" d="m14.813575 285.09372a.26460982.26460982 0 0 0 -.18345.077l-2.64635 2.64583a.26460982.26460982 0 0 0 0 .37569l.94878.94878c.30771.3077.81523.30617 1.12293-.002l1.89756-1.89756c.3077-.30771.3077-.81367 0-1.12138l-.94878-.94878a.26460982.26460982 0 0 0 -.19069-.078z" fill="#c8d4d9" font-variant-ligatures="normal" font-variant-position="normal" font-variant-caps="normal" font-variant-numeric="normal" font-variant-alternates="normal" font-feature-settings="normal" text-indent="0" text-align="start" text-decoration-line="none" text-decoration-style="solid" text-decoration-color="#000000" text-transform="none" text-orientation="mixed" white-space="normal" shape-padding="0" isolation="auto" mix-blend-mode="normal" solid-color="#000000" solid-opacity="1" vector-effect="none" data-original="#c8d4d9"></path></g></g></svg>