<svg height="461pt" viewBox="0 -25 461.14656 461" width="461pt" xmlns="http://www.w3.org/2000/svg"><path d="m461.148438 206.054688c.011718-5.988282-3.328126-11.472657-8.648438-14.210938l-49.867188-25.789062 49.867188-25.800782c5.308594-2.75 8.640625-8.230468 8.640625-14.210937 0-5.976563-3.332031-11.457031-8.640625-14.207031l-210.90625-109.085938c-6.914062-3.570312-15.128906-3.570312-22.046875 0l-210.90625 109.09375c-5.308594 2.75-8.640625 8.230469-8.640625 14.210938 0 5.976562 3.332031 11.457031 8.640625 14.207031l49.867187 25.792969-49.867187 25.789062c-5.308594 2.75-8.640625 8.230469-8.640625 14.210938 0 5.976562 3.332031 11.457031 8.640625 14.207031l49.867187 25.792969-49.867187 25.789062c-5.308594 2.75-8.640625 8.230469-8.640625 14.210938 0 5.976562 3.332031 11.457031 8.640625 14.207031l210.90625 109.09375c6.914063 3.578125 15.132813 3.578125 22.046875 0l210.90625-109.09375c5.308594-2.75 8.640625-8.230469 8.640625-14.207031 0-5.980469-3.332031-11.460938-8.640625-14.210938l-49.867188-25.789062 49.867188-25.800782c5.320312-2.734375 8.660156-8.21875 8.648438-14.199218zm-234.257813-189.097657c2.308594-1.183593 5.050781-1.183593 7.359375 0l210.90625 109.097657-210.90625 109.09375c-1.136719.585937-2.398438.886718-3.679688.886718-.253906 0-.488281-.148437-.734374-.175781-1.015626-.046875-2.011719-.289063-2.9375-.710937l-210.910157-109.09375zm218.304687 269.097657h-.039062l-210.90625 109.09375c-2.308594 1.183593-5.050781 1.183593-7.359375 0l-210.902344-109.09375 59.933594-30.984376 143.617187 74.285157c6.921876 3.574219 15.140626 3.574219 22.0625 0l143.625-74.292969zm-210.953124 29.085937c-2.304688 1.191406-5.039063 1.191406-7.34375 0l-210.910157-109.085937 59.933594-30.984376 143.625 74.285157c2.332031 1.15625 4.835937 1.914062 7.414063 2.25 4.996093.824219 10.125.035156 14.640624-2.25l143.617188-74.285157 59.9375 30.984376zm0 0"/></svg>