<svg viewBox="0 0 511.99928 511" xmlns="http://www.w3.org/2000/svg"><path d="m241.21875 257.140625c-3.910156 3.898437-3.910156 10.230469 0 14.140625s10.238281 3.910156 14.140625 0c3.910156-3.910156 3.910156-10.242188 0-14.140625-3.902344-3.910156-10.230469-3.910156-14.140625 0zm0 0"/><path d="m400.226562 29.753906c-17.160156 13.285156-21.835937 20.132813-82.695312 80.363282l-36.484375-5.941407 16.742187-16.742187c11.726563-11.726563 11.730469-30.699219 0-42.425782-11.722656-11.722656-30.707031-11.726562-42.429687 0l-47.289063 47.289063-165.382812-26.925781c-10.6875-1.734375-21.621094 1.800781-29.269531 9.449218-14.707031 14.707032-12.710938 39.039063 4.066406 51.179688l164.808594 119.351562-30.855469 30.859376c-10.574219 10.574218-21.703125 25.117187-33.140625 43.277343l-76.859375-22.601562c-11.34375-3.332031-23.59375-.210938-31.972656 8.152343-14.265625 14.265626-12.109375 37.957032 4.460937 49.433594l63.007813 43.617188c-10.96875 24.207031-17.636719 41.710937-17.945313 42.519531-1.398437 3.679687-.503906 7.839844 2.277344 10.621094 2.796875 2.796875 6.960937 3.667969 10.621094 2.277343.808593-.304687 18.3125-6.976562 42.519531-17.945312l43.621094 63.011719c11.496094 16.597656 35.1875 18.699219 49.4375 4.449219 8.359375-8.371094 11.480468-20.621094 8.144531-31.964844l-22.597656-76.855469c18.171875-11.445313 32.707031-22.574219 43.277343-33.140625l30.859376-30.859375 119.347656 164.808594c12.160156 16.804687 36.492187 18.757812 51.183594 4.066406 7.644531-7.644531 11.179687-18.585937 9.449218-29.277344l-26.925781-165.371093 47.285156-47.285157c11.726563-11.726562 11.726563-30.710937 0-42.433593-11.722656-11.726563-30.695312-11.726563-42.421875 0l-16.746094 16.742187-5.9375-36.484375c60.292969-60.921875 67.03125-65.488281 80.324219-82.648438.015625-.019531.035157-.042968.050781-.066406 30.84375-39.972656 38.0625-80.34375 17.949219-100.464844-20.117187-20.105468-60.492187-12.894531-100.480469 17.964844zm-130.726562 29.398438c3.90625-3.910156 10.238281-3.910156 14.148438 0 3.910156 3.910156 3.90625 10.226562 0 14.136718l-26.929688 26.925782-24.324219-3.960938zm-240.289062 50.644531c-6.84375-4.949219-7.628907-14.859375-1.648438-20.835937 3.113281-3.117188 7.574219-4.558594 11.917969-3.851563l260.625 42.433594-103.488281 103.484375zm-5.605469 209.390625c3.195312-3.191406 7.867187-4.386719 12.191406-3.113281l71.886719 21.140625c-7.351563 12.875-14.769532 27.097656-22.167969 42.492187l-60.203125-41.675781c-6.316406-4.375-7.144531-13.410156-1.707031-18.84375zm169.710937 169.703125c-5.390625 5.390625-14.4375 4.664063-18.847656-1.703125l-41.675781-60.207031c15.40625-7.40625 29.632812-14.828125 42.492187-22.164063l21.136719 71.882813c1.273437 4.328125.082031 9-3.105469 12.191406zm245.894532-260.039063c3.90625-3.90625 10.226562-3.910156 14.136718 0 3.910156 3.910157 3.90625 10.238282 0 14.148438l-37.105468 37.101562-3.957032-24.324218zm-11.824219 244.15625c.707031 4.355469-.734375 8.816407-3.847657 11.929688-5.949218 5.949219-15.867187 5.222656-20.839843-1.652344l-121.230469-167.402344 103.488281-103.488281zm-205.238281-126.089843c-11.003907 11.007812-27.109376 22.890625-47.867188 35.324219-26.984375 16.160156-58.917969 31.464843-87.722656 43.699218 12.566406-29.585937 28.160156-62.035156 44.667968-89.328125 12.074219-19.976562 23.632813-35.542969 34.355469-46.261719 244.273438-243.6875 229.800781-231.117187 244.625-242.972656 16.445313-1.050781 30.921875 3.832032 41 13.910156 10.078125 10.078126 14.964844 24.558594 13.914063 41-11.882813 14.859376.539062.527344-242.972656 244.628907zm260.085937-270.90625c-3.195313-11.023438-8.871094-20.851563-16.882813-28.863281-8.011718-8.007813-17.839843-13.6875-28.859374-16.882813 14.472656-7.339844 38.84375-15.558594 50.074218-4.335937 8.867188 8.871093 6.664063 28.398437-4.332031 50.082031zm0 0"/><path d="m297.789062 200.570312-28.28125 28.277344c-3.90625 3.90625-3.90625 10.238282 0 14.144532s10.234376 3.902343 14.144532 0l28.277344-28.28125c3.90625-3.902344 3.90625-10.234376 0-14.140626s-10.234376-3.90625-14.140626 0zm0 0"/><path d="m354.359375 144-28.292969 28.289062c-3.902344 3.90625-3.902344 10.238282 0 14.144532 3.910156 3.902344 10.238282 3.902344 14.144532 0l28.289062-28.289063c3.90625-3.90625 3.90625-10.238281 0-14.144531s-10.234375-3.90625-14.140625 0zm0 0"/></svg>