<svg height="512pt" viewBox="0 -16 512.00219 512" width="512pt" xmlns="http://www.w3.org/2000/svg"><path d="m146 260.019531c0 5.519531-4.476562 10-10 10s-10-4.480469-10-10c0-5.523437 4.476562-10 10-10s10 4.476563 10 10zm0 0"/><path d="m34.378906 292.960938c13.730469 15.164062 13.160156 27.265624 12.21875 47.316406-.285156 6.011718-.605468 12.824218-.484375 20.195312.585938 35.710938 26.765625 41.652344 47.800781 46.421875 17.894532 4.0625 34.800782 7.898438 44.941407 25.578125 17.355469 30.796875 32.105469 55.382813 66.269531 44.4375 11.601562-3.722656 19.898438-7.242187 26.566406-10.070312 10.019532-4.25 15.539063-6.59375 24.308594-6.59375 8.765625 0 14.289062 2.34375 24.308594 6.59375 6.671875 2.828125 14.96875 6.351562 26.570312 10.070312 16.222656 5.199219 29.382813 2.367188 40.550782-7.507812 10.242187-9.058594 18.234374-23.859375 25.714843-36.929688 10.144531-17.679687 27.046875-21.515625 44.941407-25.578125 21.035156-4.769531 47.214843-10.710937 47.792968-46.421875.121094-7.375-.195312-14.191406-.476562-20.203125-.941406-20.046875-1.507813-32.148437 12.222656-47.308593 20.839844-23.011719 34.402344-37.359376 34.378906-53.234376.027344-16.941406-16.660156-33.652343-34.378906-53.210937-13.730469-15.167969-13.164062-27.269531-12.222656-47.320313.28125-6.011718.601562-12.828124.476562-20.199218-.578125-35.707032-26.753906-41.648438-47.789062-46.421875-17.894532-4.0625-34.800782-7.898438-44.945313-25.582031-7.515625-13.121094-15.574219-27.957032-25.722656-36.933594-11.449219-10.121094-24.710937-12.570313-40.542969-7.496094-11.609375 3.722656-19.917968 7.242188-26.589844 10.074219-10.015624 4.246093-15.53125 6.585937-24.28125 6.589843-8.769531-.003906-14.28125-2.34375-24.296874-6.589843-6.671876-2.832031-14.976563-6.351563-26.585938-10.070313-15.832031-5.082031-29.09375-2.628906-40.542969 7.492188-10.242187 9.054687-18.242187 23.867187-25.726562 36.933594-10.136719 17.671874-27.703125 21.515624-46.300781 25.582031-21.765626 4.761719-48.855469 10.6875-49.441407 46.421875-.144531 8.960937.578125 17.011718 1.222657 24.113281 1.652343 18.378906 2.652343 29.472656-9.957032 43.40625-20.519531 22.652344-34.4335935 37.289063-34.378906 53.1875-.0585938 16.828125 16.152344 33.136719 34.378906 53.257813zm14.824219-93.023438c18.488281-20.425781 16.816406-38.980469 15.050781-58.621094-.625-6.929687-1.273437-14.097656-1.144531-21.996094.3125-19.101562 10.5625-22.144531 33.714844-27.207031 19.972656-4.371093 44.828125-9.804687 59.378906-35.167969 14.703125-23.894531 21.304687-42.234374 42.816406-35.335937 10.742188 3.445313 18.253907 6.628906 24.882813 9.441406 10.765625 4.5625 19.265625 8.171875 32.101562 8.175781 12.820313-.003906 21.324219-3.613281 32.089844-8.175781 6.628906-2.8125 14.140625-5.996093 24.890625-9.441406 21.464844-6.878906 27.886719 11.085937 42.8125 35.335937 14.507813 25.289063 38.550781 30.746094 57.867187 35.132813 22.6875 5.148437 31.902344 8.007813 32.21875 27.246094.109376 6.742187-.179687 12.941406-.460937 18.9375-.972656 20.769531-1.894531 40.390625 17.375 61.679687 14.753906 16.285156 29.222656 31.636719 29.203125 39.761719v.050781c.023438 8.777344-17.257812 26.597656-29.203125 39.78125-19.269531 21.277344-18.347656 40.898438-17.375 61.667969.28125 5.996094.570313 12.199219.460937 18.941406-.316406 19.242188-9.535156 22.097657-32.222656 27.246094-19.316406 4.382813-43.355468 9.839844-57.863281 35.132813l-1.351563 2.351562c-16.914062 29.546875-23.859374 38.625-41.460937 32.992188-10.734375-3.445313-18.242187-6.628907-24.867187-9.4375-10.773438-4.570313-19.285157-8.183594-32.117188-8.183594-12.835938 0-21.347656 3.609375-32.121094 8.183594-6.621094 2.808593-14.128906 5.992187-24.859375 9.433593-21.421875 6.863281-27.808593-10.953125-42.8125-35.34375-14.511719-25.289062-38.550781-30.746093-57.867187-35.128906-22.691406-5.148437-31.914063-8.003906-32.230469-27.246094-.109375-6.738281.183594-12.933593.464844-18.925781.980469-20.777344 1.902343-40.402344-17.371094-61.683594-13.464844-14.863281-29.230469-31.398437-29.203125-39.832031-.03125-8.757813 17.285156-26.605469 29.203125-39.765625zm0 0"/><path d="m216 170.019531c-16.542969 0-30 13.457031-30 30 0 16.539063 13.457031 30 30 30s30-13.460937 30-30c0-16.542969-13.457031-30-30-30zm0 40c-5.515625 0-10-4.488281-10-10 0-5.515625 4.484375-10 10-10s10 4.484375 10 10c0 5.511719-4.484375 10-10 10zm0 0"/><path d="m266 280.019531c0 16.539063 13.457031 30 30 30s30-13.460937 30-30c0-16.542969-13.457031-30-30-30s-30 13.457031-30 30zm40 0c0 5.511719-4.484375 10-10 10s-10-4.488281-10-10c0-5.515625 4.484375-10 10-10s10 4.484375 10 10zm0 0"/><path d="m210.453125 308.339844c4.574219 3.046875 10.792969 1.839844 13.867187-2.773438l80-120c3.0625-4.597656 1.820313-10.804687-2.773437-13.867187-4.597656-3.066407-10.804687-1.824219-13.867187 2.773437l-80 120c-3.0625 4.59375-1.820313 10.800782 2.773437 13.867188zm0 0"/><path d="m256 410.019531c93.738281 0 170-76.261719 170-170s-76.261719-170-170-170-170 76.261719-170 170 76.261719 170 170 170zm0-320c82.710938 0 150 67.289063 150 150 0 82.707031-67.289062 150-150 150s-150-67.292969-150-150c0-82.710937 67.289062-150 150-150zm0 0"/><path d="m237.660156 131.550781c5.445313-.917969 9.117188-6.078125 8.199219-11.523437-.914063-5.445313-6.070313-9.113282-11.519531-8.199219-54.550782 9.183594-97.367188 52.007813-106.539063 106.5625-1.023437 6.078125 3.65625 11.660156 9.871094 11.660156 4.792969 0 9.027344-3.457031 9.851563-8.34375 7.757812-46.15625 43.984374-82.386719 90.136718-90.15625zm0 0"/></svg>