<?xml version="1.0" encoding="iso-8859-1"?>
<!-- Generator: Adobe Illustrator 19.0.0, SVG Export Plug-In . SVG Version: 6.00 Build 0)  -->
<svg version="1.1" id="Capa_1" xmlns="http://www.w3.org/2000/svg" xmlns:xlink="http://www.w3.org/1999/xlink" x="0px" y="0px"
	 viewBox="0 0 512 512" style="enable-background:new 0 0 512 512;" xml:space="preserve">
<g>
	<g>
		<g>
			<path d="M477.679,222.71C473.752,99.221,375.854,0,256,0S38.248,99.221,34.321,222.71C14.387,226.709,0.032,244.202,0,264.533
				V384c0.028,23.553,19.114,42.639,42.667,42.667c0.049,42.395,34.405,76.751,76.8,76.8h79.173
				c3.024,5.262,8.624,8.514,14.693,8.533h76.8c9.422-0.009,17.057-7.645,17.067-17.067V460.8
				c-0.009-9.422-7.645-17.057-17.067-17.067h-76.8c-6.07,0.019-11.669,3.271-14.693,8.533h-79.173
				c-14.132-0.015-25.585-11.468-25.6-25.6h25.6c9.422-0.009,17.057-7.645,17.067-17.067V238.933
				c-0.009-9.422-7.645-17.057-17.067-17.067H85.745C90.03,127.028,164.639,51.2,256,51.2s165.97,75.828,170.255,170.667h-33.721
				c-9.422,0.009-17.057,7.645-17.067,17.067V409.6c0.009,9.422,7.645,17.057,17.067,17.067h76.8
				C492.886,426.639,511.972,407.553,512,384V264.533C511.968,244.202,497.613,226.709,477.679,222.71z M213.333,460.8h76.8
				l0.012,34.133h-76.812V460.8z M119.467,469.333h76.8V486.4h-76.8c-32.974-0.037-59.696-26.759-59.733-59.733H76.8
				C76.828,450.219,95.914,469.306,119.467,469.333z M119.467,238.933l0.012,170.667H42.667c-14.132-0.015-25.585-11.468-25.6-25.6
				V264.533c0.015-14.132,11.468-25.585,25.6-25.6H119.467z M256,34.133c-100.779,0-183.234,83.459-187.526,187.733H51.408
				c4.32-113.687,94.415-204.8,204.592-204.8s200.272,91.113,204.592,204.8h-17.066C439.234,117.593,356.779,34.133,256,34.133z
				 M494.933,384c-0.015,14.132-11.468,25.585-25.6,25.6h-76.8V238.933h76.8c14.132,0.015,25.585,11.468,25.6,25.6V384z"/>
			<path d="M349.867,332.8H332.8v-21.333c0-4.713-3.82-8.533-8.533-8.533s-8.533,3.82-8.533,8.533V332.8h-36.162l43.446-72.408
				c1.569-2.614,1.624-5.867,0.145-8.532c-1.479-2.666-4.268-4.34-7.317-4.392c-3.048-0.052-5.893,1.527-7.462,4.141l-51.2,85.333
				c-1.582,2.636-1.623,5.919-0.109,8.595s4.351,4.33,7.425,4.33h51.233v25.6c0,4.713,3.82,8.533,8.533,8.533
				s8.533-3.82,8.533-8.533v-25.6h17.067c4.713,0,8.533-3.82,8.533-8.533S354.58,332.8,349.867,332.8z"/>
			<path d="M158.313,367.838c-3.535,1.773-5.389,5.743-4.48,9.592s4.345,6.568,8.3,6.57h76.8c4.713,0,8.533-3.82,8.533-8.533
				s-3.82-8.533-8.533-8.533H191.45c21.067-15.825,47.483-42.5,47.483-76.8c0-17.745-10.983-33.637-27.582-39.911
				c-16.599-6.274-35.348-1.619-47.085,11.69c-3.118,3.535-2.78,8.928,0.754,12.046c3.535,3.118,8.928,2.78,12.046-0.754
				c7.041-7.987,18.291-10.782,28.251-7.018c9.96,3.764,16.55,13.3,16.549,23.947C221.867,335.4,158.946,367.517,158.313,367.838z"
				/>
		</g>
	</g>
</g>
<g>
</g>
<g>
</g>
<g>
</g>
<g>
</g>
<g>
</g>
<g>
</g>
<g>
</g>
<g>
</g>
<g>
</g>
<g>
</g>
<g>
</g>
<g>
</g>
<g>
</g>
<g>
</g>
<g>
</g>
</svg>
