<?xml version="1.0"?>
<svg xmlns="http://www.w3.org/2000/svg" viewBox="0 0 512 512" width="512" height="512"><g id="_04-security" data-name="04-security"><g id="linear_color-2" data-name="linear color"><path d="M160,207H48a10,10,0,0,0-10,10v32a10,10,0,0,0,10,10H160a10,10,0,0,0,10-10V217A10,10,0,0,0,160,207Zm-10,32H58V227h92Z"/><path d="M112,278H49a10,10,0,0,0,0,20h63a10,10,0,0,0,0-20Z"/><path d="M506.347,328.917c-1.114-29.639-3.358-57.449-3.38-57.727a10,10,0,0,0-7.151-8.785L442,246.605V80a26.029,26.029,0,0,0-26-26H32A26.029,26.029,0,0,0,6,80V336a26.029,26.029,0,0,0,26,26H261.022c.157,28.336,2.652,37.709,5.034,42.472,1.785,3.57,6.526,13.053,60.4,57.92,25.953,21.615,51.141,41.294,51.393,41.49a10,10,0,0,0,12.306,0c.252-.2,25.44-19.875,51.393-41.49,53.872-44.867,58.613-54.35,60.4-57.92C505.08,398.2,508.414,383.945,506.347,328.917ZM26,138H422v28H26Zm6-64H416a6.006,6.006,0,0,1,6,6v38H26V80A6.006,6.006,0,0,1,32,74ZM26,336V186H422v54.734l-35.184-10.329a9.992,9.992,0,0,0-5.632,0l-109,32a10,10,0,0,0-7.151,8.785c-.022.278-2.266,28.088-3.38,57.727-.174,4.647-.309,9-.41,13.083H32A6.006,6.006,0,0,1,26,336Zm458.056,59.528C479.3,405.038,430.55,446.661,384,483.294c-46.549-36.631-95.3-78.253-100.056-87.766-.625-1.25-3.279-8.655-2.881-43.382,0-.049.007-.1.007-.146,0-.031,0-.061,0-.091.076-6.421.255-13.768.571-22.179.768-20.486,2.086-40.1,2.812-50.082L384,250.422l99.551,29.226c.725,9.969,2.041,29.544,2.81,50.019C488.4,383.89,484.8,394.043,484.056,395.528Z"/><path d="M457.851,292.947l-71.034-20.854a10,10,0,0,0-5.634,0l-71.034,20.854a10,10,0,0,0-7.165,9.006c-1.709,28.945-2.9,65.572-1.106,81.565a9.992,9.992,0,0,0,2.621,5.7c12.194,13.09,45.82,41.377,73.222,63.484a10,10,0,0,0,12.558,0c27.4-22.107,61.028-50.394,73.222-63.484a9.992,9.992,0,0,0,2.621-5.7c1.79-15.993.6-52.621-1.106-81.565A10,10,0,0,0,457.851,292.947ZM446.54,378c-10.431,10.483-34,30.861-62.54,54.058-28.535-23.2-52.109-43.575-62.54-54.058-.908-12.826-.5-38.308,1.093-67.848L384,292.11l61.447,18.04C447.04,339.689,447.448,365.171,446.54,378Z"/><path d="M422.247,320.191a10,10,0,0,0-14.056,1.562l-26.272,32.841L365.547,343.68a10,10,0,0,0-11.094,16.64l24,16a10,10,0,0,0,13.356-2.073l32-40A10,10,0,0,0,422.247,320.191Z"/></g></g></svg>
