<?xml version="1.0" encoding="iso-8859-1"?>
<!-- Generator: Adobe Illustrator 18.0.0, SVG Export Plug-In . SVG Version: 6.00 Build 0)  -->
<!DOCTYPE svg PUBLIC "-//W3C//DTD SVG 1.1//EN" "http://www.w3.org/Graphics/SVG/1.1/DTD/svg11.dtd">
<svg version="1.1" id="Capa_1" xmlns="http://www.w3.org/2000/svg" xmlns:xlink="http://www.w3.org/1999/xlink" x="0px" y="0px"
	 viewBox="0 0 58 58" style="enable-background:new 0 0 58 58;" xml:space="preserve">
<path d="M58,33.17c0-4.632-3.572-9.017-9.801-12.032C35.417,14.288,33.003,3.085,32.98,2.973L32.817,2.17H25.18L25.02,2.974
	c-0.022,0.112-2.393,11.3-15.2,18.155C3.579,24.145,0,28.533,0,33.17c0,7.981,10.249,14.341,24.924,15.465
	c0.582,0.045,1.107,0.079,1.612,0.108l-4.701,0.783c-0.544,0.091-0.913,0.606-0.822,1.151c0.082,0.489,0.505,0.835,0.985,0.835
	c0.054,0,0.11-0.004,0.166-0.014l3.782-0.63l-1.854,1.854c-0.391,0.391-0.391,1.023,0,1.414c0.195,0.195,0.451,0.293,0.707,0.293
	s0.512-0.098,0.707-0.293L28,51.644v3.186c0,0.552,0.448,1,1,1s1-0.448,1-1v-3.186l2.493,2.493c0.195,0.195,0.451,0.293,0.707,0.293
	s0.512-0.098,0.707-0.293c0.391-0.391,0.391-1.023,0-1.414l-1.865-1.865l3.762,0.752c0.066,0.013,0.132,0.02,0.197,0.02
	c0.467,0,0.885-0.329,0.979-0.804c0.108-0.542-0.243-1.068-0.784-1.177l-4.406-0.881c0.401-0.018,0.816-0.039,1.266-0.064
	C47.743,47.865,58,41.478,58,33.17z M28.97,10.424c0.364,1.868,0.875,4.164,1.601,6.898c0.463,1.742,0.978,3.313,1.531,4.668
	c0.338,0.828,0.471,1.131,0.704,1.663c0.2,0.457,0.474,1.083,1.023,2.375c0.845,1.986,1.246,4.641,1.159,7.676
	c-0.208,7.253-3.131,12.322-5.879,13.123c-0.094,0-0.19-0.001-0.284-0.002c-2.746-0.807-5.665-5.874-5.873-13.121
	c-0.087-3.035,0.313-5.689,1.159-7.676c0.547-1.286,0.821-1.913,1.021-2.369c0.234-0.535,0.367-0.838,0.706-1.669
	c0.554-1.359,1.069-2.93,1.531-4.668C28.095,14.588,28.606,12.292,28.97,10.424z M36.987,33.762c0.096-3.37-0.347-6.235-1.317-8.517
	c-0.554-1.302-0.831-1.934-1.032-2.394c-0.226-0.516-0.355-0.812-0.684-1.616c-0.521-1.277-1.008-2.767-1.45-4.427
	c-0.691-2.603-1.175-4.776-1.53-6.575c1.307,3.028,3.554,7.159,7.149,10.754c0.822,0.822,1.144,1.122,1.713,1.652
	c0.483,0.45,1.148,1.069,2.472,2.338c1.99,1.908,2.896,4.333,2.694,7.208c-0.424,6.027-5.614,11.033-11.412,13.459
	C35.555,42.866,36.849,38.583,36.987,33.762z M25.437,16.809c-0.44,1.657-0.928,3.146-1.45,4.426
	c-0.33,0.808-0.458,1.103-0.686,1.622c-0.201,0.46-0.478,1.092-1.03,2.388c-0.971,2.283-1.415,5.148-1.317,8.517
	c0.137,4.797,1.42,9.063,3.369,11.843c-5.763-2.44-10.903-7.424-11.325-13.42c-0.202-2.875,0.705-5.3,2.694-7.208
	c1.324-1.269,1.989-1.888,2.472-2.338c0.569-0.53,0.891-0.83,1.713-1.652c3.494-3.494,5.718-7.498,7.04-10.5
	C26.567,12.235,26.094,14.331,25.437,16.809z M47.273,22.911l0.036,0.019C52.833,25.599,56,29.331,56,33.17
	c0,6.407-7.94,11.676-19.347,13.187c5.43-2.979,9.923-8.043,10.344-14.031c0.243-3.446-0.9-6.487-3.305-8.792
	c-1.334-1.28-2.005-1.904-2.493-2.358c-0.552-0.514-0.864-0.805-1.662-1.603c-4.365-4.365-6.631-9.604-7.594-12.338
	C31.47,5.89,31.087,4.891,30.705,4.17h0.515C32.016,7.012,35.489,16.604,47.273,22.911z M2,33.17c0-3.839,3.167-7.572,8.726-10.259
	C22.511,16.604,25.984,7.012,26.781,4.17h0.515c-0.383,0.721-0.765,1.72-1.239,3.064c-0.962,2.734-3.229,7.972-7.594,12.338
	c-0.798,0.798-1.11,1.088-1.662,1.603c-0.487,0.454-1.158,1.079-2.493,2.358c-2.405,2.305-3.548,5.346-3.306,8.792
	c0.412,5.858,4.719,10.838,9.99,13.84C9.776,44.411,2,39.239,2,33.17z"/>
<g>
</g>
<g>
</g>
<g>
</g>
<g>
</g>
<g>
</g>
<g>
</g>
<g>
</g>
<g>
</g>
<g>
</g>
<g>
</g>
<g>
</g>
<g>
</g>
<g>
</g>
<g>
</g>
<g>
</g>
</svg>
