<svg xmlns="http://www.w3.org/2000/svg" version="1.1" xmlns:xlink="http://www.w3.org/1999/xlink" xmlns:svgjs="http://svgjs.com/svgjs" width="512" height="512" x="0" y="0" viewBox="0 0 512 512" style="enable-background:new 0 0 512 512" xml:space="preserve" class=""><g><g xmlns="http://www.w3.org/2000/svg"><path d="m511.394 421.545-37.208-86.817c-3.619-8.443-10.092-15.045-18.004-18.911 6.684-6.775 10.818-16.071 10.818-26.317v-202c0-20.678-16.822-37.5-37.5-37.5h-347c-20.678 0-37.5 16.822-37.5 37.5v202c0 10.246 4.134 19.542 10.818 26.317-7.912 3.866-14.385 10.468-18.004 18.911l-37.208 86.817c-.399.934-.606 1.939-.606 2.955 0 20.678 16.822 37.5 37.5 37.5h437c20.678 0 37.5-16.822 37.5-37.5 0-1.016-.207-2.021-.606-2.955zm-451.394-334.045c0-12.407 10.093-22.5 22.5-22.5h347c12.407 0 22.5 10.093 22.5 22.5v202c0 12.407-10.093 22.5-22.5 22.5h-347c-12.407 0-22.5-10.093-22.5-22.5zm-8.399 253.137c3.55-8.284 11.668-13.637 20.681-13.637h367.437c9.013 0 17.13 5.353 20.681 13.637l32.726 76.363h-474.252zm241.899 91.363v15h-75v-15zm-277.204 0h187.204v15h-166c-9.776 0-18.107-6.272-21.204-15zm458.204 15h-166v-15h187.204c-3.097 8.728-11.428 15-21.204 15z" fill="#ffffff" data-original="#000000" style="" class=""></path><path d="m59.425 387h30c4.142 0 7.5-3.358 7.5-7.5s-3.358-7.5-7.5-7.5h-18.626l6.428-15h357.545l6.429 15h-321.776c-4.142 0-7.5 3.358-7.5 7.5s3.358 7.5 7.5 7.5h333.15c2.521 0 4.874-1.267 6.261-3.371 1.388-2.105 1.625-4.766.632-7.083l-12.857-30c-1.182-2.757-3.894-4.545-6.894-4.545h-367.436c-3 0-5.712 1.788-6.894 4.545l-12.857 30c-.993 2.317-.755 4.979.632 7.083 1.389 2.104 3.742 3.371 6.263 3.371z" fill="#ffffff" data-original="#000000" style="" class=""></path></g></g></svg>