<svg xmlns="http://www.w3.org/2000/svg" version="1.1" xmlns:xlink="http://www.w3.org/1999/xlink" xmlns:svgjs="http://svgjs.com/svgjs" width="512" height="512" x="0" y="0" viewBox="0 0 128 128" style="enable-background:new 0 0 512 512" xml:space="preserve" class=""><g><g xmlns="http://www.w3.org/2000/svg" fill="#070606"><path d="m40.565 102.417 3.386 16.926a1.75 1.75 0 0 0 1.716 1.407h36.666a1.75 1.75 0 0 0 1.716-1.407l3.386-16.926h1.065a10.262 10.262 0 0 0 10.25-10.25v-56.334a10.262 10.262 0 0 0 -10.25-10.25h-1.065l-3.386-16.926a1.75 1.75 0 0 0 -1.716-1.407h-36.666a1.75 1.75 0 0 0 -1.716 1.407l-3.386 16.926h-1.065a10.262 10.262 0 0 0 -10.25 10.25v56.334a10.262 10.262 0 0 0 10.25 10.25zm40.335 14.833h-33.8l-2.966-14.833h39.73zm-33.8-106.5h33.8l2.966 14.833h-39.731zm-14.35 81.417v-56.334a6.758 6.758 0 0 1 6.75-6.75h49a6.758 6.758 0 0 1 6.75 6.75v56.334a6.758 6.758 0 0 1 -6.75 6.75h-49a6.758 6.758 0 0 1 -6.75-6.75z" fill="#ffffff" data-original="#070606" style="" class=""></path><path d="m49.334 62.083a1.753 1.753 0 0 0 1.238-.514c3.857-3.857 7.845-7.845 7.845-12.236a5.423 5.423 0 0 0 -5.417-5.416 4.969 4.969 0 0 0 -3.666 1.426 4.969 4.969 0 0 0 -3.667-1.426 5.423 5.423 0 0 0 -5.417 5.416c0 4.392 3.989 8.38 7.846 12.238a1.751 1.751 0 0 0 1.238.512zm-3.667-14.666c.842 0 1.3.168 2.1 1.781a1.749 1.749 0 0 0 1.565.968 1.748 1.748 0 0 0 1.568-.966c.808-1.614 1.261-1.782 2.1-1.782a1.918 1.918 0 0 1 1.917 1.916c0 2.58-2.666 5.563-5.584 8.52-2.917-2.957-5.583-5.94-5.583-8.52a1.918 1.918 0 0 1 1.917-1.917z" fill="#ffffff" data-original="#070606" style="" class=""></path><path d="m67.667 54.75h11a1.75 1.75 0 0 0 0-3.5h-11a1.75 1.75 0 0 0 0 3.5z" fill="#ffffff" data-original="#070606" style="" class=""></path><path d="m67.667 47.417h18.333a1.75 1.75 0 0 0 0-3.5h-18.333a1.75 1.75 0 0 0 0 3.5z" fill="#ffffff" data-original="#070606" style="" class=""></path><path d="m67.667 76.75h11a1.75 1.75 0 0 0 0-3.5h-11a1.75 1.75 0 0 0 0 3.5z" fill="#ffffff" data-original="#070606" style="" class=""></path><path d="m67.667 69.417h18.333a1.75 1.75 0 0 0 0-3.5h-18.333a1.75 1.75 0 0 0 0 3.5z" fill="#ffffff" data-original="#070606" style="" class=""></path><path d="m42 76.75h1.833a1.748 1.748 0 0 0 1.4-.7l2.35-3.133v9.416a1.75 1.75 0 0 0 3.15 1.05l4.975-6.633h.959a1.75 1.75 0 0 0 0-3.5h-1.834a1.748 1.748 0 0 0 -1.4.7l-2.351 3.133v-9.416a1.749 1.749 0 0 0 -3.149-1.05l-4.975 6.633h-.958a1.75 1.75 0 0 0 0 3.5z" fill="#ffffff" data-original="#070606" style="" class=""></path></g></g></svg>