<svg xmlns="http://www.w3.org/2000/svg" version="1.1" xmlns:xlink="http://www.w3.org/1999/xlink" xmlns:svgjs="http://svgjs.com/svgjs" width="512" height="512" x="0" y="0" viewBox="0 0 512 512" style="enable-background:new 0 0 512 512" xml:space="preserve" class=""><g>
<g xmlns="http://www.w3.org/2000/svg">
	<g>
		<path d="M351.47,58.27c-3.9-3.91-10.24-3.91-14.14,0c-3.91,3.9-3.91,10.24,0,14.14c3.9,3.91,10.24,3.91,14.14,0    C355.38,68.51,355.38,62.17,351.47,58.27z" fill="#ffffff" data-original="#000000" style="" class=""></path>
	</g>
</g>
<g xmlns="http://www.w3.org/2000/svg">
	<g>
		<path d="M466.26,125.764c0.864-3.711,1.311-7.523,1.311-11.393c0-13.362-5.204-25.919-14.65-35.352    C403.469,29.577,329.854,0.06,256,0.06S108.531,29.577,59.083,79.014c-9.449,9.437-14.653,21.993-14.653,35.356    c0,3.874,0.447,7.688,1.309,11.394C15.799,168.072,0,217.811,0,269.94v122c0,22.056,17.944,40,40,40    c0.335,0,0.668-0.013,1.002-0.021c3.98,19.573,19.428,35.027,38.998,39.015v1.006c0,22.056,17.944,40,40,40    c22.056,0,40-17.944,40-40v-160c0-10.68-4.162-20.724-11.719-28.281S130.68,271.94,120,271.94c-22.056,0-40,17.944-40,40v1.006    c-7.386,1.505-14.183,4.644-20,9.021V289.94c0-37.358,11.277-92.672,32.24-125.618c0.729,0.031,1.459,0.048,2.19,0.048    c13.362,0,25.919-5.204,35.348-14.646C160.452,119.078,208.817,100.04,256,100.04s95.549,19.038,126.214,49.676    c9.438,9.45,21.993,14.654,35.356,14.654c0.764,0,1.527-0.018,2.288-0.052C440.9,195.647,452,232.036,452,269.94v52.027    c-5.817-4.377-12.614-7.516-20-9.021v-1.006c0-22.056-17.944-40-40-40c-10.681,0-20.725,4.162-28.281,11.719    C356.162,291.217,352,301.26,352,311.94v160c0,22.056,17.944,40,40,40c22.056,0,40-17.944,40-40v-1.006    c19.57-3.988,35.018-19.442,38.998-39.015c0.334,0.008,0.667,0.021,1.002,0.021c22.056,0,40-17.944,40-40v-122    C512,217.811,496.201,168.072,466.26,125.764z M100,311.94c0-11.028,8.972-20,20-20c5.338,0,10.359,2.082,14.139,5.861    c3.78,3.779,5.861,8.801,5.861,14.139v160c0,11.028-8.972,20-20,20s-20-8.972-20-20V311.94z M412,471.94c0,11.028-8.972,20-20,20    s-20-8.972-20-20v-160c0-5.338,2.082-10.359,5.861-14.139c3.779-3.779,8.801-5.861,14.139-5.861c11.028,0,20,8.972,20,20V471.94z     M452,421.94c0,13.036-8.361,24.152-20,28.28V333.66c11.639,4.128,20,15.243,20,28.28V421.94z M40,411.94    c-11.028,0-20-8.972-20-20c0-11.028,8.972-20,20-20V411.94z M80,333.66v116.56c-11.639-4.128-20-15.243-20-28.28v-60    C60,348.904,68.361,337.788,80,333.66z M40,289.94v62c-7.283,0-14.112,1.966-20,5.381V269.94    c0-44.301,12.408-86.718,36.004-123.603c0.972,1.162,1.987,2.297,3.074,3.385c3.842,3.842,8.214,6.984,12.959,9.367    C50.974,195.823,40,250.758,40,289.94z M422.946,143.895l-0.021,0.003c-1.734,0.313-3.535,0.472-5.354,0.472    c-8.016,0-15.546-3.121-21.212-8.794C361.552,100.801,309.082,80.04,256,80.04c-53.082,0-105.552,20.761-140.366,55.543    c-5.659,5.666-13.189,8.787-21.204,8.787c-1.819,0-3.621-0.159-5.365-0.473c-6-1.077-11.479-3.953-15.844-8.318    c-3.237-3.237-5.624-7.006-7.102-11.228c-1.121-3.176-1.689-6.534-1.689-9.981c0-8.016,3.121-15.546,8.79-21.208    C119.004,47.388,187.333,20.06,256,20.06s136.996,27.328,182.783,73.105c5.666,5.659,8.787,13.189,8.787,21.205    c0,3.446-0.568,6.805-1.699,10.007c-1.469,4.196-3.854,7.965-7.099,11.208C434.411,139.954,428.938,142.827,422.946,143.895z     M472,411.94v-40c11.028,0,20,8.972,20,20S483.028,411.94,472,411.94z M492,357.321c-5.888-3.415-12.717-5.381-20-5.381v-82    c0-39.586-10.951-77.681-31.778-110.975c4.647-2.367,8.929-5.467,12.698-9.243c1.088-1.088,2.103-2.223,3.075-3.385    C479.592,183.222,492,225.639,492,269.94V357.321z" fill="#ffffff" data-original="#000000" style="" class=""></path>
	</g>
</g>
<g xmlns="http://www.w3.org/2000/svg">
	<g>
		<path d="M321.999,371.942h-18.192l-18.106-72.425c-1.098-4.392-5.009-7.498-9.534-7.573c-4.493-0.053-8.538,2.898-9.782,7.251    l-31.12,108.919l-9.778-29.334c-1.361-4.083-5.183-6.838-9.487-6.838h-26c-5.523,0-10,4.477-10,10s4.477,10,10,10h18.792v-0.002    l17.721,53.162c1.363,4.09,5.19,6.838,9.485,6.838c0.073,0,0.146-0.001,0.219-0.002c4.383-0.095,8.194-3.035,9.398-7.25    l29.74-104.092l10.943,43.771c1.112,4.452,5.112,7.575,9.701,7.575h26c5.522,0,10-4.477,10-10S327.521,371.942,321.999,371.942z" fill="#ffffff" data-original="#000000" style="" class=""></path>
	</g>
</g>
<g xmlns="http://www.w3.org/2000/svg">
	<g>
		<path d="M315.099,46.118c-19.305-4.56-43.901-6.178-59.099-6.178c-31.937,0-66.534,6.296-92.547,16.842    c-5.118,2.075-7.585,7.907-5.51,13.025c1.576,3.888,5.318,6.245,9.271,6.245c1.251,0,2.523-0.236,3.754-0.735    C194.362,65.832,226.945,59.94,256,59.94c15.238,0,38,1.745,54.501,5.642c5.373,1.27,10.762-2.058,12.031-7.433    C323.801,52.774,320.474,47.388,315.099,46.118z" fill="#ffffff" data-original="#000000" style="" class=""></path>
	</g>
</g>
<g xmlns="http://www.w3.org/2000/svg">
</g>
<g xmlns="http://www.w3.org/2000/svg">
</g>
<g xmlns="http://www.w3.org/2000/svg">
</g>
<g xmlns="http://www.w3.org/2000/svg">
</g>
<g xmlns="http://www.w3.org/2000/svg">
</g>
<g xmlns="http://www.w3.org/2000/svg">
</g>
<g xmlns="http://www.w3.org/2000/svg">
</g>
<g xmlns="http://www.w3.org/2000/svg">
</g>
<g xmlns="http://www.w3.org/2000/svg">
</g>
<g xmlns="http://www.w3.org/2000/svg">
</g>
<g xmlns="http://www.w3.org/2000/svg">
</g>
<g xmlns="http://www.w3.org/2000/svg">
</g>
<g xmlns="http://www.w3.org/2000/svg">
</g>
<g xmlns="http://www.w3.org/2000/svg">
</g>
<g xmlns="http://www.w3.org/2000/svg">
</g>
</g></svg>