<svg xmlns="http://www.w3.org/2000/svg" version="1.1" xmlns:xlink="http://www.w3.org/1999/xlink" xmlns:svgjs="http://svgjs.com/svgjs" width="512" height="512" x="0" y="0" viewBox="0 0 512 512.00104" style="enable-background:new 0 0 512 512" xml:space="preserve" class=""><g><path xmlns="http://www.w3.org/2000/svg" d="m262.261719 126.28125c-.066407-.257812-.128907-.515625-.128907-.644531 0-2.058594 3.027344-3.476563 5.277344-3.476563 1.417969 0 2.511719.449219 2.832032 1.675782l9.851562 34.890624 9.785156-34.890624c.320313-1.226563 1.417969-1.675782 2.832032-1.675782 2.253906 0 5.28125 1.480469 5.28125 3.476563 0 .195312-.066407.386719-.132813.644531l-12.359375 40.492188c-.578125 1.933593-2.960938 2.832031-5.40625 2.832031s-4.765625-.898438-5.40625-2.832031zm0 0" fill="#ffffff" data-original="#000000" style="" class=""></path><path xmlns="http://www.w3.org/2000/svg" d="m302.433594 124.738281c0-1.351562 1.09375-2.574219 2.703125-2.574219h12.746093c8.433594 0 15.257813 3.21875 15.257813 13.453126 0 7.402343-3.605469 11.394531-8.433594 12.875l8.433594 15.644531c.257813.320312.320313.773437.320313 1.03125 0 2.125-2.765626 4.375-5.214844 4.375-1.15625 0-2.25-.707031-2.894532-1.996094l-9.140624-17.769531h-5.410157v16.804687c0 1.738281-2.058593 2.640625-4.183593 2.640625-2.0625 0-4.1875-.902344-4.1875-2.640625v-41.84375zm8.367187 4.761719v13.710938h7.082031c4.183594 0 6.886719-1.738282 6.886719-6.824219 0-5.085938-2.703125-6.886719-6.886719-6.886719zm0 0" fill="#ffffff" data-original="#000000" style="" class=""></path><path xmlns="http://www.w3.org/2000/svg" d="m481.066406 484.472656-4.277344-25.03125c-.695312-4.082031-4.574218-6.828125-8.65625-6.128906-4.082031.699219-6.824218 4.574219-6.128906 8.65625l4.277344 25.027344c.429688 2.53125-.242188 5.003906-1.898438 6.964844-1.652343 1.960937-3.976562 3.039062-6.542968 3.039062h-52.570313l-9.390625-57.699219c-.664062-4.085937-4.507812-6.859375-8.605468-6.195312-4.089844.664062-6.863282 4.515625-6.199219 8.605469l9 55.289062h-298.742188l8.996094-55.289062c.667969-4.089844-2.109375-7.941407-6.195313-8.605469-4.082031-.664063-7.941406 2.105469-8.609374 6.195312l-9.386719 57.699219h-52.574219c-2.566406 0-4.890625-1.078125-6.542969-3.039062-1.652343-1.960938-2.328125-4.433594-1.894531-6.964844l10.246094-59.988282c3.503906-20.519531 17.121094-37.886718 35.71875-46.421874.980468-.207032 1.890625-.605469 2.6875-1.15625 2.046875-.824219 4.152344-1.546876 6.300781-2.152344l90.007813-19.125c23.925781 16.054687 51.746093 24.527344 80.617187 24.527344s56.6875-8.472657 80.617187-24.527344l90.003907 19.125c23.125 6.535156 40.660156 26.03125 44.707031 49.730468.699219 4.082032 4.574219 6.824219 8.65625 6.128907 4.082031-.695313 6.828125-4.574219 6.128906-8.65625-5.03125-29.464844-26.890625-53.691407-55.683594-61.714844-.148437-.042969-.300781-.078125-.457031-.109375l-93.386719-19.847656-9.042968-1.921875c-5.820313-1.167969-12.328125-9.140625-12.328125-18.054688v-25.980469c13.839843-12.414062 28.265625-26.988281 34.355469-35.9375 10.335937-15.171874 16.34375-32.917968 17.375-51.3125l.265624-4.761718h3.5c6.140626 0 11.382813-3.925782 13.347657-9.402344h7.703125c8.515625 0 15.445312-6.925781 15.445312-15.441406v-64.976563c0-8.515625-6.929687-15.445312-15.445312-15.445312h-7.703125c-1.851563-5.160157-6.613281-8.941407-12.296875-9.363281-2.746094-20.097657-11.445313-38.914063-24.878906-53.589844-33.042969-36.082032-81.609376-36.621094-84.339844-36.621094-.019532 0-.039063 0-.054688 0h-12.960937c-2.109375.0195312-51.117188.265625-84.40625 36.613281-13.4375 14.671875-22.132813 33.488281-24.882813 53.59375-5.699218.40625-10.480468 4.195313-12.335937 9.367188h-7.703125c-8.515625 0-15.445313 6.929687-15.445313 15.445312v24.988281h-11.683593c-14.199219 0-25.746094 11.546876-25.746094 25.746094v202.5625c-21.597656 10.996094-37.277344 31.789063-41.441406 56.164063l-10.246094 59.992187c-1.171875 6.859375.730468 13.84375 5.214844 19.160156 4.488281 5.316407 11.050781 8.367188 18.007812 8.367188h434.277344c6.957031 0 13.523437-3.050781 18.007812-8.367188 4.488282-5.316406 6.390625-12.300781 5.21875-19.160156zm-111.476562-369.898437h6.871094c.246093 0 .445312.199219.445312.445312v64.972657c0 .246093-.199219.445312-.445312.445312h-6.871094zm-68.160156 238.027343c-18.644532 9.902344-39.363282 15.078126-60.726563 15.078126-21.371094 0-42.097656-5.179688-60.746094-15.085938 10.382813-6.050781 16.53125-18.875 16.53125-29.761719v-13.222656c6.148438 4.902344 11.277344 8.484375 14.222657 9.742187 9.53125 4.0625 19.761718 6.097657 29.992187 6.097657s20.460937-2.03125 29.988281-6.097657c2.949219-1.257812 8.078125-4.84375 14.222656-9.742187v13.222656c0 10.894531 6.164063 23.734375 16.515626 29.769531zm-140.542969-305.855468c28.71875-31.359375 72.871093-31.746094 73.324219-31.746094h13.003906.003906c.652344 0 44.511719.308594 73.300781 31.75 10.917969 11.925781 18.144531 27.113281 20.773438 43.421875h-201.183594c2.632813-16.316406 9.859375-31.503906 20.777344-43.425781zm-34.109375 58.425781h4.917968.125 222.769532v84.667969h-83.445313c-4.003906 0-7.929687-1.09375-11.355469-3.164063-11.785156-7.117187-26.425781-7.117187-38.210937 0-3.425781 2.070313-7.351563 3.164063-11.355469 3.164063h-13.542968c-4.140626 0-7.5 3.359375-7.5 7.5s3.359374 7.5 7.5 7.5h13.542968c6.734375 0 13.34375-1.839844 19.109375-5.324219 7.003907-4.226563 15.703125-4.226563 22.703125 0 5.765625 3.484375 12.371094 5.324219 19.105469 5.324219h65.75l-.222656 3.917968c-.878907 15.675782-5.992188 30.789063-14.792969 43.710938-10.828125 15.902344-50.191406 50.152344-57.066406 53.082031-15.324219 6.535157-32.894532 6.535157-48.214844 0-2.257812-.960937-10.507812-6.976562-22.542969-17.605469-.0625-.058593-.128906-.117187-.195312-.171874-1.480469-1.308594-3.015625-2.6875-4.605469-4.132813-13.777344-12.53125-25.164062-24.476563-29.722656-31.171875-8.800782-12.921875-13.917969-28.039062-14.796875-43.71875l-.21875-3.910156h17.238281c4.144531 0 7.5-3.359375 7.5-7.5 0-4.144532-3.355469-7.5-7.5-7.5h-34.972656zm-22.316406 9.847656c0-.246093.199218-.445312.445312-.445312h6.871094v65.863281h-6.871094c-.246094 0-.445312-.199219-.445312-.445312zm-37.433594 50.734375c0-5.925781 4.820312-10.746094 10.746094-10.746094h11.6875v24.984376c0 8.515624 6.929687 15.445312 15.445312 15.445312h7.699219c1.964843 5.476562 7.207031 9.402344 13.351562 9.402344h3.53125l.269531 4.753906c1.03125 18.398438 7.039063 36.148438 17.375 51.320312 6.089844 8.949219 20.515626 23.523438 34.355469 35.9375v25.980469c0 8.914063-6.507812 16.886719-12.410156 18.074219l-8.960937 1.902344-93.089844 19.78125zm0 0" fill="#ffffff" data-original="#000000" style="" class=""></path></g></svg>