<svg id="Capa_1" enable-background="new 0 0 512 512" height="512" viewBox="0 0 512 512" width="512" xmlns="http://www.w3.org/2000/svg"><g><path d="m274.298 229.581c-11.7-6.405-21.501-13.249-29.154-20.36-3.036-2.82-7.78-2.645-10.6.389-2.82 3.035-2.646 7.78.389 10.6 8.954 8.319 20.372 16.223 33.938 23.491 3.397 1.82 7.454 1.82 10.853 0 52.132-27.93 58.39-56.597 57.479-71.199-.926-14.853-10.051-27.37-23.815-32.665-13.016-5.008-27.214-2.661-39.079 6.194-16.546-12.437-35.125-10.314-47.13-1.932-15.788 11.022-20.261 30.899-11.396 50.637 1.697 3.779 6.136 5.466 9.915 3.769s5.466-6.136 3.769-9.915c-7.007-15.601-1.34-26.859 6.299-32.193 11.408-7.965 24.939-3.296 33.289 4.863 2.915 2.848 7.569 2.848 10.484 0 8.448-8.256 19.088-11.032 28.462-7.425 8.221 3.163 13.674 10.673 14.23 19.599.548 8.761-3.082 31.617-47.933 56.147z"/><path d="m192.557 310.109c0 4.142 3.358 7.5 7.5 7.5h41.684c2.92 0 5.575-1.695 6.804-4.345l11.035-23.797 21.042 65.202c2.101 6.509 11.08 7.022 13.942.852l17.079-36.831h36.895c4.142 0 7.5-3.358 7.5-7.5s-3.358-7.5-7.5-7.5h-41.684c-2.92 0-5.575 1.695-6.804 4.345l-11.035 23.798-21.042-65.203c-2.091-6.478-11.076-7.031-13.942-.852l-17.079 36.831h-36.895c-4.142 0-7.5 3.358-7.5 7.5z"/><path d="m383.049 248.115c4.142 0 7.5-3.358 7.5-7.5v-74.021c0-19.701-8.903-37.354-22.886-49.175l-13.649-74.606c-4.54-24.808-26.138-42.813-51.357-42.813h-56.719c-25.219 0-46.817 18.005-51.355 42.813l-13.65 74.607c-12.182 10.297-20.493 25.023-22.435 41.674h-7.938c-16.051 0-29.109 13.059-29.109 29.109v34.293c0 8.566 3.721 16.278 9.629 21.609-5.908 5.332-9.629 13.043-9.629 21.609v34.293c0 16.051 13.059 29.109 29.109 29.109h7.486v16.29c0 19.701 8.903 37.354 22.886 49.174l13.65 74.606c4.539 24.809 26.137 42.814 51.356 42.814h56.719c25.219 0 46.817-18.005 51.356-42.813l13.649-74.606c13.984-11.82 22.886-29.473 22.886-49.174v-74.792c0-4.142-3.358-7.5-7.5-7.5s-7.5 3.358-7.5 7.5v74.792c0 27.24-22.165 49.389-49.389 49.389h-103.723c-27.173 0-49.389-22.1-49.389-49.389 0-37.854 0-141.265 0-178.813 0-27.301 22.227-49.389 49.389-49.389h103.723c27.012 0 49.389 21.944 49.389 49.389v74.021c.001 4.142 3.358 7.5 7.501 7.5zm-56.89 161.681c8.257 0 16.571-1.567 24.339-4.75l-11.241 61.442c-3.234 17.68-18.627 30.512-36.6 30.512h-56.719c-17.974 0-33.366-12.832-36.601-30.512l-11.241-61.442c7.854 3.217 16.184 4.75 24.34 4.75zm-189.708-187.3v-34.293c0-7.78 6.33-14.109 14.109-14.109h7.486v62.512h-7.486c-7.779-.001-14.109-6.33-14.109-14.11zm14.11 91.621c-7.78 0-14.109-6.33-14.109-14.109v-34.293c0-7.78 6.33-14.109 14.109-14.109h7.486v62.512h-7.486zm71.875-211.912c-8.106 0-16.439 1.514-24.34 4.75l11.241-61.442c3.235-17.681 18.628-30.513 36.601-30.513h56.719c17.973 0 33.366 12.832 36.601 30.512l11.241 61.442c-7.392-3.028-15.676-4.75-24.339-4.75h-103.724z"/></g></svg>