<?xml version="1.0" encoding="iso-8859-1"?>
<!-- Generator: Adobe Illustrator 19.0.0, SVG Export Plug-In . SVG Version: 6.00 Build 0)  -->
<svg version="1.1" id="Capa_1" xmlns="http://www.w3.org/2000/svg" xmlns:xlink="http://www.w3.org/1999/xlink" x="0px" y="0px"
	 viewBox="0 0 512 512" style="enable-background:new 0 0 512 512;" xml:space="preserve">
<g>
	<g>
		<path d="M136,210c-24.814,0-45,20.186-45,45v122c0,24.814,20.186,45,45,45c24.814,0,45-20.186,45-45V255
			C181,230.186,160.814,210,136,210z"/>
	</g>
</g>
<g>
	<g>
		<path d="M61,255c0-4.327,0.571-8.507,1.278-12.634C44.2,248.209,31,265.001,31,285v62c0,19.999,13.2,36.791,31.278,42.634
			C61.571,385.507,61,381.327,61,377V255z"/>
	</g>
</g>
<g>
	<g>
		<path d="M376,210c-24.814,0-45,20.186-45,45v122c0,24.814,20.186,45,45,45c4.51,0,8.782-0.868,12.892-2.108
			C383.308,438.401,366.305,452,346,452h-47.763c-6.213-17.422-22.707-30-42.237-30c-24.814,0-45,20.186-45,45
			c0,24.814,20.186,45,45,45c19.53,0,36.024-12.578,42.237-30H346c41.353,0,75-33.647,75-75v-30V255
			C421,230.186,400.814,210,376,210z"/>
	</g>
</g>
<g>
	<g>
		<path d="M449.722,242.366C450.429,246.493,451,250.673,451,255v122c0,4.327-0.571,8.507-1.278,12.634
			C467.8,383.791,481,366.999,481,347v-62C481,265.001,467.8,248.209,449.722,242.366z"/>
	</g>
</g>
<g>
	<g>
		<path d="M256,0C131.928,0,31,100.928,31,225v0.383c8.937-6.766,19.277-11.717,30.687-13.934C68.698,110.251,153.054,30,256,30
			s187.302,80.251,194.313,181.448c11.409,2.217,21.749,7.169,30.687,13.934V225C481,100.928,380.072,0,256,0z"/>
	</g>
</g>
<g>
</g>
<g>
</g>
<g>
</g>
<g>
</g>
<g>
</g>
<g>
</g>
<g>
</g>
<g>
</g>
<g>
</g>
<g>
</g>
<g>
</g>
<g>
</g>
<g>
</g>
<g>
</g>
<g>
</g>
</svg>
