<?xml version="1.0" encoding="iso-8859-1"?>
<!-- Generator: Adobe Illustrator 18.0.0, SVG Export Plug-In . SVG Version: 6.00 Build 0)  -->
<!DOCTYPE svg PUBLIC "-//W3C//DTD SVG 1.1//EN" "http://www.w3.org/Graphics/SVG/1.1/DTD/svg11.dtd">
<svg version="1.1" id="Capa_1" xmlns="http://www.w3.org/2000/svg" xmlns:xlink="http://www.w3.org/1999/xlink" x="0px" y="0px"
	 viewBox="0 0 59 59" style="enable-background:new 0 0 59 59;" xml:space="preserve">
<g>
	<path d="M26.753,39.933c-1.729-0.115-3.444-0.348-5.111-0.673c0.005-0.087,0.024-0.171,0.024-0.259c0-1.123-0.51-2.274-1.364-3.08
		c-0.807-0.76-1.826-1.162-2.861-1.085c-1.03,0.047-2.532-0.644-2.792-1.297c-0.903-2.267-2.949-3.397-5.09-2.806
		c-0.849,0.233-1.646,0.8-2.223,1.544c-1.041-1.01-1.978-2.11-2.777-3.291c-0.31-0.457-0.93-0.577-1.389-0.268
		c-0.458,0.31-0.577,0.932-0.268,1.389C3.921,31.61,5.132,33,6.499,34.242c-0.081,0.589-0.032,1.175,0.184,1.72
		c0.826,2.073,2.274,3.902,4.108,5.2v3.005c0,1.952,1.589,3.541,3.542,3.541c1.953,0,3.542-1.589,3.542-3.541v-1.03
		c1.361-0.17,2.498-0.906,3.162-1.953c1.818,0.366,3.695,0.619,5.583,0.745c0.023,0.001,0.045,0.002,0.068,0.002
		c0.522,0,0.961-0.405,0.997-0.934C27.721,40.446,27.304,39.97,26.753,39.933z M17.443,41.169c-0.188,0.01-0.372,0.011-0.559,0.007
		c-0.255,0.01-0.524,0.102-0.713,0.29c-0.19,0.188-0.296,0.443-0.296,0.71v1.991c0,0.85-0.691,1.541-1.542,1.541
		s-1.542-0.691-1.542-1.541V40.63c0-0.342-0.174-0.659-0.462-0.843c-1.702-1.086-3.047-2.707-3.787-4.565
		c-0.198-0.498-0.047-0.989,0.114-1.314c0.299-0.6,0.861-1.089,1.434-1.247c0.207-0.057,0.403-0.083,0.589-0.083
		c1.045,0,1.765,0.828,2.112,1.7c0.682,1.716,3.242,2.646,4.767,2.554c0.481-0.033,0.971,0.165,1.373,0.544
		c0.461,0.435,0.736,1.042,0.736,1.625C19.667,40.338,18.548,41.104,17.443,41.169z"/>
	<path d="M35.82,39.159c-0.543,0.1-0.903,0.62-0.804,1.163c0.088,0.482,0.509,0.82,0.983,0.82c0.06,0,0.12-0.005,0.181-0.017
		c5.304-0.971,12.794-3.398,18.355-9.449c0.374-0.407,0.347-1.039-0.06-1.413c-0.406-0.373-1.038-0.349-1.413,0.06
		C47.877,35.967,40.824,38.243,35.82,39.159z"/>
	<path d="M31.43,30.937c0.182-0.015,0.364-0.031,0.544-0.051c0.182-0.02,0.361-0.043,0.539-0.069c0.106-0.015,0.21-0.033,0.315-0.05
		C37.58,29.99,41,27.299,41,24c0-3.925-4.832-7-11-7s-11,3.075-11,7c0,3.299,3.42,5.99,8.172,6.767
		c0.105,0.017,0.209,0.035,0.315,0.05c0.178,0.026,0.358,0.048,0.539,0.069c0.18,0.02,0.361,0.036,0.544,0.051
		c0.137,0.011,0.273,0.023,0.412,0.031C29.318,30.988,29.657,31,30,31s0.682-0.012,1.018-0.032
		C31.157,30.96,31.293,30.948,31.43,30.937z M37.324,26.857c-0.166,0.131-0.345,0.255-0.531,0.376
		c-0.112,0.073-0.228,0.143-0.347,0.212c-0.12,0.07-0.247,0.135-0.374,0.201c-0.244,0.125-0.499,0.243-0.765,0.354
		c-0.12,0.05-0.238,0.102-0.363,0.148c-0.165,0.062-0.337,0.118-0.509,0.174c-0.145,0.047-0.292,0.091-0.441,0.133
		c-0.159,0.045-0.318,0.091-0.483,0.131c-0.298,0.072-0.602,0.137-0.914,0.19c-0.116,0.02-0.236,0.034-0.353,0.052
		c-0.254,0.037-0.512,0.07-0.773,0.095c-0.115,0.011-0.231,0.022-0.348,0.03C30.753,28.981,30.38,29,30,29s-0.753-0.019-1.123-0.046
		c-0.117-0.008-0.232-0.019-0.348-0.03c-0.261-0.025-0.518-0.057-0.773-0.095c-0.118-0.017-0.237-0.032-0.353-0.052
		c-0.312-0.054-0.616-0.118-0.914-0.19c-0.164-0.04-0.323-0.086-0.482-0.131c-0.149-0.042-0.297-0.086-0.441-0.133
		c-0.172-0.056-0.344-0.112-0.509-0.174c-0.125-0.046-0.243-0.098-0.363-0.148c-0.266-0.111-0.522-0.229-0.765-0.354
		c-0.127-0.066-0.253-0.131-0.374-0.201c-0.119-0.069-0.235-0.139-0.347-0.212c-0.187-0.121-0.366-0.246-0.532-0.377
		c-0.035-0.027-0.075-0.053-0.109-0.08c-0.217-0.179-0.413-0.367-0.589-0.561c-0.011-0.012-0.021-0.024-0.032-0.036
		C24.362,25.274,27.122,24.8,30,24.8s5.638,0.474,8.056,1.378c-0.011,0.012-0.021,0.024-0.032,0.036
		c-0.177,0.195-0.372,0.383-0.589,0.561C37.4,26.804,37.36,26.83,37.324,26.857z M30,19c4.878,0,9,2.29,9,5
		c0,0.13-0.018,0.259-0.036,0.387C36.271,23.348,33.198,22.8,30,22.8s-6.271,0.548-8.964,1.587C21.018,24.259,21,24.13,21,24
		C21,21.29,25.122,19,30,19z"/>
	<path d="M29.5,4C13.233,4,0,13.421,0,25v9c0,11.579,13.233,21,29.5,21S59,45.579,59,33.996V25C59,13.421,45.767,4,29.5,4z M57,34
		c0,10.477-12.336,19-27.5,19S2,44.477,2,33.996V25C2,14.523,14.336,6,29.5,6S57,14.523,57,25V34z"/>
	<path d="M16.874,38.078c-2.094,0.329-3.252-1.063-3.307-1.132c-0.34-0.431-0.963-0.507-1.398-0.172
		c-0.437,0.339-0.517,0.967-0.178,1.403c0.068,0.088,1.546,1.953,4.234,1.953c0.306,0,0.627-0.024,0.963-0.078
		c0.545-0.087,0.917-0.599,0.831-1.145C17.932,38.363,17.425,37.983,16.874,38.078z"/>
</g>
<g>
</g>
<g>
</g>
<g>
</g>
<g>
</g>
<g>
</g>
<g>
</g>
<g>
</g>
<g>
</g>
<g>
</g>
<g>
</g>
<g>
</g>
<g>
</g>
<g>
</g>
<g>
</g>
<g>
</g>
</svg>
