<?xml version="1.0" encoding="iso-8859-1"?>
<!-- Generator: Adobe Illustrator 19.0.0, SVG Export Plug-In . SVG Version: 6.00 Build 0)  -->
<svg version="1.1" id="Layer_1" xmlns="http://www.w3.org/2000/svg" xmlns:xlink="http://www.w3.org/1999/xlink" x="0px" y="0px"
	 viewBox="0 0 511.985 511.985" style="enable-background:new 0 0 511.985 511.985;" xml:space="preserve">
<path style="fill:#F4BE8E;" d="M511.985,213.326c0-94.263-90.716-170.667-202.65-170.667c-55.748,0-106.247,18.968-142.886,49.639
	l0,0l-0.016,0.031c-8.406,7.031-16.093,14.688-22.937,22.875l-84.81,84.685l48.686,27.749
	c5.656,57.318,44.952,106.599,101.216,133.785v107.904l154.073-29.844l102.623-102.402h-0.016
	C495.516,306.956,511.985,255.637,511.985,213.326z"/>
<path style="fill:#EAAD7A;" d="M464.331,338.018c5.594-19.812,8.53-40.125,8.53-59.5c0-26.553-6.187-52.318-18.343-76.536
	c-11.688-23.265-28.375-44.124-49.592-61.982c-43.281-36.452-100.701-56.514-161.699-56.514c-27.265,0-59.202,8.39-85.138,16.249
	c-6.968,6.156-8.75,8.5-14.593,15.469l-18.968,18.952c35.843-19.015,77.248-29.343,118.7-29.343
	c114.856,0,208.291,77.935,208.291,173.705c0,34.156-10.219,70.779-26.719,98.967L464.331,338.018z"/>
<path style="fill:#FFD2A6;" d="M202.666,149.328C90.748,149.328,0,225.732,0,319.987c0,28.029,8.046,54.498,22.281,77.842
	c-13.124,5.781-22.28,18.904-22.28,34.154c0,20.625,16.718,37.344,37.343,37.344h67.154c0,0,9.094,0,23.5,0
	c43.358,0,134.965,0,172.838,0c66.467,0,104.498-85.092,104.498-149.34C405.333,225.732,314.585,149.328,202.666,149.328z"/>
<path style="fill:#ED5564;" d="M305.147,235.732c-28.623-21.015-65.966-33.077-102.481-33.077
	c-35.749,0-73.216,13.515-102.793,37.046c-13.843,11.031-25.39,23.906-33.39,37.224c-8.578,14.312-13.109,29.25-13.109,43.188
	c0,12.406,3.593,22.248,10.687,29.311c13.5,13.438,36.14,13.344,57.998,13.219c1.984,0,3.969,0,5.938,0c19.812,0,51.952,0,76.123,0
	h30.546c20.89,0,40.625-1,52.545-13.312c6.844-7.062,10.124-17.061,9.718-29.686c-0.812-25.156-21.154-46.529-54.435-57.193
	c-20.937-6.704-44.186-8.125-65.436-3.984c-24.031,4.672-43.655,16.055-56.874,32.865c-3.937,4.188-3.89,10.781,0.203,14.875
	c4.172,4.156,10.922,4.156,15.078,0c0.359-0.375,0.671-0.75,0.968-1.125l0.047,0.031c16.546-21.656,56.014-36.271,99.513-22.344
	c28.625,9.188,39.218,25.406,39.609,37.562c0.328,10-2.703,13.125-3.703,14.156c-6.125,6.311-22.422,6.842-37.234,6.842h-30.546
	c-24.171-0.031-56.311-0.031-76.123-0.031c-2,0-4.031,0-6.031,0.031c-17.531,0.094-35.624,0.156-42.874-7.029
	c-2.953-2.938-4.406-7.594-4.406-14.188c0-20.719,14.39-44.529,38.468-63.709c25.874-20.608,58.498-32.421,89.513-32.421
	c32.077,0,64.827,10.547,89.857,28.937c24.249,17.813,38.155,40.788,38.155,63.069c0,22.75-6.391,43.498-18.016,58.467
	c-9.984,12.844-22.858,20.188-35.326,20.188H20.391c0.609,1.062,1.234,2.125,1.891,3.188c-8.188,3.625-14.843,10.094-18.687,18.154
	h273.742c19.092,0,38.107-10.373,52.17-28.436c14.515-18.688,22.515-44.094,22.515-71.561
	C352.021,286.831,334.944,257.591,305.147,235.732z"/>
<g>
</g>
<g>
</g>
<g>
</g>
<g>
</g>
<g>
</g>
<g>
</g>
<g>
</g>
<g>
</g>
<g>
</g>
<g>
</g>
<g>
</g>
<g>
</g>
<g>
</g>
<g>
</g>
<g>
</g>
</svg>
