<svg viewBox="0 0 512 512.00011" xmlns="http://www.w3.org/2000/svg"><path d="m232.484375 390.324219c-3.902344 3.898437-3.902344 10.230469 0 14.136719 3.910156 3.902343 10.238281 3.902343 14.136719 0 3.910156-3.90625 3.910156-10.238282 0-14.136719-3.898438-3.910157-10.226563-3.910157-14.136719 0zm0 0"/><path d="m488.917969 372.957031-75.921875-64.558593c-.351563-.296876-.722656-.570313-1.109375-.816407-19.917969-12.679687-45.492188-9.871093-62.191407 6.824219l-41.394531 41.390625c-2.867187 2.871094-7.144531 3.71875-10.894531 2.171875-46.742188-19.335938-85.140625-48.445312-114.128906-86.511719-22.105469-29.027343-30.074219-52.09375-31.125-55.34375-.125-.695312-.324219-1.386719-.605469-2.0625-1.550781-3.75-.703125-8.019531 2.171875-10.886719l41.390625-41.402343c16.699219-16.699219 19.503906-42.273438 6.824219-62.191407-.101563-.160156-.207032-.316406-.316406-.472656l-54.828126-76.191406c-17.25-26.761719-54.824218-30.804688-77.375-8.257812l-8.289062 8.289062c-.003906.007812-.011719.015625-.019531.019531l-29.59375 29.59375c-35.289063 35.292969-41.0625 88.324219-16.691407 153.371094 20.875 55.71875 62.664063 116.699219 117.667969 171.703125 56.304688 56.304688 118.933594 98.867188 176.347657 119.847656 56.828124 20.761719 117.277343 23.320313 160.0625-19.46875l27.910156-27.90625c22.449218-22.453125 18.53125-59.78125-7.890625-77.140625zm-88.3125-48.847656 75.855469 64.503906c.347656.296875.71875.570313 1.105468.816407 16.203125 10.316406 18.65625 32.972656 5.097656 46.527343l-2.070312 2.074219-129.378906-96.867188 12.621094-12.617187c9.863281-9.867187 24.894531-11.652344 36.769531-4.4375zm-270.523438-290.214844c.101563.160157.207031.320313.316407.472657l54.804687 76.164062c7.445313 11.917969 5.722656 27.132812-4.234375 37.089844l-12.230469 12.234375-87.53125-128.71875 2.347657-2.347657c13.613281-13.613281 36.25-11.039062 46.527343 5.105469zm185.613281 444.792969c-54.734374-20-114.777343-60.914062-169.066406-115.203125-53.03125-53.027344-93.191406-111.476563-113.085937-164.578125-14.933594-39.859375-24.953125-95.152344 12.109375-132.210938l21.160156-21.164062 87.53125 128.71875-14.761719 14.769531c-8.398437 8.382813-11.039062 20.789063-6.847656 31.835938 3.15625 12.953125 17.679687 39.839843 32.332031 59.652343 21.5625 29.15625 60.699219 69.464844 124.695313 95.941407 11.246093 4.652343 24.070312 2.097656 32.679687-6.507813l14.488282-14.492187 129.378906 96.867187-11.550782 11.546875c-39.730468 39.734375-97.550781 29.992188-139.0625 14.824219zm0 0"/><path d="m213.71875 366.449219c-10.5625-9.261719-28.832031-25.191407-38.453125-35.089844-23.59375-24.246094-48.347656-53.636719-63.066406-74.871094-3.144531-4.539062-9.375-5.671875-13.914063-2.523437-4.539062 3.144531-5.667968 9.375-2.523437 13.914062 18.5625 26.78125 45.835937 57.554688 65.167969 77.421875 10.15625 10.453125 28.582031 26.523438 39.601562 36.183594 4.144531 3.632813 10.460938 3.234375 14.113281-.925781 3.640625-4.148438 3.226563-10.46875-.925781-14.109375zm0 0"/></svg>