<svg xmlns="http://www.w3.org/2000/svg" version="1.1" xmlns:xlink="http://www.w3.org/1999/xlink" xmlns:svgjs="http://svgjs.com/svgjs" width="512" height="512" x="0" y="0" viewBox="0 0 512 512" style="enable-background:new 0 0 512 512" xml:space="preserve" class=""><g><g xmlns="http://www.w3.org/2000/svg"><g><g><path d="m358.98 188.34v58.773h-29.505c-6.79 0-11.038-7.362-7.616-13.226 2.769-4.744 4.356-10.264 4.356-16.156l-2.22-29.391z" fill="#5b5555" data-original="#5b5555"></path></g><path d="m489.683 378.008h-42.452l-20.267-75.638c-1.857-6.921-6.962-12.503-13.701-14.979l-37.966-13.914-2.933-10.95c-.518-1.918-1.654-3.552-3.146-4.709-1.502-1.147-3.38-1.817-5.369-1.817-5.125 0-9.276-4.151-9.276-9.276v-40.686c0-2.436-1.969-4.405-4.405-4.405h-25.118c-2.426 0-4.405-1.979-4.405-4.404v-31.725h136.347v80.641c0 6.536.853 13.051 2.547 19.374z" fill="#fcb44d" data-original="#fcb44d"></path><path d="m456.389 378.003-22.203-82.854c-1.855-6.924-6.964-12.512-13.695-14.979l-48.126-17.641 30.938 115.474z" fill="#5b5555" data-original="#5b5555"></path><path d="m456.385 378.008h-24.975l-25.473-95.854c-.923-3.461-2.669-6.586-5.013-9.154l19.567 7.175c6.729 2.466 11.843 8.048 13.701 14.979z" fill="#433f43" data-original="#433f43"></path><path d="m459.355 378.003h30.323l-30.134-112.479c-1.692-6.326-2.555-12.837-2.555-19.383v-80.641h-30.255v80.641c0 6.546.855 13.057 2.555 19.383z" fill="#fca62f" data-original="#fca62f"></path><path d="m456.989 165.502v36.131h-131.934c-2.432 0-4.405-1.973-4.405-4.405v-31.726z" fill="#fca62f" data-original="#fca62f"></path><g><path d="m219.562 58.035v90.904c-33.083 0-59.901-20.352-59.901-45.452s26.818-45.452 59.901-45.452z" fill="#b9acac" data-original="#b9acac"></path><path d="m194.601 62.187v82.6c7.601 2.652 16.045 4.152 24.96 4.152v-90.904c-8.914 0-17.358 1.5-24.96 4.152z" fill="#9e9797" data-original="#9e9797"></path><g><path d="m134.687 111.099h-127.076c-4.204 0-7.611-3.407-7.611-7.612s3.408-7.611 7.611-7.611h127.076c4.204 0 7.611 3.407 7.611 7.611s-3.407 7.612-7.611 7.612z" fill="#5b5555" data-original="#5b5555"></path></g><path d="m164.76 121.541h-25.455c-4.866 0-8.81-3.944-8.81-8.81v-18.487c0-4.866 3.945-8.81 8.81-8.81h25.455z" fill="#9e9797" data-original="#9e9797"></path><path d="m256.774 169.909h68.281v-132.844h-68.281c-.725 0-1.448.078-2.156.232l-29.054 6.316c-6.075 1.321-10.408 6.697-10.408 12.914v93.921c0 6.217 4.333 11.593 10.408 12.914l29.054 6.316c.709.154 1.431.231 2.156.231z" fill="#756f6f" data-original="#756f6f"></path><path d="m299.058 37.065h25.997v132.844h-25.997z" fill="#5b5555" data-original="#5b5555"></path><path d="m476.686 169.909c19.504 0 35.314-29.738 35.314-66.422s-15.811-66.422-35.314-66.422h-156.036v132.844z" fill="#fcb44d" data-original="#fcb44d"></path><path d="m511.996 103.487c0 36.686-15.806 66.421-35.312 66.421h-31.682c19.506 0 37.955-29.735 37.955-66.421s-18.449-66.421-37.955-66.421h31.682c19.506.001 35.312 29.735 35.312 66.421z" fill="#fca62f" data-original="#fca62f"></path><g><g><g id="XMLID_196_"><path d="m486.248 97.501c-.003 0-.007 0-.01 0l-18.122-.025c-4.204-.006-7.607-3.418-7.601-7.622.006-4.199 3.412-7.601 7.612-7.601h.01l18.122.025c4.204.006 7.607 3.418 7.601 7.622-.006 4.2-3.413 7.601-7.612 7.601z" fill="#f2982c" data-original="#f2982c"></path></g><g id="XMLID_194_"><path d="m477.448 70.288c-.008 0-.016 0-.024 0l-9.312-.029c-4.204-.013-7.601-3.431-7.588-7.635.013-4.195 3.419-7.588 7.611-7.588h.024l9.312.029c4.204.013 7.601 3.431 7.588 7.635-.012 4.196-3.418 7.588-7.611 7.588z" fill="#f2982c" data-original="#f2982c"></path></g><g id="XMLID_199_"><path d="m486.238 124.717c-.003 0-.006 0-.01 0l-18.122-.024c-4.204-.006-7.607-3.418-7.602-7.621.005-4.2 3.412-7.602 7.612-7.602h.01l18.122.024c4.204.006 7.607 3.418 7.602 7.621-.006 4.201-3.412 7.602-7.612 7.602z" fill="#f2982c" data-original="#f2982c"></path></g></g><g id="XMLID_201_"><path d="m477.419 151.937c-.008 0-.015 0-.023 0l-9.312-.028c-4.204-.013-7.601-3.43-7.589-7.634.012-4.195 3.418-7.589 7.611-7.589h.023l9.312.028c4.204.013 7.601 3.43 7.589 7.634-.013 4.196-3.418 7.589-7.611 7.589z" fill="#f2982c" data-original="#f2982c"></path></g></g><g><g><path d="m403.531 37.064v42.655c0 4.212-3.4 7.611-7.612 7.611-4.202 0-7.611-3.4-7.611-7.611v-42.655z" fill="#f2982c" data-original="#f2982c"></path></g><g><path d="m403.531 127.255v42.655h-15.223v-42.655c0-4.202 3.41-7.611 7.611-7.611 4.212-.001 7.612 3.409 7.612 7.611z" fill="#f2982c" data-original="#f2982c"></path></g></g><path d="m413.514 130.799h-52.341c-5.605 0-10.149-4.544-10.149-10.149v-34.326c0-5.605 4.544-10.149 10.149-10.149h52.341c15.084 0 27.312 12.228 27.312 27.312 0 15.084-12.228 27.312-27.312 27.312z" fill="#fee7c9" data-original="#fee7c9"></path><g><path d="m413.581 111.099h-40.028c-4.204 0-7.611-3.407-7.611-7.612s3.408-7.611 7.611-7.611h40.028c4.204 0 7.611 3.407 7.611 7.611s-3.408 7.612-7.611 7.612z" fill="#f2982c" data-original="#f2982c"></path></g><path d="m263.297 97.499v11.986h18.379c4.273 0 7.727 3.516 7.609 7.826-.115 4.173-3.75 7.397-7.924 7.397h-18.064v11.986h18.122c3.87 0 7.319 2.78 7.805 6.619.588 4.644-3.02 8.604-7.548 8.604h-18.379v17.994h-6.521c-.725 0-1.447-.078-2.155-.231l-6.546-1.423v-129.539l6.546-1.423c.708-.154 1.431-.231 2.155-.231h6.521v17.994h18.064c4.174 0 7.809 3.224 7.924 7.396.119 4.31-3.336 7.827-7.609 7.827h-18.379v11.996h18.379c4.273 0 7.727 3.516 7.609 7.826-.114 4.173-3.749 7.397-7.924 7.397h-18.064z" fill="#5b5555" data-original="#5b5555"></path></g><path d="m512 393.728v59.075h-127.965v-38.676h-63.622v-20.399c0-12.168 9.864-22.033 22.033-22.033h147.531c12.159.001 22.023 9.865 22.023 22.033z" fill="#fcb44d" data-original="#fcb44d"></path><path d="m512 393.718v59.085h-29.035v-59.085c0-12.158-9.865-22.023-22.033-22.023h29.045c12.169.001 22.023 9.865 22.023 22.023z" fill="#fca62f" data-original="#fca62f"></path><path d="m512 442.655v10.255c0 12.167-9.859 22.026-22.026 22.026h-147.528c-12.167 0-22.026-9.859-22.026-22.026v-48.932h73.76v38.677z" fill="#756f6f" data-original="#756f6f"></path><path d="m512 442.655v10.255c0 12.167-9.859 22.026-22.026 22.026h-29.039c12.167 0 22.026-9.859 22.026-22.026v-10.255z" fill="#5b5555" data-original="#5b5555"></path><circle cx="394.183" cy="423.317" fill="#9e9797" r="19.335" data-original="#9e9797"></circle><g id="XMLID_195_"><path d="m392.421 213.649h-9.312c-4.204 0-7.612-3.407-7.612-7.611s3.408-7.611 7.612-7.611h9.312c4.204 0 7.612 3.407 7.612 7.611s-3.408 7.611-7.612 7.611z" fill="#f2982c" data-original="#f2982c"></path></g></g><g><g id="XMLID_221_"><path d="m480.745 404.979c-1.965 0-3.929-.756-5.418-2.265l-.074-.075c-2.952-2.993-2.921-7.812.071-10.764 2.992-2.955 7.811-2.92 10.764.07l.074.075c2.952 2.993 2.921 7.812-.071 10.764-1.482 1.465-3.415 2.195-5.346 2.195z" fill="#5b5555" data-original="#5b5555"></path></g></g></g></g></svg>