<svg xmlns="http://www.w3.org/2000/svg" version="1.1" xmlns:xlink="http://www.w3.org/1999/xlink" xmlns:svgjs="http://svgjs.com/svgjs" width="512" height="512" x="0" y="0" viewBox="0 0 512 512" style="enable-background:new 0 0 512 512" xml:space="preserve" class=""><g>
<path xmlns="http://www.w3.org/2000/svg" style="" d="M232.126,161.234l-50.844-38.15c-4.683-3.514-11.138-3.452-15.753,0.15l0,0  c-12.485,9.746-18.271,25.8-14.878,41.278l3.545,16.171" fill="#333f61" data-original="#333f61"></path>
<path xmlns="http://www.w3.org/2000/svg" style="" d="M512,319.25v-0.536c0-25.139-17.547-46.861-42.107-52.125l-56.721-12.158  c-67.528-14.475-130.006-46.636-181.047-93.196l0,0c-12.234-2.498-30.233-4.086-47.618,4.07  c-23.886,11.207-22.263,29.385-46.735,44.333c-19.239,11.752-53.661,20.931-74.637,6.982c-9.603-6.386-16.845-17.924-38.016-27.577  c-4.123-1.88-7.61-3.158-9.853-3.927l-1.31,0.591l-8.108,29.825C1.967,229.81,0,244.542,0,259.34v59.91l6.722,36.13h495.983  L512,319.25z" fill="#f56c6c" data-original="#f56c6c"></path>
<g xmlns="http://www.w3.org/2000/svg">
	<path style="" d="M458.99,274.426c0,16.846-12.069,31.266-28.639,34.22l-30.853,5.499   c-16.57,2.953-28.639,17.374-28.639,34.22l0,0v3.699l132.01,2.677L512,319.25v-0.536c0-25.139-17.547-46.861-42.107-52.125   l-10.462-2.243l-0.442,0.067L458.99,274.426L458.99,274.426z" fill="#db4d4d" data-original="#db4d4d"></path>
	<path style="" d="M194.15,319.25l-0.014-0.138c-4.584-46.663-28.349-89.317-65.602-117.746l-1.968-1.502l-0.027-0.011   c-27.817,11.502-60.976,6.615-84.452-15.233l-6.877-7.979c-6.085-7.06-17.579-4.45-20.025,4.547l-9.337,34.344   C1.967,229.81,0,244.542,0,259.34v59.91v12.314L194.15,319.25z" fill="#db4d4d" data-original="#db4d4d"></path>
</g>
<path xmlns="http://www.w3.org/2000/svg" style="" d="M73.395,319.25v-59.91c0-14.798,1.967-29.53,5.848-43.808l2.958-10.881  c-14.528-2.578-28.505-9.227-40.114-20.031l-6.877-7.979c-6.085-7.06-17.579-4.45-20.025,4.547l-9.337,34.344  C1.967,229.81,0,244.542,0,259.34v59.91v12.314l73.395-4.655V319.25z" fill="#bc4444" data-original="#bc4444"></path>
<path xmlns="http://www.w3.org/2000/svg" style="" d="M439.662,391.51H44.782C20.05,391.51,0,371.442,0,346.687V319.25h194.15  c9.892,0,17.91,8.026,17.91,17.926l0,0c0,10.008,8.187,14.516,18.185,14.362h231.789c13.703-0.211,25.96-8.578,31.157-21.27l0,0  c1.505-3.675,4.561-6.494,8.344-7.695L512,319.25l-1.393,24.656C498.791,372.705,470.767,391.51,439.662,391.51z" fill="#e6e9ed" data-original="#e6e9ed"></path>
<path xmlns="http://www.w3.org/2000/svg" style="" d="M74.212,346.687V319.25H0v27.438c0,24.755,20.05,44.822,44.782,44.822h74.212  C94.262,391.51,74.212,371.442,74.212,346.687z" fill="#cfd2dc" data-original="#cfd2dc"></path>
<path xmlns="http://www.w3.org/2000/svg" style="" d="M118.939,349.62H0.106c1.511,23.386,20.929,41.89,44.676,41.89h116.009l0,0  C160.791,368.375,142.053,349.62,118.939,349.62z" fill="#333f61" data-original="#333f61"></path>
<path xmlns="http://www.w3.org/2000/svg" style="" d="M74.371,349.62H0.159c1.511,23.386,20.929,41.89,44.677,41.89h74.212  C95.3,391.51,75.882,373.006,74.371,349.62z" fill="#253551" data-original="#253551"></path>
<g xmlns="http://www.w3.org/2000/svg">
	<path style="" d="M289.488,249.782c8.443,4.056,15.759,7.367,22.093,10.067c21.289,9.076,46.014,1.957,59.278-17.02   l0,0l0.001-0.003c-51.256-17.202-98.542-44.929-138.734-81.592l0,0c-16.991-17.006-44.317-16.545-60.725,1.026l-2.921,3.128   C194.509,186.763,250.512,231.057,289.488,249.782z" fill="#af3838" data-original="#af3838"></path>
	<path style="" d="M35.21,199.492c2.856,2.451,5.713,4.902,8.569,7.354c6.176,4.454,26.504,17.933,55.629,17.105   c29.298-0.833,48.907-15.614,54.787-20.415l15.837-16.96c16.528-17.7,44.203-18.81,62.093-2.49l0,0   c20.359,18.571,43.391,24.966,68.009,26.867c-24.294-14.01-47.111-30.655-68.009-49.718l0,0   c-17.89-16.319-45.565-15.21-62.093,2.49l-15.837,16.96c-29.897,32.017-80.043,33.777-112.108,3.936l-6.877-7.979   c-6.085-7.06-17.579-4.45-20.025,4.547l-1.228,4.518C22.933,189.943,32.223,196.026,35.21,199.492z" fill="#af3838" data-original="#af3838"></path>
</g>
<g xmlns="http://www.w3.org/2000/svg">
	<path style="" d="M250.985,170.195c-0.393-4.186-4.072-7.199-8.187-7.106c-1.081,0.024-2.164,0.103-3.244,0.155   c-5.469,0.261-10.938,0.522-16.408,0.783c-2.266,0.108-4.532,0.216-6.797,0.324c-1.684,0.08-3.327,0.099-4.894,0.852   c-3.749,1.803-5.463,6.389-3.805,10.211c1.35,3.111,4.469,4.842,7.791,4.708c4.759-0.193,9.516-0.454,14.273-0.681   c1.933-0.092,4.007-0.415,5.94-0.284c0.468,0.032,0.281-0.111,0.435,0.233c0.264,0.594,0.158,1.669,0.218,2.309   c0.463,4.897,0.912,9.795,1.388,14.691c0.312,3.206,2.19,6.002,5.314,7.07c4.015,1.373,8.514-0.816,9.932-4.81   c0.628-1.769,0.401-3.515,0.23-5.321c-0.227-2.399-0.453-4.798-0.68-7.196c-0.473-5.001-0.945-10.002-1.418-15.003   C251.043,170.818,251.014,170.506,250.985,170.195z" fill="#333f61" data-original="#333f61"></path>
	<path style="" d="M315.091,236.187c-1.545-7.926-3.091-15.852-4.636-23.778c-0.368-1.889-0.937-3.652-2.348-5.059   c-1.93-1.924-4.601-2.592-7.242-2.119c-4.019,0.719-8.02,1.555-12.028,2.332c-3.716,0.721-7.448,1.383-11.152,2.162   c-3.372,0.709-6.002,3.447-6.355,6.922c-0.397,3.909,2.265,7.603,6.094,8.463c1.929,0.433,3.814-0.073,5.703-0.439   c2.565-0.497,5.129-0.995,7.694-1.492c1.162-0.225,2.325-0.451,3.487-0.676c0.433-0.084,1.473-0.502,1.902-0.369   c0.468,0.145,0.616,2.382,0.72,2.916c0.886,4.543,1.772,9.086,2.657,13.628c0.539,2.764,2.087,5.121,4.751,6.249   c3.652,1.546,8,0.028,9.917-3.435C315.144,239.885,315.442,237.992,315.091,236.187z" fill="#333f61" data-original="#333f61"></path>
</g>
<g xmlns="http://www.w3.org/2000/svg">
</g>
<g xmlns="http://www.w3.org/2000/svg">
</g>
<g xmlns="http://www.w3.org/2000/svg">
</g>
<g xmlns="http://www.w3.org/2000/svg">
</g>
<g xmlns="http://www.w3.org/2000/svg">
</g>
<g xmlns="http://www.w3.org/2000/svg">
</g>
<g xmlns="http://www.w3.org/2000/svg">
</g>
<g xmlns="http://www.w3.org/2000/svg">
</g>
<g xmlns="http://www.w3.org/2000/svg">
</g>
<g xmlns="http://www.w3.org/2000/svg">
</g>
<g xmlns="http://www.w3.org/2000/svg">
</g>
<g xmlns="http://www.w3.org/2000/svg">
</g>
<g xmlns="http://www.w3.org/2000/svg">
</g>
<g xmlns="http://www.w3.org/2000/svg">
</g>
<g xmlns="http://www.w3.org/2000/svg">
</g>
</g></svg>