<svg xmlns="http://www.w3.org/2000/svg" version="1.1" xmlns:xlink="http://www.w3.org/1999/xlink" xmlns:svgjs="http://svgjs.com/svgjs" width="512" height="512" x="0" y="0" viewBox="0 0 511.986 511.986" style="enable-background:new 0 0 512 512" xml:space="preserve" class=""><g>
<path xmlns="http://www.w3.org/2000/svg" style="" d="M501.33,226.65h-32.016c-5.89,0-10.671-4.766-10.671-10.672c0-5.89,4.781-10.655,10.671-10.655  h32.016c5.875,0,10.656,4.766,10.656,10.655C511.986,221.885,507.205,226.65,501.33,226.65z" fill="#434a54" data-original="#434a54"></path>
<g xmlns="http://www.w3.org/2000/svg">
	<path style="" d="M469.314,183.995h-85.325c-5.906,0-10.671,4.781-10.671,10.672v42.671   c0,5.891,4.765,10.656,10.671,10.656h85.325c5.891,0,10.672-4.766,10.672-10.656v-42.671   C479.986,188.776,475.205,183.995,469.314,183.995z" fill="#656d78" data-original="#656d78"></path>
	<path style="" d="M106.669,322.664C47.851,322.664,0,274.821,0,215.994c0-58.811,47.851-106.653,106.669-106.653   c58.811,0,106.661,47.843,106.661,106.653C213.33,274.821,165.48,322.664,106.669,322.664z" fill="#656d78" data-original="#656d78"></path>
</g>
<path xmlns="http://www.w3.org/2000/svg" style="" d="M106.669,98.669H95.997v234.667h10.672c64.694,0,117.333-52.64,117.333-117.342  C224.001,151.308,171.363,98.669,106.669,98.669z" fill="#ccd1d9" data-original="#ccd1d9"></path>
<g xmlns="http://www.w3.org/2000/svg">
	<path style="" d="M28.859,208.448c4.171,4.155,4.171,10.921,0,15.077c-4.164,4.172-10.914,4.172-15.086,0   c-4.164-4.156-4.164-10.922,0-15.077C17.945,204.276,24.695,204.276,28.859,208.448z" fill="#434a54" data-original="#434a54"></path>
	<path style="" d="M71.529,208.448c4.164,4.155,4.164,10.921,0,15.077c-4.171,4.172-10.921,4.172-15.085,0   c-4.164-4.156-4.164-10.922,0-15.077C60.608,204.276,67.358,204.276,71.529,208.448z" fill="#434a54" data-original="#434a54"></path>
	<path style="" d="M28.859,165.777c4.171,4.172,4.171,10.922,0,15.094c-4.164,4.155-10.914,4.155-15.086,0   c-4.164-4.172-4.164-10.922,0-15.094C17.945,161.605,24.695,161.605,28.859,165.777z" fill="#434a54" data-original="#434a54"></path>
	<path style="" d="M50.194,144.449c4.164,4.156,4.164,10.906,0,15.078s-10.922,4.172-15.086,0s-4.164-10.922,0-15.078   C39.272,140.277,46.03,140.277,50.194,144.449z" fill="#434a54" data-original="#434a54"></path>
	<path style="" d="M71.529,165.777c4.164,4.172,4.164,10.922,0,15.078c-4.164,4.171-10.921,4.171-15.085,0   c-4.164-4.156-4.164-10.906,0-15.078S67.366,161.605,71.529,165.777z" fill="#434a54" data-original="#434a54"></path>
	<path style="" d="M71.529,123.106c4.164,4.172,4.164,10.922,0,15.094c-4.164,4.155-10.921,4.155-15.085,0   c-4.164-4.172-4.164-10.922,0-15.094C60.608,118.95,67.366,118.95,71.529,123.106z" fill="#434a54" data-original="#434a54"></path>
	<path style="" d="M92.865,144.449c4.164,4.156,4.164,10.906,0,15.078c-4.172,4.172-10.922,4.172-15.086,0   c-4.171-4.172-4.171-10.922,0-15.078C81.943,140.277,88.693,140.277,92.865,144.449z" fill="#434a54" data-original="#434a54"></path>
	<path style="" d="M50.194,229.775c4.164,4.172,4.164,10.922,0,15.094c-4.164,4.156-10.922,4.156-15.086,0   c-4.164-4.172-4.164-10.922,0-15.094C39.272,225.619,46.03,225.619,50.194,229.775z" fill="#434a54" data-original="#434a54"></path>
	<path style="" d="M50.194,187.104c4.164,4.172,4.164,10.922,0,15.094c-4.164,4.156-10.922,4.156-15.086,0   c-4.164-4.172-4.164-10.922,0-15.094C39.272,182.948,46.03,182.948,50.194,187.104z" fill="#434a54" data-original="#434a54"></path>
	<path style="" d="M28.859,251.119c4.171,4.155,4.171,10.905,0,15.077c-4.164,4.172-10.922,4.172-15.086,0   s-4.164-10.922,0-15.077C17.937,246.947,24.695,246.947,28.859,251.119z" fill="#434a54" data-original="#434a54"></path>
	<path style="" d="M50.194,272.446c4.164,4.156,4.164,10.922,0,15.078c-4.164,4.172-10.922,4.172-15.086,0   c-4.164-4.156-4.164-10.922,0-15.078C39.272,268.274,46.03,268.274,50.194,272.446z" fill="#434a54" data-original="#434a54"></path>
	<path style="" d="M71.529,293.774c4.164,4.172,4.164,10.922,0,15.093c-4.164,4.156-10.921,4.156-15.085,0   c-4.164-4.171-4.164-10.921,0-15.093C60.608,289.618,67.366,289.618,71.529,293.774z" fill="#434a54" data-original="#434a54"></path>
	<path style="" d="M92.865,272.446c4.164,4.156,4.164,10.922,0,15.078c-4.172,4.172-10.922,4.172-15.086,0   c-4.171-4.156-4.171-10.922,0-15.078C81.943,268.274,88.693,268.274,92.865,272.446z" fill="#434a54" data-original="#434a54"></path>
	<path style="" d="M186.651,263.993h-53.334v122.652c0,14.719,11.968,26.672,26.671,26.672   s26.664-11.953,26.664-26.672V263.993H186.651z" fill="#434a54" data-original="#434a54"></path>
	<path style="" d="M71.529,251.119c4.164,4.155,4.164,10.905,0,15.077s-10.921,4.172-15.085,0s-4.164-10.922,0-15.077   C60.608,246.947,67.366,246.947,71.529,251.119z" fill="#434a54" data-original="#434a54"></path>
</g>
<path xmlns="http://www.w3.org/2000/svg" style="" d="M223.986,151.98H106.653c-17.648,0-31.999,14.359-31.999,31.999v64.015  c0,17.64,14.351,31.999,31.999,31.999h117.333c17.648,0,32-14.359,32-31.999v-64.015C255.985,166.34,241.634,151.98,223.986,151.98z  " fill="#5d9cec" data-original="#5d9cec"></path>
<g xmlns="http://www.w3.org/2000/svg">
	<path style="" d="M423.519,155.105l-3.125-3.125H213.322v128.013h207.072l3.125-3.125c1-1,24.468-24.874,24.468-60.89   C447.987,179.98,424.519,156.105,423.519,155.105z" fill="#4a89dc" data-original="#4a89dc"></path>
	<path style="" d="M181.315,205.339h-63.999c-5.89,0-10.664,4.766-10.664,10.655c0,5.891,4.773,10.672,10.664,10.672   h63.999c5.898,0,10.672-4.781,10.672-10.672C191.987,210.104,187.214,205.339,181.315,205.339z" fill="#4a89dc" data-original="#4a89dc"></path>
</g>
<g xmlns="http://www.w3.org/2000/svg">
	<path style="" d="M383.989,258.649c-5.891,0-10.671,4.781-10.671,10.672v10.672h21.326v-10.672   C394.644,263.431,389.88,258.649,383.989,258.649z" fill="#5d9cec" data-original="#5d9cec"></path>
	<path style="" d="M341.319,258.649c-5.891,0-10.672,4.781-10.672,10.672v10.672h21.344v-10.672   C351.991,263.431,347.21,258.649,341.319,258.649z" fill="#5d9cec" data-original="#5d9cec"></path>
	<path style="" d="M298.648,258.649c-5.875,0-10.656,4.781-10.656,10.672v10.672h21.327v-10.672   C309.319,263.431,304.554,258.649,298.648,258.649z" fill="#5d9cec" data-original="#5d9cec"></path>
	<path style="" d="M255.985,258.649c-5.891,0-10.664,4.781-10.664,10.672v10.672h21.328v-10.672   C266.649,263.431,261.876,258.649,255.985,258.649z" fill="#5d9cec" data-original="#5d9cec"></path>
	<path style="" d="M258.649,173.324c5.891,0,10.672-4.781,10.672-10.672V151.98h-21.336v10.672   C247.985,168.543,252.759,173.324,258.649,173.324z" fill="#5d9cec" data-original="#5d9cec"></path>
	<path style="" d="M301.319,173.324c5.891,0,10.672-4.781,10.672-10.672V151.98h-21.343v10.672   C290.648,168.543,295.43,173.324,301.319,173.324z" fill="#5d9cec" data-original="#5d9cec"></path>
	<path style="" d="M343.991,173.324c5.875,0,10.656-4.781,10.656-10.672V151.98h-21.328v10.672   C333.319,168.543,338.085,173.324,343.991,173.324z" fill="#5d9cec" data-original="#5d9cec"></path>
	<path style="" d="M386.645,173.324c5.905,0,10.671-4.781,10.671-10.672V151.98h-21.327v10.672   C375.989,168.543,380.77,173.324,386.645,173.324z" fill="#5d9cec" data-original="#5d9cec"></path>
</g>
<g xmlns="http://www.w3.org/2000/svg">
</g>
<g xmlns="http://www.w3.org/2000/svg">
</g>
<g xmlns="http://www.w3.org/2000/svg">
</g>
<g xmlns="http://www.w3.org/2000/svg">
</g>
<g xmlns="http://www.w3.org/2000/svg">
</g>
<g xmlns="http://www.w3.org/2000/svg">
</g>
<g xmlns="http://www.w3.org/2000/svg">
</g>
<g xmlns="http://www.w3.org/2000/svg">
</g>
<g xmlns="http://www.w3.org/2000/svg">
</g>
<g xmlns="http://www.w3.org/2000/svg">
</g>
<g xmlns="http://www.w3.org/2000/svg">
</g>
<g xmlns="http://www.w3.org/2000/svg">
</g>
<g xmlns="http://www.w3.org/2000/svg">
</g>
<g xmlns="http://www.w3.org/2000/svg">
</g>
<g xmlns="http://www.w3.org/2000/svg">
</g>
</g></svg>