<svg xmlns="http://www.w3.org/2000/svg" version="1.1" xmlns:xlink="http://www.w3.org/1999/xlink" xmlns:svgjs="http://svgjs.com/svgjs" width="512" height="512" x="0" y="0" viewBox="0 0 512 512" style="enable-background:new 0 0 512 512" xml:space="preserve" class=""><g><g xmlns="http://www.w3.org/2000/svg"><g><g><g><path d="m483.574 306.118s-28.63-28.586-86.358-10.674l23.354 27.745z" fill="#ffe5c4" data-original="#ffe5c4"></path><path d="m98.413 153.949s6.42-26.882 25.29-44.816c4.129-3.924 10.676-3.712 14.563.452l36.616 39.232z" fill="#e22334" data-original="#e22334"></path><path d="m433.457 319.351s-1.97-29.401-90.004-43.001c-87.979-13.592-149.746-116.487-164.606-143.589-2.121-3.869-6.465-5.947-10.808-5.169-23.785 4.261-99.406 16.795-139.702 11.691-3.738-.474-6.71 3.082-5.537 6.663 4.942 15.091 13.624 48.273 4.789 74.207-13.546 39.767-27.713 100.846-18.475 125.48 0 0 215.546 5.213 287.142 0 52.861-3.849 129.503-20.893 137.201-26.282z" fill="#fb4a59" data-original="#fb4a59"></path><path d="m433.458 319.346c-3.255 2.277-18.77 6.634-39.6 11.188-6.418-9.581-26.187-26.486-86.937-35.871-87.978-13.598-152.838-128.855-167.693-155.959-1.607-2.926-4.512-4.842-7.706-5.244 15.638-2.236 28.804-4.492 36.52-5.872 4.337-.773 8.684 1.308 10.807 5.172 14.855 27.104 76.625 129.999 164.603 143.587 88.038 13.608 90.006 42.999 90.006 42.999z" fill="#f82f40" data-original="#f82f40"></path><g><path d="m490.976 302.428c-2.546-1.649-5.717-1.999-8.605-1.07-22.352 7.186-127.452 39.657-201.511 39.657-52.819 0-210.696-.958-270.541-1.362-5.691-.039-10.319 4.563-10.319 10.254v45.508c0 5.669 4.596 10.265 10.265 10.265h272.134s162.444-7.138 225.184-51.494c2.793-1.974 4.456-5.167 4.414-8.587-.124-9.975-2.677-31.291-21.021-43.171z" fill="#fff2e3" data-original="#fff2e3"></path></g><path d="m328.575 402.008c4.492-19.841 3.163-49.356 2.019-64.768 6.5-.876 13.052-1.875 19.584-2.988l7.798 64.242c-10.476 1.423-20.397 2.576-29.401 3.514z" fill="#ffe5c4" data-original="#ffe5c4"></path><path d="m21.995 372.68h-21.995v22.734c0 5.669 4.596 10.265 10.265 10.265h22.032v-22.697c-.001-5.69-4.613-10.302-10.302-10.302z" fill="#3f5959" data-original="#3f5959"></path><path d="m511.999 345.595c.041 3.42-1.628 6.614-4.419 8.592-12.27 8.674-28.34 15.927-46.266 21.974 20.377-25.724 5.656-58.226.165-68.373 9.426-2.792 16.648-5.069 20.892-6.428 2.885-.927 6.057-.577 8.602 1.071 18.348 11.877 20.903 33.192 21.026 43.164z" fill="#ffe5c4" data-original="#ffe5c4"></path></g><g><circle cx="106.635" cy="221.896" fill="#fff2e3" r="45.937" data-original="#fff2e3"></circle><path d="m152.568 221.901c0 25.363-20.562 45.936-45.936 45.936-4.419 0-8.705-.628-12.754-1.793 19.172-5.532 33.182-23.2 33.182-44.143s-14.011-38.622-33.182-44.154c4.049-1.164 8.334-1.793 12.754-1.793 25.374.001 45.936 20.574 45.936 45.947z" fill="#ffe5c4" data-original="#ffe5c4"></path><g><path d="m108.349 201.407 5.972 9.833 11.197 2.641c1.464.345 2.041 2.12 1.059 3.26l-7.506 8.718.948 11.465c.124 1.499-1.386 2.596-2.773 2.015l-10.611-4.445-10.611 4.445c-1.388.581-2.897-.516-2.773-2.015l.948-11.465-7.506-8.718c-.982-1.14-.405-2.915 1.059-3.26l11.197-2.641 5.972-9.833c.781-1.286 2.647-1.286 3.428 0z" fill="#31a7fb" data-original="#31a7fb"></path></g></g></g><path d="m181.39 388.921c-75.436 0-160.329-.791-161.608-.803-4.267-.04-7.694-3.532-7.653-7.8.04-4.241 3.491-7.653 7.724-7.653h.074c1.921.018 192.847 1.796 256.023.003 25.31-.718 47.375-2.238 67.456-4.649 4.238-.511 8.084 2.513 8.593 6.75.509 4.236-2.514 8.083-6.751 8.592-20.552 2.467-43.076 4.022-68.86 4.754-21.28.605-56.94.806-94.998.806z" fill="#3f5959" data-original="#3f5959"></path></g><g fill="#fff2e3"><path d="m167.658 174.467c-3.013 0-5.875-1.773-7.121-4.722-1.66-3.931.181-8.463 4.111-10.124l31.136-13.152c3.932-1.661 8.464.18 10.124 4.112 1.66 3.931-.18 8.463-4.111 10.124l-31.136 13.152c-.981.414-2.001.61-3.003.61z" fill="#fff2e3" data-original="#fff2e3"></path><path d="m187.948 206.111c-2.455 0-4.869-1.168-6.368-3.342-2.422-3.513-1.537-8.325 1.976-10.746l28.046-19.334c3.515-2.423 8.325-1.536 10.746 1.976 2.422 3.513 1.537 8.325-1.976 10.746l-28.046 19.334c-1.339.923-2.866 1.366-4.378 1.366z" fill="#fff2e3" data-original="#fff2e3"></path><path d="m209.966 232.961c-2.455 0-4.869-1.168-6.368-3.342-2.422-3.513-1.537-8.325 1.976-10.746l28.046-19.334c3.514-2.423 8.325-1.536 10.746 1.976 2.422 3.513 1.537 8.325-1.976 10.746l-28.046 19.334c-1.338.923-2.866 1.366-4.378 1.366z" fill="#fff2e3" data-original="#fff2e3"></path><path d="m235.075 256.719c-2.455 0-4.869-1.168-6.368-3.342-2.422-3.513-1.537-8.325 1.976-10.746l28.046-19.334c3.515-2.423 8.324-1.536 10.746 1.976 2.422 3.513 1.537 8.325-1.976 10.746l-28.046 19.334c-1.339.924-2.866 1.366-4.378 1.366z" fill="#fff2e3" data-original="#fff2e3"></path><path d="m263.27 280.477c-2.116 0-4.224-.864-5.75-2.562-2.852-3.174-2.591-8.059.583-10.911l24.955-22.424c3.175-2.851 8.06-2.591 10.911.583 2.852 3.174 2.591 8.059-.583 10.911l-24.955 22.424c-1.476 1.326-3.322 1.979-5.161 1.979z" fill="#fff2e3" data-original="#fff2e3"></path><path d="m299.185 297.669c-1.945 0-3.891-.729-5.393-2.194-3.055-2.979-3.117-7.871-.138-10.927l21.865-22.424c2.978-3.056 7.87-3.118 10.926-.139 3.055 2.979 3.117 7.871.138 10.927l-21.865 22.424c-1.514 1.553-3.523 2.333-5.533 2.333z" fill="#fff2e3" data-original="#fff2e3"></path><path d="m339.513 309.444c-1.38 0-2.777-.369-4.038-1.145-3.635-2.234-4.771-6.993-2.537-10.629l15.684-25.515c2.235-3.635 6.994-4.771 10.628-2.536 3.635 2.234 4.771 6.993 2.537 10.629l-15.684 25.515c-1.459 2.373-3.994 3.681-6.59 3.681z" fill="#fff2e3" data-original="#fff2e3"></path></g><path d="m152.625 314.093h-.106c-4.267 0-7.726-3.459-7.726-7.726 0-4.268 3.459-7.726 7.726-7.726h.106c4.267 0 7.726 3.459 7.726 7.726.001 4.267-3.459 7.726-7.726 7.726z" fill="#cbe5e7" data-original="#cbe5e7"></path><path d="m183.276 314.093h-.107c-4.267 0-7.726-3.459-7.726-7.726 0-4.268 3.459-7.726 7.726-7.726h.107c4.267 0 7.726 3.459 7.726 7.726.001 4.267-3.459 7.726-7.726 7.726z" fill="#cbe5e7" data-original="#cbe5e7"></path></g></g></svg>