<svg xmlns="http://www.w3.org/2000/svg" version="1.1" xmlns:xlink="http://www.w3.org/1999/xlink" xmlns:svgjs="http://svgjs.com/svgjs" width="512" height="512" x="0" y="0" viewBox="0 0 512 512" style="enable-background:new 0 0 512 512" xml:space="preserve" class=""><g><g xmlns="http://www.w3.org/2000/svg"><path d="m102.962 234.587-89.854-70.567-8.117 4.338 50.677 305.48c1.111 6.7 6.906 11.613 13.698 11.613 8.052 0 14.416-6.827 13.851-14.86l-8.897-126.454c-2.417-34.354 7.806-68.35 28.642-95.644z" fill="#ffe07d" data-original="#ffe07d"></path><path d="m69.584 472.639-28.148-286.371-28.329-22.248-8.117 4.338 50.677 305.48c1.111 6.7 6.906 11.613 13.698 11.613 2.668 0 5.141-.761 7.248-2.056-3.854-2.164-6.573-6.112-7.029-10.756z" fill="#ffd064" data-original="#ffd064"></path><path d="m237.869 272.709c-74.305-138.095-154.322-226.371-154.322-226.371l-5.281 16.209 158.088 300.984 76.45 30.219 76.356-22.664v-12.806c-49.076 3.193-111.067-10.814-151.291-85.571z" fill="#ec625e" data-original="#ec625e"></path><path d="m312.803 393.749 35.716-10.601c-42.879-9.902-88.126-37.449-111.405-104.766-2.357-6.816-4.743-13.527-7.15-20.134-71.962-129.762-146.417-211.91-146.417-211.91l-5.281 16.209 105.234 200.355 2.199-.857 4.652 13.901 46.003 87.585z" fill="#df4854" data-original="#df4854"></path><path d="m46.163 32.431c7.057-7.999 19.584-7.798 26.454.361 21.66 25.723 67.687 87.363 108.361 188.004 53.196 131.626 99.851 198.501 210.844 136.02 9.497-5.346 20.95-5.959 30.945-1.613 30.562 9.645 54.098 18.948 71.936 27.103 23.054 10.539 23.076 43.259-.011 53.725-30.047 13.62-71.927 30.112-120.282 42.2-42.031 10.508-79.464 8.102-108.529 1.916-35.033-7.456-63.021-33.777-72.702-68.262-43.698-155.653-162.375-229.131-188.188-243.528-3.12-1.74-5.04-5.05-4.99-8.622.919-65.793 28.703-107.513 46.162-127.304z" fill="#f87c68" data-original="#f87c68"></path><g><path d="m305.713 470.531c-35.033-7.456-63.021-33.778-72.702-68.263-43.696-155.651-162.374-229.129-188.187-243.526-3.12-1.74-5.039-5.05-4.989-8.622.748-53.549 19.292-91.149 35.581-113.96-.968-1.175-1.911-2.313-2.799-3.367-6.871-8.159-19.398-8.36-26.454-.361-17.459 19.79-45.243 61.51-46.162 127.303-.05 3.572 1.87 6.882 4.989 8.622 25.813 14.397 144.491 87.875 188.187 243.527 9.681 34.485 37.669 60.806 72.702 68.262 29.065 6.186 66.499 8.592 108.529-1.916 7.343-1.836 14.534-3.774 21.559-5.787-34.608 5.881-65.474 3.362-90.254-1.912z" fill="#ec625e" data-original="#ec625e"></path></g></g></g></svg>