<svg xmlns="http://www.w3.org/2000/svg" version="1.1" xmlns:xlink="http://www.w3.org/1999/xlink" xmlns:svgjs="http://svgjs.com/svgjs" width="512" height="512" x="0" y="0" viewBox="0 0 512 512" style="enable-background:new 0 0 512 512" xml:space="preserve" class=""><g>
<path xmlns="http://www.w3.org/2000/svg" style="" d="M367.309,244.526c-23.873-12.594-50.165-28.304-77.52-47.898  c-35.757-25.612-64.927-51.84-88.165-75.528c-5.089-4.332-12.671-3.884-17.241,0.993c-3.497,3.732-7.597,9.479-11.834,18.323  c-11.588,24.188-7.673,45.422-7.673,45.422l193.561,63.492L367.309,244.526z" fill="#e07f65" data-original="#e07f65" class=""></path>
<path xmlns="http://www.w3.org/2000/svg" style="" d="M508.505,310.135v-4.329c0-23.432-16.377-43.68-39.3-48.587l-53.828-5.262  c-65.163-6.371-128.048-27.359-183.967-61.401l-28.421-17.302c-9.205-5.603-21.08-3.978-28.439,3.892l0,0  c-27.904,29.843-74.708,31.484-104.635,3.668l-6.419-7.438c-5.679-6.581-16.407-4.148-18.69,4.238l-8.714,32.013  c-3.623,13.309-5.459,27.041-5.459,40.834v55.843v49.416l454.016-8.047L508.505,310.135z" fill="#f49e73" data-original="#f49e73" class=""></path>
<g xmlns="http://www.w3.org/2000/svg">
	<path style="" d="M504.288,316.771l4.218-6.637v-4.329c0-3.054-0.285-6.052-0.819-8.971l-43.011,51.193l13.554-0.24   L504.288,316.771z" fill="#ef9067" data-original="#ef9067"></path>
	<path style="" d="M86.775,306.305v-55.843c0-13.793,1.835-27.525,5.458-40.834l3.585-13.168   c-9.346-3.277-18.187-8.474-25.903-15.645l-6.419-7.438c-5.679-6.581-16.407-4.148-18.69,4.238l-8.714,32.013   c-3.623,13.309-5.459,27.041-5.459,40.834v55.843v49.416l56.142-0.995C86.775,354.726,86.775,306.305,86.775,306.305z" fill="#ef9067" data-original="#ef9067"></path>
</g>
<path xmlns="http://www.w3.org/2000/svg" style="" d="M120.063,302.447v-10.871c0-17.82-14.452-32.265-32.279-32.265h-57.15v46.994v8.915l89.429,3.94  V302.447z" fill="#f2edec" data-original="#f2edec"></path>
<polygon xmlns="http://www.w3.org/2000/svg" style="" points="86.775,315.22 86.775,306.305 86.775,259.311 30.634,259.311 30.634,306.305 30.634,315.22   120.063,319.16 120.063,316.797 " fill="#e4dad8" data-original="#e4dad8"></polygon>
<path xmlns="http://www.w3.org/2000/svg" style="" d="M483.693,327.544c-94.128,30.741-162.668,25.022-208.9,13.188  c-48.175-12.332-93.458-36.932-171.195-39.103c-30.018-0.838-55.201,1.825-72.81,4.506c-3.433,0.523-6.4,2.659-8.001,5.739  L0,355.721l0,0c0,21.073,17.09,38.155,38.171,38.155H154.71c3.583,0,6.672-2.859,6.594-6.44c-0.092-4.239,3.768-7.444,7.9-6.606  l72.73,12.666c1.455,0.253,2.929,0.381,4.405,0.381H387.55c4.782,0,9.538-0.69,14.122-2.049l85.265-25.271  c14.866-4.406,25.063-18.06,25.063-33.559v-3.848v-15.796c0-3.127-3.06-5.34-6.031-4.361l-1.51,0.497  C495.393,312.476,487.909,318.982,483.693,327.544c-7.683,15.601-15.366,31.203-23.049,46.805" fill="#e6e9ed" data-original="#e6e9ed"></path>
<g xmlns="http://www.w3.org/2000/svg">
	<path style="" d="M511.359,339.642c0.417-2.161,0.641-4.382,0.641-6.645v-3.848v-15.796   c0-3.128-3.06-5.34-6.031-4.361l-1.51,0.497c-9.066,2.987-16.55,9.493-20.766,18.054c-35.401,11.562-67.181,17.964-95.518,20.825   C421.508,351.973,462.363,350.934,511.359,339.642z" fill="#cfd2dc" data-original="#cfd2dc"></path>
	<path style="" d="M71.013,355.721L71.013,355.721l25.317-48.716c8.334-1.383,18.845-2.86,31.096-3.941   c-7.608-0.702-15.523-1.203-23.828-1.435c-30.018-0.838-55.201,1.825-72.81,4.506c-3.433,0.523-6.4,2.659-8.001,5.739L0,355.721   l0,0c0,21.073,17.09,38.155,38.171,38.155h71.013C88.103,393.876,71.013,376.793,71.013,355.721z" fill="#cfd2dc" data-original="#cfd2dc"></path>
</g>
<path xmlns="http://www.w3.org/2000/svg" style="" d="M81.892,355.721H0l0,0c0,21.072,17.09,38.155,38.171,38.155h81.892l0,0  C120.063,372.804,102.973,355.721,81.892,355.721z" fill="#333f61" data-original="#333f61"></path>
<path xmlns="http://www.w3.org/2000/svg" style="" d="M71.013,355.721L71.013,355.721H0l0,0c0,21.072,17.09,38.155,38.171,38.155h71.013  C88.103,393.876,71.013,376.793,71.013,355.721z" fill="#253551" data-original="#253551"></path>
<path xmlns="http://www.w3.org/2000/svg" style="" d="M263.9,371.892l-21.967,21.603l0,0c1.455,0.253,2.929,0.381,4.405,0.381H374.48l-86.335-27.739  C279.623,363.399,270.283,365.616,263.9,371.892z" fill="#333f61" data-original="#333f61"></path>
<g xmlns="http://www.w3.org/2000/svg">
	<path style="" d="M196.572,202.249c-1.74,0-3.491-0.589-4.927-1.796c-3.243-2.722-3.664-7.557-0.941-10.799   l42.323-50.374c2.724-3.241,7.561-3.662,10.804-0.94s3.664,7.557,0.941,10.799l-42.323,50.374   C200.931,201.318,198.759,202.249,196.572,202.249z" fill="#ce6545" data-original="#ce6545"></path>
	<path style="" d="M229.856,217.126c-1.74,0-3.491-0.589-4.928-1.796c-3.243-2.722-3.664-7.557-0.941-10.799   l35.913-42.746c2.724-3.241,7.561-3.663,10.804-0.94c3.243,2.722,3.664,7.557,0.941,10.799l-35.913,42.746   C234.216,216.195,232.044,217.126,229.856,217.126z" fill="#ce6545" data-original="#ce6545"></path>
	<path style="" d="M262.054,231.735c-1.74,0-3.491-0.589-4.927-1.796c-3.243-2.722-3.664-7.557-0.941-10.799   l30.89-36.767c2.725-3.241,7.561-3.663,10.804-0.94c3.243,2.722,3.664,7.557,0.941,10.799l-30.891,36.767   C266.414,230.805,264.242,231.735,262.054,231.735z" fill="#ce6545" data-original="#ce6545"></path>
</g>
<g xmlns="http://www.w3.org/2000/svg">
</g>
<g xmlns="http://www.w3.org/2000/svg">
</g>
<g xmlns="http://www.w3.org/2000/svg">
</g>
<g xmlns="http://www.w3.org/2000/svg">
</g>
<g xmlns="http://www.w3.org/2000/svg">
</g>
<g xmlns="http://www.w3.org/2000/svg">
</g>
<g xmlns="http://www.w3.org/2000/svg">
</g>
<g xmlns="http://www.w3.org/2000/svg">
</g>
<g xmlns="http://www.w3.org/2000/svg">
</g>
<g xmlns="http://www.w3.org/2000/svg">
</g>
<g xmlns="http://www.w3.org/2000/svg">
</g>
<g xmlns="http://www.w3.org/2000/svg">
</g>
<g xmlns="http://www.w3.org/2000/svg">
</g>
<g xmlns="http://www.w3.org/2000/svg">
</g>
<g xmlns="http://www.w3.org/2000/svg">
</g>
</g></svg>