<svg xmlns="http://www.w3.org/2000/svg" version="1.1" xmlns:xlink="http://www.w3.org/1999/xlink" xmlns:svgjs="http://svgjs.com/svgjs" width="512" height="512" x="0" y="0" viewBox="0 0 512 512" style="enable-background:new 0 0 512 512" xml:space="preserve" class=""><g><g xmlns="http://www.w3.org/2000/svg" id="Flat_12_"><g><path d="m216 308h-72c-4.418 0-8 3.582-8 8v56c0 4.418 3.582 8 8 8h72c4.418 0 8-3.582 8-8v-56c0-4.418-3.582-8-8-8z" fill="#ff9c62" data-original="#ff9c62"></path><path d="m222.327 231.104c-1.515-1.958-3.851-3.104-6.327-3.104h-128c-3.645 0-6.829 2.464-7.744 5.992l-45.622 175.97c-3.13 12.073-.547 24.654 7.086 34.518 7.633 9.863 19.163 15.52 31.634 15.52h61.884c18.225 0 34.147-12.321 38.72-29.961l49.786-192.031c.621-2.397.098-4.946-1.417-6.904z" fill="#5f5fc0" data-original="#5f5fc0"></path><path d="m112.021 436c-12.472 0-24.002-5.657-31.635-15.521s-10.216-22.445-7.086-34.518l40.953-157.961h-26.253c-3.645 0-6.829 2.464-7.744 5.992l-45.622 175.97c-3.13 12.073-.547 24.654 7.086 34.518 7.633 9.863 19.163 15.52 31.634 15.52h61.884c16.091 0 30.383-9.609 36.656-24z" fill="#3737b0" data-original="#3737b0"></path><path d="m152 300h-32c-8.837 0-16-7.163-16-16 0-8.837 7.163-16 16-16h32c8.837 0 16 7.163 16 16 0 8.837-7.163 16-16 16z" fill="#ff9c62" data-original="#ff9c62"></path></g><g><path d="m504 154.913h-32c-4.418 0-8-3.582-8-8s3.582-8 8-8h32c4.418 0 8 3.582 8 8s-3.582 8-8 8z" fill="#7e5771" data-original="#7e5771"></path><path d="m456 124h-32c-4.418 0-8 3.582-8 8v32c0 4.418 3.582 8 8 8h32c13.233 0 24-10.766 24-24s-10.767-24-24-24z" fill="#efeaed" data-original="#efeaed"></path><path d="m394.283 86.665c-2.425-.723-5.042-.256-7.065 1.254-2.024 1.51-3.218 3.888-3.218 6.414v107.336c0 2.526 1.193 4.903 3.218 6.414 1.398 1.042 3.079 1.586 4.783 1.586.764 0 1.532-.109 2.282-.333 26.917-8.015 45.717-33.237 45.717-61.336s-18.8-53.321-45.717-61.335z" fill="#cfc0ca" data-original="#cfc0ca"></path><path d="m394.283 175.004c-.75.223-1.519.333-2.282.333-1.704 0-3.385-.544-4.783-1.586-2.024-1.51-3.218-3.888-3.218-6.414v34.331c0 2.526 1.193 4.903 3.218 6.414 1.398 1.042 3.079 1.586 4.783 1.586.764 0 1.532-.109 2.282-.333 26.917-8.014 45.717-33.236 45.717-61.335 0-5.894-.837-11.657-2.393-17.166-5.86 20.754-22.053 37.837-43.324 44.17z" fill="#af96a6" data-original="#af96a6"></path><path d="m395.578 76.845-48-24c-2.48-1.241-5.424-1.107-7.784.35-2.358 1.457-3.794 4.033-3.794 6.805v176c0 2.772 1.436 5.348 3.794 6.805 1.285.794 2.743 1.195 4.206 1.195 1.223 0 2.448-.28 3.578-.845l48-24c2.71-1.355 4.422-4.125 4.422-7.155v-128c0-3.03-1.712-5.8-4.422-7.155z" fill="#ffed77" data-original="#ffed77"></path><path d="m395.578 179.156-48 24c-1.13.564-2.355.844-3.578.844-1.463 0-2.921-.401-4.206-1.195-2.358-1.457-3.794-4.032-3.794-6.805v40c0 2.772 1.436 5.348 3.794 6.805 1.285.794 2.743 1.195 4.206 1.195 1.223 0 2.448-.28 3.578-.845l48-24c2.71-1.355 4.422-4.125 4.422-7.155v-40c0 3.031-1.712 5.801-4.422 7.156z" fill="#ffe11c" data-original="#ffe11c"></path><path d="m344 52h-256c-48.523 0-88 39.477-88 88v16c0 48.523 39.477 88 88 88h256c4.418 0 8-3.582 8-8v-176c0-4.418-3.582-8-8-8z" fill="#ff9c62" data-original="#ff9c62"></path><path d="m104 204c-48.523 0-88-39.477-88-88v-16c0-3.934.264-7.807.766-11.606-10.539 14.508-16.766 32.342-16.766 51.606v16c0 48.523 39.477 88 88 88h256c4.418 0 8-3.582 8-8v-32z" fill="#ff833b" data-original="#ff833b"></path><g fill="#e55120"><path d="m144 108h-48c-4.418 0-8-3.582-8-8s3.582-8 8-8h48c4.418 0 8 3.582 8 8s-3.582 8-8 8z" fill="#e55120" data-original="#e55120"></path><path d="m144 140h-48c-4.418 0-8-3.582-8-8s3.582-8 8-8h48c4.418 0 8 3.582 8 8s-3.582 8-8 8z" fill="#e55120" data-original="#e55120"></path><path d="m144 172h-48c-4.418 0-8-3.582-8-8s3.582-8 8-8h48c4.418 0 8 3.582 8 8s-3.582 8-8 8z" fill="#e55120" data-original="#e55120"></path><path d="m144 204h-48c-4.418 0-8-3.582-8-8s3.582-8 8-8h48c4.418 0 8 3.582 8 8s-3.582 8-8 8z" fill="#e55120" data-original="#e55120"></path></g><g><path d="m352 92h-111.15c-30.731 0-56.374 24.403-56.843 55.13-.478 31.275 24.825 56.87 55.993 56.87h112z" fill="#5f5fc0" data-original="#5f5fc0"></path><g fill="#ffed77"><circle cx="240" cy="148" r="16" fill="#ffed77" data-original="#ffed77"></circle><circle cx="296" cy="148" r="16" fill="#ffed77" data-original="#ffed77"></circle></g></g></g></g></g></svg>