<svg xmlns="http://www.w3.org/2000/svg" version="1.1" xmlns:xlink="http://www.w3.org/1999/xlink" xmlns:svgjs="http://svgjs.com/svgjs" width="512" height="512" x="0" y="0" viewBox="0 0 512 512" style="enable-background:new 0 0 512 512" xml:space="preserve" class=""><g><g xmlns="http://www.w3.org/2000/svg"><g><path d="m262.5 376.664c-54.97 0-103.296-3.379-142.67-7.716l-23.272-79.345c-1.236-4.213-4.378-7.592-8.489-9.138l-77.315-29.041c2.534-16.895 6.099-36.17 11.064-58.01l83.506 38.343c.515.237 1.03.422 1.576.567 8.221 2.246 74.482 18.471 134.439-25.013 42.206 28.917 120.469 78.005 173.822 84.423 76.275 9.169 80.766 11.033 88.75 36.51 7.986 25.478-88.192 48.42-241.411 48.42z" fill="#faf7f7" data-original="#faf7f7"></path><g><circle cx="183.998" cy="279.317" fill="#bec7ec" r="44.944" data-original="#bec7ec"></circle><path d="m228.947 279.322c0 24.817-20.13 44.936-44.947 44.936-9.169 0-17.699-2.74-24.807-7.458 24.755-.062 44.813-20.161 44.813-44.937 0-15.659-8.005-29.442-20.14-37.488h.134c24.818 0 44.947 20.12 44.947 44.947z" fill="#a3afe4" data-original="#a3afe4"></path></g><path d="m482.609 350.643c-3.06-25.435-18.811-48.862-36.468-55.002 46.801 6.439 51.045 11.136 57.773 32.605 2.482 7.913-5.09 15.587-21.305 22.397z" fill="#efe2dd" data-original="#efe2dd"></path><path d="m351.889 271.68-28.361 103.688c-19.13.845-39.518 1.298-61.028 1.298-20.016 0-39.147-.443-57.288-1.226 75.76-6.583 94.797-85.485 99.536-128.134 15.288 8.746 31.318 17.203 47.141 24.374z" fill="#efe2dd" data-original="#efe2dd"></path><path d="m247.604 211.569c-61.512 49.418-132.193 32.121-140.702 29.793-.546-.144-1.061-.33-1.576-.567l-85.33-39.178c3.626-16.679 8.087-34.923 13.567-54.826 1.154-4.203 4.832-7.222 9.179-7.551 18.09-1.36 67.23-6.954 111.96-28.969 56.124-27.619 57.021 75.914 57.021 75.914s14.165 10.734 35.881 25.384z" fill="#5b5555" data-original="#5b5555"></path><path d="m247.604 211.569c-21.716-14.649-35.881-25.384-35.881-25.384s-.896-103.533-57.021-75.914c-1.587.783-3.183 1.545-4.78 2.277 32.095.51 37.774 56.79 38.771 74.992.177 3.23 1.541 6.251 3.811 8.51l-87.179 44.746c.515.237 1.03.422 1.576.567 3.82 1.045 20.175 5.104 42.601 4.792 17.979-10.757 36.021-21.404 54.23-31.758 4.188-2.381 9.383-2.048 13.259.812 4.019 2.966 8.245 5.996 12.522 8.929 6.069-3.607 12.126-7.779 18.091-12.569z" fill="#433f43" data-original="#433f43"></path><path d="m128.495 369.866h-.062c-75.564-7.788-120.758-19.47-120.758-19.47s-7.891-30.916 4.183-106.057l83.178 31.248c4.105 1.542 7.246 4.925 8.48 9.132z" fill="#f82f40" data-original="#f82f40"></path><path d="m128.495 369.866h-.062c-17.874-1.844-34.048-3.904-48.326-5.985 13.444-24.765.309-77.439-4.904-95.745l19.831 7.448c4.11 1.545 7.242 4.924 8.478 9.138z" fill="#e22334" data-original="#e22334"></path><path d="m210.117 188.557-99.639 50.329c-2.8 1.414-6.092 1.476-8.943.167l-75.307-34.572-6.233-2.864c.876-4.069 1.813-8.231 2.812-12.496l5.604-1.803 170.223-55.688c5.349-1.75 11.147 1.103 12.944 6.437 3.084 9.15 6.505 24.336 4.107 42.666-.438 3.366-2.538 6.293-5.568 7.824z" fill="#f82f40" data-original="#f82f40"></path><path d="m215.689 180.735c-.443 3.369-2.545 6.294-5.573 7.819l-16.617 8.396c-.021-.01-.031-.031-.051-.041-2.833-2.318-4.553-5.707-4.749-9.375-.556-10.106-2.555-31.956-9.725-49.469l19.666-6.439c5.347-1.751 11.147 1.102 12.939 6.439 3.08 9.148 6.51 24.343 4.11 42.67z" fill="#e22334" data-original="#e22334"></path><g><path d="m278.242 376.583s41.919-46.875 46.871-111.245c.558-7.255 8.214-11.689 14.761-8.515l26.214 12.711c4.649 2.254 6.904 7.601 5.285 12.508-3.533 10.711-9.072 28.945-9.574 39.375-.35 7.51 1.906 12.434 9.406 10.477 22.911-5.985 42.711-14.69 82.734-10.971 19.1 1.772 28.68-6.696 33.491-16.03 9.807 4.749 12.774 11.487 16.483 23.354 7.706 24.59-81.642 46.822-225.671 48.336z" fill="#f82f40" data-original="#f82f40"></path><path d="m482.609 350.643c-1.38-11.404-5.295-22.386-10.796-31.606 7.798-2.885 12.63-8.355 15.618-14.145 9.807 4.749 12.774 11.487 16.483 23.354 2.482 7.913-5.09 15.587-21.305 22.397z" fill="#e22334" data-original="#e22334"></path></g><path d="m0 353.226c0-6.063 5.206-10.814 11.243-10.259 47.598 4.382 232.457 21.106 308.268 23.627 87.301 2.904 177.275-21.697 184.402-38.349 0 0 23.162 30.645-8.908 48.42-26.313 14.584-108.243 25.347-136.81 28.741-6.371.757-12.781 1.088-19.196.988l-328.857-5.123c-5.627-.086-10.142-4.672-10.142-10.299z" fill="#bec7ec" data-original="#bec7ec"></path><path d="m495.002 376.665c-4.183 2.318-9.756 4.533-16.308 6.645 5.223-12.939 5.553-27.166 2.596-40.373 12.558-5.007 20.676-10.147 22.623-14.69 0 0 23.159 30.648-8.911 48.418z" fill="#a3afe4" data-original="#a3afe4"></path><g fill="#433f43"><path d="m251.662 252.066c-1.292 0-2.601-.324-3.805-1.007-3.712-2.106-5.014-6.821-2.908-10.532l13.844-24.405c2.106-3.711 6.822-5.014 10.532-2.908 3.712 2.106 5.014 6.821 2.908 10.532l-13.844 24.405c-1.422 2.508-4.036 3.915-6.727 3.915z" fill="#433f43" data-original="#433f43"></path><path d="m275.748 265.299c-1.041 0-2.098-.211-3.111-.658-3.905-1.72-5.676-6.281-3.955-10.186l10.753-24.404c1.721-3.905 6.282-5.677 10.186-3.955 3.905 1.72 5.676 6.281 3.955 10.186l-10.753 24.404c-1.275 2.892-4.106 4.613-7.075 4.613z" fill="#433f43" data-original="#433f43"></path><path d="m298.87 276.995c-1.041 0-2.098-.211-3.111-.658-3.905-1.72-5.676-6.281-3.955-10.186l10.753-24.404c1.72-3.905 6.281-5.677 10.186-3.955 3.905 1.72 5.676 6.281 3.955 10.186l-10.753 24.404c-1.275 2.891-4.106 4.613-7.075 4.613z" fill="#433f43" data-original="#433f43"></path><path d="m217.858 173.052c-.278 0-.557-.015-.84-.045l-23.507-2.587c-4.242-.459-7.31-4.27-6.851-8.512.458-4.243 4.266-7.313 8.512-6.852l23.507 2.587c4.242.459 7.31 4.27 6.851 8.512-.428 3.96-3.778 6.897-7.672 6.897z" fill="#433f43" data-original="#433f43"></path></g></g><g><g><g><path d="m117.398 212.165c-8.447 0-15.09-4.336-18.731-8.958-2.641-3.351-2.065-8.209 1.287-10.85 3.351-2.642 8.21-2.066 10.851 1.287.863 1.096 4.162 4.506 10.358 2.386 4.037-1.377 8.431.773 9.811 4.81 1.381 4.038-.772 8.431-4.81 9.812-3.084 1.054-6.021 1.513-8.766 1.513z" fill="#433f43" data-original="#433f43"></path></g><g><path d="m144.674 203.882c-3.212 0-6.212-2.018-7.31-5.227-1.381-4.037.772-8.431 4.809-9.812 5.5-1.881 6.569-5.818 6.716-7.997.288-4.258 3.978-7.484 8.23-7.186 4.258.288 7.475 3.973 7.187 8.23-.256 3.774-2.245 16.482-17.132 21.574-.827.283-1.671.418-2.5.418z" fill="#433f43" data-original="#433f43"></path></g></g><g><path d="m123.419 188.597c-3.212 0-6.212-2.019-7.31-5.227-1.381-4.037.772-8.431 4.809-9.812l7.685-2.629c4.037-1.38 8.43.774 9.811 4.81 1.381 4.037-.772 8.431-4.809 9.812l-7.685 2.629c-.828.282-1.673.417-2.501.417z" fill="#433f43" data-original="#433f43"></path></g></g></g></g></svg>