<?xml version="1.0" encoding="iso-8859-1"?>
<!-- Generator: Adobe Illustrator 19.0.0, SVG Export Plug-In . SVG Version: 6.00 Build 0)  -->
<svg version="1.1" id="Capa_1" xmlns="http://www.w3.org/2000/svg" xmlns:xlink="http://www.w3.org/1999/xlink" x="0px" y="0px"
	 viewBox="0 0 384.962 384.962" style="enable-background:new 0 0 384.962 384.962;" xml:space="preserve">
<g>
	<g id="Double_Arrow_Left_x2F_Right">
		<path d="M40.942,156.619h187.589c6.641,0,12.03-5.438,12.03-12.151c0-6.713-5.39-12.151-12.03-12.151H40.942l62.558-63.46
			c4.704-4.752,4.704-12.439,0-17.179c-4.704-4.752-12.319-4.752-17.011,0l-82.997,84.2c-4.632,4.68-4.68,12.512,0,17.191
			l83.009,84.2c4.704,4.752,12.319,4.74,17.011,0c4.704-4.74,4.704-12.439,0-17.179L40.942,156.619z"/>
		<path d="M381.472,231.904l-83.009-84.2c-4.704-4.752-12.319-4.74-17.011,0c-4.704,4.74-4.704,12.439,0,17.179l62.558,63.46
			H156.421c-6.641,0-12.03,5.438-12.03,12.151c0,6.713,5.39,12.151,12.03,12.151H344.01l-62.558,63.46
			c-4.704,4.752-4.704,12.439,0,17.179c4.704,4.752,12.319,4.752,17.011,0l82.997-84.2
			C386.104,244.416,386.152,236.584,381.472,231.904z"/>
	</g>
	<g>
	</g>
	<g>
	</g>
	<g>
	</g>
	<g>
	</g>
	<g>
	</g>
	<g>
	</g>
</g>
<g>
</g>
<g>
</g>
<g>
</g>
<g>
</g>
<g>
</g>
<g>
</g>
<g>
</g>
<g>
</g>
<g>
</g>
<g>
</g>
<g>
</g>
<g>
</g>
<g>
</g>
<g>
</g>
<g>
</g>
</svg>
