<?xml version="1.0" encoding="iso-8859-1"?>
<!-- Generator: Adobe Illustrator 19.0.0, SVG Export Plug-In . SVG Version: 6.00 Build 0)  -->
<svg version="1.1" id="Layer_1" xmlns="http://www.w3.org/2000/svg" xmlns:xlink="http://www.w3.org/1999/xlink" x="0px" y="0px"
	 viewBox="0 0 512 512" style="enable-background:new 0 0 512 512;" xml:space="preserve">
<path style="fill:#FFAD41;" d="M294.087,410.225l38.45-57.675H179.466l38.45,57.675c-39.313,3.167-70.34,36.149-70.34,76.263
	c0,2.781,0.163,5.646,0.486,8.515l1.91,16.997H362.04l1.901-17.009c0.321-2.878,0.485-5.738,0.485-8.503
	C364.426,446.374,333.398,413.393,294.087,410.225z"/>
<path style="fill:#FF9811;" d="M294.087,410.225l38.45-57.675h-76.536V512h106.04l1.901-17.009c0.321-2.878,0.485-5.738,0.485-8.503
	C364.426,446.374,333.398,413.393,294.087,410.225z"/>
<path style="fill:#C9E3F7;" d="M437.641,44.727C417.576,15.885,390.216,0,360.599,0s-56.977,15.885-77.041,44.727
	c-18.593,26.728-28.834,61.92-28.834,99.096c0,61.368,47.494,111.296,105.874,111.296s105.874-49.928,105.874-111.296
	C466.473,106.647,456.234,71.456,437.641,44.727z"/>
<path style="fill:#AED5F3;" d="M360.599,255.119c58.38,0,105.874-49.928,105.874-111.296c0-37.176-10.239-72.367-28.834-99.096
	C417.576,15.885,390.216,0,360.599,0"/>
<path style="fill:#C9E3F7;" d="M228.445,44.727C208.378,15.885,181.018,0,151.401,0S94.424,15.885,74.36,44.727
	c-18.593,26.729-28.834,61.92-28.834,99.096c0,61.368,47.496,111.296,105.874,111.296s105.874-49.928,105.874-111.296
	C257.276,106.647,247.036,71.456,228.445,44.727z"/>
<path style="fill:#AED5F3;" d="M151.401,255.119c58.379,0,105.874-49.928,105.874-111.296c0-37.176-10.239-72.367-28.832-99.096
	C208.378,15.885,181.018,0,151.401,0"/>
<path style="fill:#F285B9;" d="M333.042,44.727C312.977,15.885,285.617,0,256,0s-56.977,15.885-77.041,44.727
	c-18.593,26.728-28.834,61.92-28.834,99.096c0,61.368,47.496,111.296,105.874,111.296c58.38,0,105.874-49.928,105.874-111.296
	C361.875,106.647,351.635,71.456,333.042,44.727z"/>
<path style="fill:#EE5DA2;" d="M256,255.119c58.38,0,105.874-49.928,105.874-111.296c0-37.176-10.239-72.367-28.834-99.096
	C312.977,15.885,285.617,0,256,0"/>
<path style="fill:#FFDA44;" d="M20.015,199.479c0,94.954,77.251,172.205,172.205,172.205h127.56
	c94.954,0,172.205-77.251,172.205-172.205"/>
<path style="fill:#FFAD41;" d="M256,199.479v172.205h63.78c94.954,0,172.205-77.251,172.205-172.205"/>
<path style="fill:#FFEFD9;" d="M163.328,228.985l12.309-10.344l12.309,10.344c19.024,15.987,43.192,24.792,68.053,24.792
	c24.861,0,49.029-8.804,68.053-24.792l12.31-10.344l12.309,10.344c19.024,15.987,43.192,24.792,68.053,24.792
	c28.011,0,54.038-10.743,73.483-29.612c1.162-8.064,1.777-16.305,1.777-24.687v-44.646H20.015v44.646
	c0,8.381,0.614,16.621,1.777,24.687c19.445,18.869,45.472,29.612,73.483,29.612C120.136,253.776,144.304,244.972,163.328,228.985z"
	/>
<path style="fill:#FFD6A0;" d="M256,154.833v98.943c24.86,0,49.029-8.804,68.053-24.792l12.309-10.344l12.31,10.344
	c19.024,15.987,43.192,24.792,68.053,24.792c28.011,0,54.038-10.743,73.483-29.612c1.162-8.064,1.777-16.305,1.777-24.687v-44.646
	H256V154.833z"/>
<g>
</g>
<g>
</g>
<g>
</g>
<g>
</g>
<g>
</g>
<g>
</g>
<g>
</g>
<g>
</g>
<g>
</g>
<g>
</g>
<g>
</g>
<g>
</g>
<g>
</g>
<g>
</g>
<g>
</g>
</svg>
