<?xml version="1.0" encoding="iso-8859-1"?>
<!-- Generator: Adobe Illustrator 19.0.0, SVG Export Plug-In . SVG Version: 6.00 Build 0)  -->
<svg version="1.1" id="Layer_1" xmlns="http://www.w3.org/2000/svg" xmlns:xlink="http://www.w3.org/1999/xlink" x="0px" y="0px"
	 viewBox="0 0 512 512" style="enable-background:new 0 0 512 512;" xml:space="preserve">
<path style="fill:#39A3DB;" d="M454.886,257.696H317.627c-11.06,0-20.026-8.966-20.026-20.026c0-22.947-18.663-41.614-41.601-41.614
	c-22.939,0-41.601,18.667-41.601,41.614c0,11.06-8.966,20.026-20.026,20.026H57.114c-11.06,0-20.026-8.966-20.026-20.026v-27.85
	c0-21.137,9.201-41.146,25.244-54.897l42.431-36.355V83.509c0-11.06,8.966-20.026,20.026-20.026h262.422
	c11.06,0,20.026,8.966,20.026,20.026v35.059l42.427,36.353c16.045,13.754,25.246,33.763,25.246,54.899v27.848
	C474.912,248.729,465.945,257.696,454.886,257.696z"/>
<path style="fill:#4881C2;" d="M449.665,154.92l-42.429-36.353V83.509c0-11.06-8.966-20.026-20.026-20.026H256v132.573
	c22.939,0,41.601,18.667,41.601,41.614c0,11.06,8.966,20.026,20.026,20.026h137.259c11.06,0,20.026-8.966,20.026-20.026v-27.85
	C474.912,188.683,465.71,168.674,449.665,154.92z"/>
<path style="fill:#39A3DB;" d="M402.604,512H109.396c-39.871,0-72.307-32.437-72.307-72.307v-40.239
	c0-11.06,8.966-20.026,20.026-20.026h397.771c11.06,0,20.026,8.966,20.026,20.026v40.239C474.912,479.563,442.475,512,402.604,512z"
	/>
<path style="fill:#4881C2;" d="M454.886,379.427H256V512h146.604c39.871,0,72.307-32.437,72.307-72.307v-40.239
	C474.912,388.394,465.945,379.427,454.886,379.427z"/>
<path style="fill:#FFDA79;" d="M423.151,103.535H88.849c-28.612,0-51.761-23.138-51.761-51.759C37.088,23.225,60.308,0,88.849,0
	h334.302c28.584,0,51.761,23.129,51.761,51.774C474.912,80.315,451.692,103.535,423.151,103.535z"/>
<path style="fill:#23B898;" d="M454.886,419.48H57.114c-11.06,0-20.026-8.966-20.026-20.026V237.669
	c0-11.06,8.966-20.026,20.026-20.026h119.715c8.952-35.381,41.052-61.64,79.17-61.64s70.219,26.26,79.17,61.64h119.715
	c11.06,0,20.026,8.966,20.026,20.026v161.784C474.912,410.513,465.945,419.48,454.886,419.48z"/>
<path style="fill:#FFC72D;" d="M423.151,0H256v103.535h167.151c28.54,0,51.761-23.22,51.761-51.759
	C474.912,23.186,451.798,0,423.151,0z"/>
<path style="fill:#1DA49C;" d="M454.886,217.643H335.17c-8.952-35.381-41.052-61.64-79.17-61.64V419.48h198.886
	c11.06,0,20.026-8.966,20.026-20.026V237.669C474.912,226.608,465.945,217.643,454.886,217.643z"/>
<g>
</g>
<g>
</g>
<g>
</g>
<g>
</g>
<g>
</g>
<g>
</g>
<g>
</g>
<g>
</g>
<g>
</g>
<g>
</g>
<g>
</g>
<g>
</g>
<g>
</g>
<g>
</g>
<g>
</g>
</svg>
