<?xml version="1.0" encoding="iso-8859-1"?>
<!-- Generator: Adobe Illustrator 19.0.0, SVG Export Plug-In . SVG Version: 6.00 Build 0)  -->
<svg version="1.1" id="Capa_1" xmlns="http://www.w3.org/2000/svg" xmlns:xlink="http://www.w3.org/1999/xlink" x="0px" y="0px"
	 viewBox="0 0 59.707 59.707" style="enable-background:new 0 0 59.707 59.707;" xml:space="preserve">
<g>
	<circle cx="32.925" cy="40.379" r="1"/>
	<circle cx="35.925" cy="45.379" r="1"/>
	<circle cx="34.925" cy="34.379" r="1"/>
	<path d="M22.783,42.666l2.192-2.048c0.584-0.545,0.921-1.288,0.947-2.091c0.027-0.802-0.258-1.565-0.804-2.149l-2.048-2.192
		c-1.13-1.21-3.032-1.272-4.24-0.144l-2.192,2.048c-1.209,1.129-1.273,3.031-0.144,4.24l2.048,2.192
		c0.59,0.632,1.391,0.95,2.192,0.95C21.47,43.473,22.206,43.206,22.783,42.666z M20.004,41.157l-2.048-2.192
		c-0.376-0.403-0.354-1.037,0.048-1.414l2.192-2.048c0.192-0.18,0.438-0.269,0.683-0.269c0.268,0,0.534,0.106,0.731,0.316
		l2.048,2.192c0.181,0.193,0.275,0.448,0.267,0.717c-0.01,0.269-0.121,0.517-0.314,0.697l-2.192,2.048
		C21.014,41.582,20.382,41.56,20.004,41.157z"/>
	<path d="M18.634,30.705c0.034,0.002,0.069,0.002,0.104,0.002c0.764,0,1.486-0.283,2.045-0.806l2.192-2.048
		c1.209-1.129,1.273-3.031,0.144-4.24l-2.048-2.192c-1.129-1.21-3.032-1.272-4.24-0.144l-2.192,2.048
		c-1.209,1.129-1.273,3.031-0.144,4.24l2.048,2.192C17.088,30.342,17.831,30.679,18.634,30.705z M16.004,24.786l2.192-2.048
		c0.192-0.18,0.438-0.269,0.683-0.269c0.268,0,0.534,0.106,0.731,0.316l2.048,2.192c0.376,0.403,0.354,1.037-0.048,1.414
		l-2.192,2.048c-0.193,0.181-0.448,0.272-0.717,0.267c-0.269-0.01-0.517-0.121-0.697-0.314L15.956,26.2
		C15.58,25.797,15.601,25.163,16.004,24.786z"/>
	<circle cx="19.925" cy="48.472" r="1"/>
	<path d="M42.667,16.934c0.042-1.066-0.197-2.116-0.71-3.086c-0.357-0.674-0.758-1.316-1.193-1.927l1.094-2.856L39.991,8.35
		l-0.686,1.792c-3.168-3.369-7.615-5.347-12.38-5.347c-6.313,0-12.073,3.469-15.032,9.053c-0.513,0.97-0.753,2.02-0.71,3.086
		c-0.265,0.108-0.505,0.273-0.693,0.498c-0.338,0.405-0.479,0.935-0.386,1.443l6.277,36.893c0.41,2.283,2.392,3.939,4.71,3.939
		h11.668c2.318,0,4.3-1.656,4.711-3.948l6.275-36.874c0.094-0.519-0.047-1.048-0.385-1.453
		C43.172,17.207,42.932,17.042,42.667,16.934z M40.189,14.783c0.335,0.633,0.497,1.317,0.48,2.012h-1.772l0.979-2.556
		C39.982,14.419,40.091,14.597,40.189,14.783z M13.66,14.783c2.61-4.927,7.693-7.988,13.265-7.988c4.54,0,8.756,2.034,11.573,5.453
		l-1.741,4.547H13.18C13.163,16.101,13.325,15.417,13.66,14.783z M35.5,55.414c-0.238,1.328-1.392,2.293-2.741,2.293H21.091
		c-1.35,0-2.503-0.965-2.74-2.284l-6.232-36.628h23.873l-4.208,10.986c-0.129-0.422-0.343-0.824-0.664-1.168l-2.048-2.192
		c-1.13-1.21-3.033-1.272-4.24-0.144l-2.192,2.048c-1.209,1.129-1.273,3.031-0.144,4.24l2.048,2.192
		c0.545,0.584,1.288,0.921,2.091,0.947c0.034,0.002,0.069,0.002,0.104,0.002c0.764,0,1.486-0.283,2.045-0.806l1.618-1.511
		l-3.168,8.271c-0.189,0.182-4.628,12.085-4.628,12.085c-0.179-0.168-0.416-0.275-0.68-0.275c-0.552,0-1,0.448-1,1s0.448,1,1,1
		c0.089,0,0.17-0.029,0.252-0.051l1.681,0.644l1.198-3.128c0.12,0.222,0.258,0.437,0.439,0.629l2.048,2.192
		c0.545,0.584,1.288,0.921,2.091,0.947c0.034,0.002,0.069,0.002,0.104,0.002c0.764,0,1.486-0.283,2.045-0.806l2.192-2.048
		c1.209-1.129,1.273-3.031,0.144-4.24l-2.048-2.192c-1.129-1.21-3.032-1.272-4.24-0.144l-0.946,0.883c0,0,5.011-12.948,4.99-13.028
		l6.257-16.337h3.6L35.5,55.414z M29.61,31.393l-2.192,2.048c-0.194,0.181-0.443,0.268-0.717,0.267
		c-0.269-0.01-0.517-0.121-0.697-0.314L23.956,31.2c-0.376-0.403-0.354-1.037,0.048-1.414l2.192-2.048
		c0.192-0.18,0.438-0.269,0.683-0.269c0.268,0,0.534,0.106,0.731,0.316l2.048,2.192C30.034,30.382,30.013,31.016,29.61,31.393z
		 M27.004,50.786l2.192-2.048c0.192-0.18,0.438-0.269,0.683-0.269c0.268,0,0.534,0.106,0.731,0.316l2.048,2.192
		c0.376,0.403,0.354,1.037-0.048,1.414l-2.192,2.048c-0.194,0.181-0.444,0.272-0.717,0.267c-0.269-0.01-0.517-0.121-0.697-0.314
		L26.956,52.2C26.58,51.797,26.601,51.163,27.004,50.786z"/>
	<path d="M41.631,5.999l2,2l-1.414,1.414l-2-2L41.631,5.999z M44.218,7.415l-2-2l1.414-1.414l2,2L44.218,7.415z M46.218,5.415l-2-2
		l1.414-1.414l2,2L46.218,5.415z M46.217,1.414L47.631,0l2,2l-1.414,1.414L46.217,1.414z"/>
</g>
<g>
</g>
<g>
</g>
<g>
</g>
<g>
</g>
<g>
</g>
<g>
</g>
<g>
</g>
<g>
</g>
<g>
</g>
<g>
</g>
<g>
</g>
<g>
</g>
<g>
</g>
<g>
</g>
<g>
</g>
</svg>
