<?xml version="1.0" encoding="iso-8859-1"?>
<!-- Generator: Adobe Illustrator 19.1.0, SVG Export Plug-In . SVG Version: 6.00 Build 0)  -->
<svg version="1.1" id="Capa_1" xmlns="http://www.w3.org/2000/svg" xmlns:xlink="http://www.w3.org/1999/xlink" x="0px" y="0px"
	 viewBox="0 0 439.629 439.629" style="enable-background:new 0 0 439.629 439.629;" xml:space="preserve">
<g>
	<g>
		<path style="fill:#F2D24C;" d="M363.912,257.859c0,100.392-70.137,181.769-156.656,181.769S50.599,358.251,50.599,257.859
			c0-48.444,16.323-92.451,42.943-125.026c2.416-2.966,4.915-5.824,7.498-8.586c17.962-14.793,58.764-25.125,106.215-25.125
			s88.254,10.332,106.215,25.125c2.583,2.762,5.082,5.62,7.498,8.586C347.589,165.408,363.912,209.416,363.912,257.859z"/>
		<path style="fill:#F48438;" d="M323.253,141.18c0,23.223-51.936,42.058-115.997,42.058S91.258,164.404,91.258,141.18
			c0-2.858,0.789-5.644,2.284-8.347c1.662-2.99,4.185-5.86,7.498-8.586c17.962-14.793,58.764-25.125,106.215-25.125
			s88.254,10.332,106.215,25.125c3.313,2.727,5.836,5.596,7.498,8.586C322.464,135.536,323.253,138.322,323.253,141.18z"/>
		<path style="fill:#F2D24C;" d="M311.295,141.18c0,3.121-5.453,11.014-26.094,18.5c-3.647,1.316-7.522,2.535-11.588,3.635
			c-9.256,2.535-19.528,4.496-30.458,5.836c-11.373,1.399-23.463,2.129-35.899,2.129c-29.621,0-57.305-4.126-77.945-11.6
			c-20.64-7.486-26.094-15.378-26.094-18.5c0-0.765,0.263-1.602,0.789-2.559c0.885-1.591,2.499-3.384,4.64-5.142
			c13.537-11.145,49.281-22.398,98.61-22.398c23.391,0,43.732,2.523,60.091,6.374c9.423,2.224,17.519,4.879,24.12,7.725
			c6.135,2.655,10.978,5.477,14.398,8.299c2.141,1.758,3.755,3.552,4.652,5.166C311.032,139.578,311.295,140.415,311.295,141.18z"/>
		<path style="fill:#45CE83;" d="M296.299,154.945c-3.085,1.567-6.756,3.157-11.098,4.736c-20.64,7.474-48.312,11.6-77.945,11.6
			c-18.488,0-36.222-1.602-51.972-4.64c-5.788-1.112-11.313-2.416-16.503-3.91c-3.301-0.945-6.457-1.961-9.471-3.049
			c-4.341-1.578-8.012-3.169-11.098-4.736c4.389-2.224,9.662-4.365,15.725-6.326c4.233-1.363,8.861-2.643,13.86-3.791
			c16.252-3.779,36.366-6.242,59.458-6.242C247.604,138.585,278.839,146.107,296.299,154.945z"/>
		<path style="fill:#46B9CC;" d="M422.915,100.617c-5.106,4.688-13.047,4.353-17.735-0.753l-63.105-68.761
			c-1.351-1.471-2.978-1.471-3.827-1.339c-0.849,0.132-2.392,0.61-3.241,2.428l-43.541,92.989l-17.854,38.136
			c-9.256,2.535-19.528,4.496-30.458,5.836l24.192-51.697l44.916-95.919c4.173-8.897,12.461-15.104,22.183-16.598
			c9.71-1.495,19.48,1.937,26.129,9.184l63.105,68.761C428.368,87.989,428.034,95.929,422.915,100.617z"/>
		<path style="fill:#46B9CC;" d="M155.284,166.64c-5.788-1.112-11.313-2.416-16.503-3.91l-4.843-14.111L86.152,9.505
			c-1.291-3.743,0.706-7.833,4.449-9.113c3.743-1.291,7.833,0.706,9.113,4.449l48.085,139.986L155.284,166.64z"/>
		<path style="fill:#F4E84A;" d="M231.225,48.76c-7.324-22.969-70.148-51.688-130.24-32.527S6.289,95.179,13.612,118.148
			s61.975,26.055,122.067,6.894S238.549,71.729,231.225,48.76z"/>
		<path style="fill:#F48438;" d="M99.713,4.841l4.767,12.298c1.44,3.714-0.469,7.885-4.222,9.22
			c-0.058,0.021-0.116,0.041-0.173,0.062c-3.608,1.285-7.585-0.536-8.969-4.107L86.152,9.505c-1.291-3.743,0.706-7.833,4.449-9.113
			C94.344-0.899,98.433,1.099,99.713,4.841z"/>
	</g>
	<path style="fill:none;stroke:#FFFFFF;stroke-width:10;stroke-linecap:round;stroke-miterlimit:10;" d="M202.847,47.676
		c3.036,2.161,5.91,4.554,8.561,7.205"/>
	<path style="fill:none;stroke:#FFFFFF;stroke-width:10;stroke-linecap:round;stroke-miterlimit:10;" d="M122.913,27.883
		c0,0,31.695-1.625,60.388,9.481"/>
</g>
<g>
</g>
<g>
</g>
<g>
</g>
<g>
</g>
<g>
</g>
<g>
</g>
<g>
</g>
<g>
</g>
<g>
</g>
<g>
</g>
<g>
</g>
<g>
</g>
<g>
</g>
<g>
</g>
<g>
</g>
</svg>
