<?xml version="1.0" encoding="iso-8859-1"?>
<!-- Generator: Adobe Illustrator 19.0.0, SVG Export Plug-In . SVG Version: 6.00 Build 0)  -->
<svg version="1.1" id="Layer_1" xmlns="http://www.w3.org/2000/svg" xmlns:xlink="http://www.w3.org/1999/xlink" x="0px" y="0px"
	 viewBox="0 0 512.001 512.001" style="enable-background:new 0 0 512.001 512.001;" xml:space="preserve">
<path style="fill:#E17858;" d="M170.98,166.794C76.702,166.794,0,243.494,0,337.774c0,94.277,76.702,170.98,170.98,170.98
	s170.98-76.703,170.98-170.98C341.961,243.494,265.259,166.794,170.98,166.794z"/>
<path style="fill:#DD512A;" d="M170.98,166.794v341.961c94.279,0,170.98-76.703,170.98-170.98
	C341.961,243.494,265.259,166.794,170.98,166.794z"/>
<path style="fill:#78B86D;" d="M170.98,47.863c-12.317,0-22.302,9.985-22.302,22.302v118.931c0,12.315,9.985,22.302,22.302,22.302
	s22.302-9.987,22.302-22.302V70.165C193.282,57.847,183.297,47.863,170.98,47.863z"/>
<path style="fill:#A8DA64;" d="M189.952,60.074c-1.433-2.321-35.765-56.826-92.155-56.828c-45.1,0.003-84.443,47.552-88.78,52.974
	C3.192,63.5,2.511,73.633,7.308,81.626c1.357,2.263,33.909,55.432,90.489,55.432c55.909,0,90.313-50.745,91.751-52.906
	C194.376,76.895,194.534,67.49,189.952,60.074z"/>
<path style="fill:#F4D853;" d="M463.161,284.769c12.877-49.952,12.623-102.686-0.729-152.504c-1.014-3.782-3.005-7.227-5.773-9.997
	l-48.808-48.807c-6.172-6.173-15.381-8.177-23.561-5.126c-8.182,3.051-13.83,10.593-14.453,19.301
	c-4.3,59.959-47.996,138.232-114.039,204.274c-66.043,66.043-144.315,109.741-204.274,114.038
	c-8.708,0.624-16.254,6.273-19.301,14.455c-3.051,8.18-1.045,17.386,5.126,23.561l48.808,48.808
	c2.768,2.767,6.215,4.758,9.997,5.773c49.816,13.351,102.551,13.604,152.501,0.73c51.484-13.273,98.671-40.259,136.459-78.047
	C422.903,383.438,449.89,336.252,463.161,284.769z"/>
<path style="fill:#E9A440;" d="M463.161,284.769c12.877-49.952,12.623-102.686-0.729-152.504c-1.014-3.782-3.005-7.227-5.773-9.997
	l-17.076-17.074c-9.316,91.702-49.088,180.896-119.346,251.157c-70.261,70.26-159.453,110.033-251.155,119.347l17.074,17.074
	c2.768,2.767,6.215,4.758,9.997,5.773c49.816,13.351,102.551,13.604,152.501,0.73c51.484-13.273,98.671-40.259,136.459-78.047
	C422.903,383.438,449.89,336.252,463.161,284.769z"/>
<path style="fill:#DD512A;" d="M505.469,73.457l-48.808-48.81c-4.182-4.182-9.854-6.533-15.769-6.533s-11.588,2.349-15.77,6.533
	l-48.808,48.81c-8.71,8.708-8.71,22.828,0,31.539l48.808,48.808c4.182,4.182,9.854,6.534,15.77,6.534s11.588-2.351,15.769-6.534
	l48.808-48.808C514.178,96.286,514.178,82.166,505.469,73.457z"/>
<g>
</g>
<g>
</g>
<g>
</g>
<g>
</g>
<g>
</g>
<g>
</g>
<g>
</g>
<g>
</g>
<g>
</g>
<g>
</g>
<g>
</g>
<g>
</g>
<g>
</g>
<g>
</g>
<g>
</g>
</svg>
