<?xml version="1.0" encoding="UTF-8"?>
<!DOCTYPE svg PUBLIC "-//W3C//DTD SVG 1.1//EN" "http://www.w3.org/Graphics/SVG/1.1/DTD/svg11.dtd">
<!-- Creator: CorelDRAW X6 -->
<svg xmlns="http://www.w3.org/2000/svg" xml:space="preserve" width="8.50694in" height="11.0069in" version="1.1" style="shape-rendering:geometricPrecision; text-rendering:geometricPrecision; image-rendering:optimizeQuality; fill-rule:evenodd; clip-rule:evenodd"
viewBox="0 0 8507 11007"
 xmlns:xlink="http://www.w3.org/1999/xlink"
 enable-background="new 0 0 216 146">
 <defs>
  <style type="text/css">
   <![CDATA[
    .str0 {stroke:#E6E6E6;stroke-width:6.94488}
    .fil0 {fill:none}
    .fil1 {fill:#BDA26B}
    .fil2 {fill:#BDA26B;fill-rule:nonzero}
   ]]>
  </style>
 </defs>
 <g id="Layer_x0020_1">
  <metadata id="CorelCorpID_0Corel-Layer"/>
  <rect class="fil0 str0" x="3" y="3" width="8500" height="11000"/>
  <g id="_329697592">
   <path class="fil1" d="M6839 568c13,-19 19,-40 19,-62 0,-26 -10,-49 -29,-69 -19,-19 -42,-29 -69,-29l-67 0c12,-25 18,-50 18,-74 0,-30 -4,-54 -13,-71 -9,-18 -22,-31 -39,-39 -17,-8 -36,-12 -58,-12 -13,0 -25,5 -34,14 -11,11 -19,25 -24,41 -5,17 -9,33 -12,48 -3,15 -7,26 -14,33 -13,14 -26,30 -41,49 -26,33 -43,53 -53,59l-105 0c-14,0 -25,5 -35,14 -10,10 -14,21 -14,35l0 245c0,14 5,25 14,35 10,10 21,14 35,14l110 0c6,0 23,5 53,15 31,11 59,19 83,25 24,6 48,9 73,9l36 0 14 0c36,0 65,-10 87,-31 22,-21 33,-49 33,-84 15,-20 23,-42 23,-68 0,-6 0,-11 -1,-16 10,-17 15,-36 15,-55 0,-9 -1,-18 -3,-26zm-479 176c-5,5 -11,7 -17,7 -7,0 -12,-2 -17,-7 -5,-5 -7,-11 -7,-17 0,-7 2,-12 7,-17 5,-5 11,-7 17,-7 7,0 12,2 17,7 5,5 7,11 7,17 0,7 -2,12 -7,17zm441 -207c-5,12 -12,18 -21,18 4,4 7,10 10,18 3,8 4,15 4,21 0,18 -7,33 -20,46 5,8 7,17 7,26 0,9 -2,19 -7,28 -4,9 -11,16 -18,20 1,8 2,15 2,21 0,43 -25,64 -74,64l-46 0c-33,0 -77,-9 -131,-28 -1,-1 -5,-2 -11,-4 -6,-2 -11,-4 -14,-5 -3,-1 -7,-3 -13,-4 -6,-2 -11,-3 -15,-4 -4,-1 -8,-2 -13,-2 -5,-1 -9,-1 -12,-1l-12 0 0 -245 12 0c4,0 9,-1 14,-3 5,-2 10,-6 15,-10 5,-5 10,-9 15,-14 5,-4 10,-10 15,-17 6,-7 10,-12 13,-16 3,-4 7,-9 12,-16 5,-6 8,-10 9,-11 14,-17 24,-29 30,-35 10,-11 18,-25 23,-42 5,-17 9,-33 12,-48 3,-15 8,-26 15,-33 25,0 41,6 49,18 8,12 12,31 12,56 0,15 -6,36 -18,62 -12,26 -18,46 -18,61l135 0c13,0 24,5 34,15 10,10 15,21 15,34 0,9 -3,19 -8,31z"/>
  </g>
  <path class="fil1" d="M570 530l-151 -151c-3,-3 -4,-5 -4,-9 0,-3 1,-6 4,-9l19 -19c3,-3 5,-4 9,-4 3,0 6,1 9,4l179 179c3,3 4,5 4,9 0,3 -1,6 -4,9l-179 179c-3,3 -5,4 -9,4 -3,0 -6,-1 -9,-4l-19 -19c-3,-3 -4,-5 -4,-9 0,-3 1,-6 4,-9l151 -151z"/>
  <path class="fil1" d="M3770 1721l-180 -284 0 -143 23 0c6,0 12,-2 16,-7 5,-5 7,-10 7,-16 0,-6 -2,-12 -7,-16 -5,-5 -10,-7 -16,-7l-183 0c-6,0 -12,2 -16,7 -5,5 -7,10 -7,16 0,6 2,12 7,16 5,5 10,7 16,7l23 0 0 143 -180 284c-13,21 -16,39 -8,55 8,15 25,23 50,23l413 0c25,0 42,-8 50,-23 8,-15 6,-33 -8,-55zm-376 -106l97 -154 7 -11 0 -13 0 -143 46 0 0 143 0 13 7 11 97 154 -255 0z"/>
  <g id="_329694232">
   <path class="fil1" d="M2574 1620c0,6 -2,11 -6,15 -4,4 -9,6 -15,6l-107 0c-6,0 -11,-2 -15,-6 -4,-4 -6,-9 -6,-15l0 -54 -225 0 0 161c0,15 5,27 16,38 10,10 23,16 38,16l493 0c15,0 27,-5 38,-16 10,-10 16,-23 16,-38l0 -161 -225 0 0 54z"/>
   <rect class="fil1" x="2456" y="1566" width="86" height="43"/>
   <path class="fil1" d="M2783 1368c-10,-10 -23,-16 -38,-16l-118 0 0 -54c0,-9 -3,-17 -9,-23 -6,-6 -14,-9 -23,-9l-193 0c-9,0 -17,3 -23,9 -6,6 -9,14 -9,23l0 54 -118 0c-15,0 -27,5 -38,16 -10,10 -16,23 -16,38l0 129 600 0 0 -129c0,-15 -5,-27 -16,-38zm-199 -16l-171 0 0 -43 171 0 0 43z"/>
  </g>
  <path class="fil1" d="M4791 1456c-8,-8 -17,-12 -28,-12l0 0 0 -118c0,-11 -4,-20 -12,-28 -8,-8 -17,-12 -28,-12 -94,79 -186,118 -275,118l-147 0c-14,0 -25,5 -35,14 -10,10 -14,21 -14,35l0 59c0,14 5,25 14,35 10,10 21,14 35,14l37 0c-3,11 -6,22 -7,34 -1,12 -1,22 -1,30 0,9 2,19 5,31 3,12 5,21 7,27 2,6 5,16 10,29 5,13 8,22 9,27 9,9 23,14 41,17 18,3 35,2 52,-4 17,-5 28,-14 34,-25 -8,-6 -14,-11 -19,-16 -5,-4 -10,-9 -15,-15 -5,-6 -8,-12 -10,-17 -2,-5 -2,-11 -2,-18 1,-7 3,-13 7,-20 -8,-8 -12,-17 -12,-28 0,-11 3,-21 10,-31 7,-10 16,-16 28,-20 81,7 164,46 249,117 11,0 20,-4 28,-12 8,-8 12,-17 12,-28l0 -118c11,0 20,-4 28,-12 8,-8 12,-17 12,-28 0,-11 -4,-20 -12,-28zm-67 174c-80,-61 -159,-96 -236,-105l0 -83c77,-8 155,-43 236,-105l0 293z"/>
  <path class="fil1" d="M5816 539c-4,-9 -11,-16 -19,-20 -9,-5 -18,-7 -29,-7l-55 0 0 -46c0,-18 -6,-33 -19,-46 -13,-13 -28,-19 -46,-19l-157 0 0 -9c0,-18 -6,-33 -19,-46 -13,-13 -28,-19 -46,-19l-92 0c-18,0 -33,6 -46,19 -13,13 -19,28 -19,46l0 277c0,18 6,33 19,46 13,13 28,19 46,19l313 0c13,0 26,-3 40,-10 14,-7 25,-15 33,-25l85 -105c9,-11 13,-23 13,-35 0,-7 -1,-13 -4,-20zm-509 -147c0,-8 3,-14 8,-20 5,-5 12,-8 20,-8l92 0c8,0 14,3 20,8 5,5 8,12 8,20l0 18c0,8 3,14 8,20 5,5 12,8 20,8l166 0c8,0 14,3 20,8 5,5 8,12 8,20l0 46 -221 0c-13,0 -27,3 -40,10 -14,7 -25,15 -33,25l-74 91 0 -246zm471 178l-85 105c-5,6 -12,11 -20,15 -9,4 -17,6 -25,6l-313 0c-10,0 -15,-3 -15,-10 0,-3 2,-7 5,-12l85 -105c5,-6 12,-11 21,-15 9,-4 17,-6 25,-6l313 0c10,0 15,3 15,10 0,3 -2,7 -5,11z"/>
  <path class="fil1" d="M1389 415c-8,8 -18,12 -30,12 -12,0 -22,-4 -30,-12 -8,-8 -12,-18 -12,-30 0,-12 4,-22 12,-30 8,-8 18,-12 30,-12 12,0 22,4 30,12 8,8 12,18 12,30 0,12 -4,22 -12,30z"/>
  <path class="fil2" d="M1723 565l-237 -236 0 0c-3,-3 -6,-5 -10,-8 -4,-3 -9,-5 -15,-8 -6,-2 -11,-4 -16,-5 -4,-1 -8,-1 -12,-1l-138 0c-2,0 -4,0 -5,1 -1,1 -3,2 -5,4 -2,2 -3,3 -4,5 -1,1 -1,3 -1,5l0 138c0,4 0,8 1,12 1,5 3,10 5,16l0 0c2,6 5,10 7,15 2,4 5,7 8,10l0 0 237 237 0 0c2,2 3,3 4,3 1,1 3,1 6,1 4,0 8,-2 11,-5l162 -163c2,-2 3,-3 3,-5 1,-1 1,-3 1,-6 0,-2 0,-4 -1,-6 -1,-2 -2,-4 -4,-5zm-198 -276l237 237 1 1c7,7 12,14 15,23 3,8 5,17 5,27 0,9 -2,18 -5,27 -3,8 -9,16 -15,23l-163 163 -1 1c-14,13 -30,20 -49,20 -9,0 -18,-2 -27,-5 -9,-4 -16,-9 -23,-15l0 0 -237 -237c-6,-6 -11,-12 -16,-20 -4,-7 -8,-15 -12,-23l0 0c-3,-8 -6,-17 -8,-25 -2,-9 -3,-17 -3,-25l0 -138c0,-9 2,-18 5,-27 4,-8 9,-16 15,-23 7,-7 14,-12 23,-15 9,-4 18,-5 27,-5l138 0c8,0 16,1 25,3 8,2 16,4 25,8 9,4 16,8 23,12 7,5 14,10 20,15z"/>
  <path class="fil1" d="M7579 2381l141 -136 -110 -107 0 0 -5 -5 -2 -5 -1 -7 0 0c-2,-19 -4,-38 -6,-57 -2,-18 -5,-36 -8,-54 -20,-12 -40,-24 -62,-38 -23,-14 -46,-29 -69,-44l0 0 -6 -4 -4 -5 -2 -7 0 0 -20 -88 -1 7 -1 3 -87 134 172 177 2 3 6 13 1 4 0 155 66 64zm514 -1167l-45 154c8,6 17,11 25,17 7,5 14,10 21,15 14,-21 28,-41 44,-58 16,-19 33,-35 50,-48 19,-14 25,-9 44,4l0 0c15,10 27,27 36,48 9,21 14,47 16,74 2,24 1,51 -3,76 -3,22 -8,44 -16,64 41,51 75,106 101,169 26,64 44,136 52,218l2 25 1 13 -13 -2 -26 -4 -46 -8c12,64 18,127 17,188 0,65 -8,129 -25,190 -18,66 -46,128 -84,188 -39,59 -89,115 -152,168l-33 28 -17 14 0 -21 0 -42 0 -62 -267 257 -1 1 -7 6 -6 5 -6 -5 -7 -6 -1 -1 -267 -257 0 62 0 42 0 21 -17 -14 -33 -28c-63,-52 -113,-108 -152,-168 -39,-59 -67,-122 -84,-188 -17,-61 -25,-124 -25,-190 0,-61 6,-124 17,-188l-46 8 -26 4 -13 2 1 -13 2 -25c8,-82 25,-154 51,-218 25,-63 59,-118 100,-168 -7,-20 -13,-42 -16,-64 -4,-26 -4,-52 -3,-77 2,-27 7,-53 16,-74 9,-21 20,-37 36,-48l0 0c22,-15 26,-17 44,-4 17,13 34,29 50,48 15,18 30,38 44,59 7,-5 14,-10 22,-15 9,-6 17,-12 26,-18l-45 -153 0 0 -16 -56 166 109 50 -89 14 -25 7 -12 9 11 19 22 81 94 81 -94 19 -22 9 -11 7 12 14 25 50 88 165 -112 -15 59 0 0zm-63 213l-5 17 -4 14 -2 7 -8 0 -15 0 -468 0 -15 0 -8 0 -2 -7 -4 -14 -5 -17c-5,4 -10,7 -15,11 -6,5 -13,9 -19,14 10,19 20,38 30,58 10,20 19,41 27,61l3 -1c5,-2 9,-3 13,-5l11 -4 5 -2 4 4 9 7c16,13 31,25 47,35 16,10 32,19 49,26 34,14 69,21 104,21 35,0 70,-7 104,-21 17,-7 33,-16 49,-26 16,-10 32,-22 47,-35l9 -7 4 -4 5 2 11 4c4,1 8,3 12,4l2 1c8,-20 17,-40 27,-61 9,-19 19,-39 30,-57 -6,-5 -13,-9 -19,-14 -5,-3 -10,-7 -15,-10zm-57 -20l34 -116 -53 44 -19 16 -9 8 -6 -10 -12 -21 -47 -83 -76 87 -15 18 -8 9 -8 -9 -15 -18 -76 -87 -47 83 -12 21 -6 10 -9 -8 -19 -15 -53 -43 34 116 422 0zm-374 382l163 68 165 -69c9,-29 18,-58 29,-86 9,-25 19,-50 30,-74 -14,11 -28,20 -42,29 -17,10 -35,20 -53,27 -43,18 -85,27 -128,27 -43,0 -85,-9 -128,-27 -18,-7 -35,-17 -53,-27 -14,-9 -28,-18 -42,-29 11,25 21,50 30,74 10,28 20,57 29,87zm308 70l-139 59 -4 2 -4 -2 -141 -59c9,34 16,69 22,104 7,37 12,74 16,112l212 0c4,-37 10,-75 16,-112 6,-35 14,-70 22,-104zm-602 -352l1 -1 53 -50c2,-2 5,-4 7,-6 5,-4 10,-9 15,-13 -11,-18 -23,-34 -35,-49 -10,-12 -20,-23 -30,-33 -12,19 -16,46 -18,68 -2,28 0,57 6,84zm107 -18c-15,13 -30,26 -44,39 -17,16 -33,33 -48,50 -40,46 -74,97 -99,154 -24,54 -41,114 -51,181l49 -8 29 -5 15 -2 -3 14 -6 28c-15,70 -24,138 -24,204 -1,65 7,129 23,189 15,54 37,106 67,156 27,44 60,86 100,126l0 -65 0 -47 0 -23 17 16 34 33 290 280 290 -280 34 -33 17 -16 0 23 0 47 0 65c40,-40 74,-82 101,-126 30,-50 53,-102 67,-156l0 0c16,-60 24,-123 23,-189 -1,-66 -9,-134 -24,-204l-6 -28 -3 -14 15 2 29 5 49 8c-10,-68 -27,-127 -51,-181 -25,-57 -59,-108 -99,-154 -15,-17 -31,-34 -48,-50 -14,-13 -29,-27 -45,-40 -9,16 -17,33 -25,49 -9,19 -17,38 -25,56 2,1 5,3 7,4 6,3 11,6 15,9 15,9 30,20 45,32 15,12 30,26 44,41l7 7 3 4 -1 5 -2 9 -19 105 93 143 8 13 4 6 -5 5 -11 11 -179 185 0 156 0 8 0 4 -3 3 -6 6 -294 283 -7 7 -7 -6 -4 -3 0 0 -290 -280 -6 -6 -3 -3 0 -4 0 -8 0 -156 -179 -185 -11 -11 -5 -5 4 -6 8 -13 93 -143 -19 -105 -2 -9 -1 -5 3 -4 7 -7c14,-15 29,-29 44,-41 15,-12 30,-23 45,-32 5,-3 9,-6 14,-8 2,-1 4,-2 7,-4 -7,-18 -16,-37 -25,-56 -8,-16 -16,-33 -25,-49zm729 -52c5,4 10,8 15,13 2,2 4,3 6,5l55 51c6,-27 7,-55 5,-83 -1,-18 -4,-34 -9,-48 -3,-8 -5,-14 -9,-20 -10,10 -20,21 -30,33 -12,15 -23,31 -35,49zm-499 966c15,3 30,6 45,8 22,3 43,4 66,4 23,0 46,-1 70,-4 19,-2 38,-5 57,-9l-119 -115 -120 116zm216 63c-13,2 -25,4 -38,5 -23,2 -45,3 -67,3 -21,0 -41,-1 -61,-3 -9,-1 -17,-2 -26,-3l95 91 96 -93zm-286 -534c-2,-8 -3,-16 -5,-25 -4,-15 -7,-31 -11,-46 -2,-6 -3,-11 -4,-15 -1,-2 -2,-6 -3,-11 -13,-7 -26,-13 -39,-18 -10,-4 -19,-8 -29,-11l19 80c15,10 30,20 45,29 10,6 19,12 28,17zm-46 -172c-6,-17 -12,-34 -18,-51 -7,-20 -15,-39 -24,-59l-1 0c-3,2 -6,4 -10,6 -12,7 -24,16 -36,25 -11,8 -21,18 -32,28l3 17c11,2 22,4 34,7l0 0c14,3 28,7 43,12 10,3 20,7 30,11 3,1 7,3 10,4zm309 374l-145 0 72 70 72 -70zm-30 111l140 136 66 -63 0 -155 1 -4 6 -13 2 -3 172 -177 -87 -134 -1 -3 -1 -4 -20 85 0 1 -2 8 -4 5 -6 4 0 0c-23,15 -46,30 -69,44 -23,14 -43,26 -63,38 -3,17 -5,35 -7,53 -2,19 -4,38 -6,58l0 1 -1 8 -3 6 -4 4 -110 107zm236 -595c-8,20 -16,39 -24,59 -6,17 -13,34 -18,51 4,-1 7,-3 11,-4 11,-4 21,-8 31,-11 14,-5 29,-8 42,-12 11,-3 22,-5 33,-7l3 -17c-10,-10 -21,-20 -32,-28 -12,-9 -23,-17 -35,-25 -4,-2 -7,-4 -10,-6l-1 0zm4 156c-10,3 -20,7 -30,11 -14,6 -27,12 -40,19 -2,8 -5,17 -7,25 -4,15 -8,31 -11,46 -2,8 -4,17 -5,25 10,-6 19,-12 29,-18 15,-9 30,-19 46,-29l19 -80z"/>
  <path class="fil1" d="M1767 1324c-8,-8 -18,-13 -30,-13l-42 0 0 -32c0,-15 -5,-27 -16,-37 -10,-10 -23,-16 -37,-16l-21 0c-15,0 -27,5 -37,16 -10,10 -16,23 -16,37l0 32 -127 0 0 -32c0,-15 -5,-27 -16,-37 -10,-10 -23,-16 -37,-16l-21 0c-15,0 -27,5 -37,16 -10,10 -16,23 -16,37l0 32 -42 0c-11,0 -21,4 -30,13 -8,8 -13,18 -13,30l0 423c0,11 4,21 13,30 8,8 18,13 30,13l465 0c11,0 21,-4 30,-13 8,-8 13,-18 13,-30l0 -423c0,-11 -4,-21 -13,-30zm-157 -44c0,-3 1,-6 3,-8 2,-2 5,-3 8,-3l21 0c3,0 6,1 8,3 2,2 3,5 3,8l0 95c0,3 -1,6 -3,8 -2,2 -5,3 -8,3l-21 0c-3,0 -6,-1 -8,-3 -2,-2 -3,-5 -3,-8l0 -95zm-254 0c0,-3 1,-6 3,-8 2,-2 5,-3 8,-3l21 0c3,0 6,1 8,3 2,2 3,5 3,8l0 95c0,3 -1,6 -3,8 -2,2 -5,3 -8,3l-21 0c-3,0 -6,-1 -8,-3 -2,-2 -3,-5 -3,-8l0 -95zm381 497l-465 0 0 -338 465 0 0 338z"/>
  <path class="fil1" d="M3783 331c-8,-8 -18,-13 -30,-13l-42 0 0 -32c0,-15 -5,-27 -16,-37 -10,-10 -23,-16 -37,-16l-21 0c-15,0 -27,5 -37,16 -10,10 -16,23 -16,37l0 32 -127 0 0 -32c0,-15 -5,-27 -16,-37 -10,-10 -23,-16 -37,-16l-21 0c-15,0 -27,5 -37,16 -10,10 -16,23 -16,37l0 32 -42 0c-11,0 -21,4 -30,13 -8,8 -13,18 -13,30l0 423c0,11 4,21 13,30 8,8 18,13 30,13l465 0c11,0 21,-4 30,-13 8,-8 13,-18 13,-30l0 -423c0,-11 -4,-21 -13,-30zm-157 -44c0,-3 1,-6 3,-8 2,-2 5,-3 8,-3l21 0c3,0 6,1 8,3 2,2 3,5 3,8l0 95c0,3 -1,6 -3,8 -2,2 -5,3 -8,3l-21 0c-3,0 -6,-1 -8,-3 -2,-2 -3,-5 -3,-8l0 -95zm-254 0c0,-3 1,-6 3,-8 2,-2 5,-3 8,-3l21 0c3,0 6,1 8,3 2,2 3,5 3,8l0 95c0,3 -1,6 -3,8 -2,2 -5,3 -8,3l-21 0c-3,0 -6,-1 -8,-3 -2,-2 -3,-5 -3,-8l0 -95zm381 497l-465 0 0 -338 465 0 0 338z"/>
  <path class="fil2" d="M2200 589l0 -228c0,-28 11,-53 29,-71 18,-18 43,-29 71,-29l398 0c28,0 53,11 71,29 18,18 29,43 29,71l0 228c0,28 -11,53 -29,71 -18,18 -43,29 -71,29l-233 0 -157 106c-11,7 -26,5 -34,-7 -5,-7 -5,-16 -2,-24l27 -76c-27,0 -52,-11 -70,-29 -18,-18 -29,-43 -29,-71zm49 -228l0 228c0,14 6,27 15,37 9,9 22,15 37,15l34 0 0 0c3,0 5,0 8,1 13,5 19,18 15,31l-15 41 101 -68c4,-3 9,-5 15,-5l240 0c14,0 27,-6 37,-15 9,-9 15,-22 15,-37l0 -228c0,-14 -6,-27 -15,-37 -9,-9 -22,-15 -37,-15l-398 0c-14,0 -27,6 -37,15 -9,9 -15,22 -15,37z"/>
  <path class="fil1" d="M618 1651c-25,25 -55,38 -91,38 -35,0 -66,-13 -91,-38 -25,-25 -38,-55 -38,-91 0,-35 13,-66 38,-91 25,-25 55,-38 91,-38 35,0 66,13 91,38 25,25 38,55 38,91 0,35 -13,66 -38,91zm146 -254l0 0c-5,-5 -10,-8 -16,-11l0 0c-6,-2 -12,-3 -19,-3l-64 0 -17 0 -6 -16 -15 -39 0 0c-1,-2 -2,-4 -4,-6 -2,-2 -4,-4 -7,-7 -3,-2 -6,-4 -9,-4 -2,-1 -5,-1 -7,-1l-147 0c-2,0 -5,0 -7,1 -3,1 -6,2 -9,4 -3,2 -6,4 -7,7 -2,2 -3,4 -4,6l0 0 -15 39 -6 16 -17 0 -64 0c-14,0 -25,5 -35,14 -5,5 -9,10 -11,16l0 0c-2,6 -3,12 -3,19l0 257c0,14 5,25 14,35l0 0c5,5 10,9 16,11l0 0c6,2 12,3 19,3l403 0c14,0 25,-5 35,-14l0 0c10,-10 14,-21 14,-35l0 -257c0,-7 -1,-13 -3,-19l0 0c-2,-6 -6,-11 -11,-16zm3 -56c12,5 22,12 31,21l0 0c9,9 17,20 21,31l0 0c5,12 7,24 7,37l0 257c0,27 -10,50 -29,69l0 0c-19,19 -42,29 -69,29l-403 0c-13,0 -26,-2 -37,-7l0 0c-12,-5 -22,-12 -32,-21l0 0c-19,-19 -29,-42 -29,-69l0 -257c0,-13 2,-26 7,-37l0 0c5,-12 12,-22 21,-32 19,-19 42,-29 69,-29l47 0 9 -23 0 0c3,-7 7,-14 12,-20 5,-6 10,-11 17,-16 7,-5 14,-8 21,-11 8,-3 15,-4 23,-4l147 0c8,0 15,1 23,4 7,2 14,6 21,11 7,5 12,10 17,16 5,6 9,13 12,20l0 0 9 23 47 0c13,0 26,2 37,7l0 0zm-239 136c-23,0 -42,8 -58,24 -16,16 -24,36 -24,58 0,23 8,42 24,58 16,16 36,24 58,24 23,0 42,-8 58,-24 16,-16 24,-36 24,-58 0,-23 -8,-42 -24,-58 -16,-16 -36,-24 -58,-24z"/>
  <path class="fil1" d="M4718 325c18,7 34,16 48,29 13,13 23,29 30,47 7,18 10,38 10,61 0,23 -6,47 -18,70 -12,23 -30,47 -53,71l0 0 -191 184 0 0c-4,4 -10,7 -16,7 -3,0 -6,-1 -9,-2 -3,-1 -5,-3 -7,-5l0 0 -191 -185c-1,-1 -2,-2 -4,-3 -1,-1 -3,-3 -5,-5 -2,-2 -4,-5 -7,-8 -3,-3 -6,-7 -10,-12 -4,-5 -8,-10 -11,-15l0 0c-4,-5 -7,-10 -10,-15 -3,-5 -6,-11 -9,-17 -3,-6 -5,-13 -8,-20 -2,-7 -4,-15 -6,-22 -1,-7 -2,-14 -2,-21 0,-23 3,-43 10,-61 7,-18 17,-34 30,-47 13,-13 29,-23 48,-29 18,-6 39,-10 62,-10 7,0 13,1 20,2 7,1 13,3 20,5 7,2 13,5 20,8 6,3 12,6 18,10 6,4 11,7 16,11l0 0c5,3 9,7 14,10 7,6 14,12 21,19 3,-3 6,-6 9,-8 4,-3 8,-7 12,-10l0 0c4,-3 9,-7 14,-10 5,-3 10,-7 16,-11 6,-4 12,-7 18,-10 6,-3 13,-6 20,-8 7,-2 14,-4 20,-5 7,-1 13,-2 20,-2 23,0 44,3 62,10zm-191 413l176 -169 0 0c19,-19 33,-37 43,-55 9,-18 14,-35 14,-51l0 0c0,-8 -1,-16 -2,-23l0 0c-1,-7 -3,-14 -5,-20 -2,-6 -5,-12 -7,-17 -3,-5 -6,-9 -9,-12 -3,-4 -7,-7 -11,-10l0 0c-4,-3 -8,-6 -13,-8 -5,-2 -9,-4 -14,-6 -5,-2 -9,-3 -14,-3 -5,-1 -9,-1 -14,-2 -5,0 -10,-1 -15,-1 -5,0 -10,1 -16,2 -6,1 -11,3 -17,6 -6,3 -12,5 -17,9 -6,3 -11,7 -16,11 -5,4 -10,8 -14,11 -4,4 -8,7 -12,11 -4,3 -7,7 -10,10 -3,3 -6,6 -8,9 -2,3 -5,5 -8,6 -3,1 -6,2 -10,2 -4,0 -7,-1 -10,-2 -3,-1 -6,-3 -8,-6l0 0c-2,-3 -5,-6 -8,-9 -3,-3 -6,-6 -10,-10 -4,-3 -8,-7 -12,-11 -4,-4 -9,-7 -14,-11 -5,-4 -10,-7 -16,-11 -6,-3 -11,-6 -17,-9 -6,-3 -12,-4 -17,-6 -5,-1 -11,-2 -16,-2 -5,0 -10,0 -15,1 -5,0 -10,1 -14,2 -5,1 -9,2 -14,3 -5,2 -9,3 -14,6 -5,2 -9,5 -13,8 -4,3 -8,6 -11,10 -3,4 -6,8 -9,12 -3,5 -5,10 -7,17 -2,6 -4,13 -5,20l0 0c-1,7 -2,15 -2,23 0,17 5,34 14,51 9,18 24,36 42,55l0 0 176 170z"/>
  <path class="fil2" d="M7797 476c-25,85 -43,147 -59,200l-4 12 -2 6 -6 0 -13 0 -406 0 -13 0 -6 0 -2 -6 -4 -12c-11,-37 -36,-122 -59,-199l0 0 -14 -48 144 94 44 -77 12 -21 6 -11 8 9 17 19 71 81 71 -81 17 -19 8 -9 6 11 12 21 43 77 143 -97 -13 51 0 0 0 0zm-104 167l30 -101 -46 38 -16 14 -8 7 -5 -9 -10 -18 -41 -72 -66 76 -13 15 -7 8 -7 -8 -13 -15 -66 -76 -41 72 -10 18 -5 9 -8 -7 -16 -13 -46 -38 30 100 366 0 0 0z"/>
 </g>
</svg>
