<?xml version="1.0" encoding="iso-8859-1"?>
<!-- Generator: Adobe Illustrator 18.0.0, SVG Export Plug-In . SVG Version: 6.00 Build 0)  -->
<!DOCTYPE svg PUBLIC "-//W3C//DTD SVG 1.1//EN" "http://www.w3.org/Graphics/SVG/1.1/DTD/svg11.dtd">
<svg version="1.1" id="Capa_1" xmlns="http://www.w3.org/2000/svg" xmlns:xlink="http://www.w3.org/1999/xlink" x="0px" y="0px"
	 viewBox="0 0 48 48" style="enable-background:new 0 0 48 48;" xml:space="preserve">
<g>
	<path d="M37.127,9.41c-1.332-0.613-1.932-0.948-2.086-1.597c0.024-0.009,0.046-0.023,0.07-0.032
		c0.053-0.021,0.103-0.047,0.154-0.071c0.112-0.052,0.219-0.11,0.323-0.175c0.05-0.032,0.1-0.063,0.148-0.097
		c0.109-0.078,0.211-0.163,0.308-0.254c0.031-0.029,0.064-0.054,0.093-0.084c0.121-0.123,0.232-0.257,0.33-0.4
		c0.025-0.036,0.044-0.075,0.067-0.111c0.071-0.113,0.135-0.229,0.191-0.351c0.024-0.054,0.046-0.108,0.067-0.164
		c0.045-0.117,0.082-0.238,0.113-0.362c0.013-0.054,0.029-0.107,0.039-0.162C36.978,5.371,37,5.188,37,5V3c0-1.654-1.346-3-3-3H13
		c-1.654,0-3,1.346-3,3v2c0,0.205,0.021,0.404,0.06,0.597c0.014,0.07,0.043,0.135,0.062,0.203c0.033,0.12,0.063,0.241,0.11,0.354
		c0.032,0.077,0.078,0.146,0.117,0.22c0.05,0.096,0.095,0.195,0.155,0.285c0.049,0.074,0.11,0.137,0.166,0.207
		c0.064,0.079,0.123,0.163,0.194,0.235c0.063,0.064,0.135,0.116,0.204,0.174c0.077,0.065,0.149,0.134,0.232,0.192
		c0.074,0.051,0.156,0.09,0.234,0.134c0.088,0.05,0.173,0.104,0.267,0.145c0.083,0.036,0.172,0.059,0.259,0.088
		c0.098,0.032,0.193,0.069,0.294,0.092c0.092,0.02,0.187,0.026,0.282,0.037c0.088,0.011,0.173,0.032,0.263,0.035
		c-0.221,0.533-0.827,0.86-2.026,1.412C8.816,10.355,6,11.651,6,16.423v22.193c0,0.104,0.012,0.204,0.016,0.307
		C6.013,38.95,6,38.973,6,39c0,0.046,0.02,0.085,0.026,0.129C6.295,44.064,10.383,48,15.384,48h17.232
		c5.001,0,9.089-3.936,9.358-8.871C41.98,39.085,42,39.046,42,39c0-0.027-0.013-0.05-0.016-0.077C41.988,38.82,42,38.72,42,38.616
		V16.423C42,11.651,39.184,10.355,37.127,9.41z M8,38V19h32v19H8z M12,3c0-0.552,0.448-1,1-1h21c0.552,0,1,0.448,1,1v2
		c0,0.552-0.448,1-1,1h-1H15h-2c-0.552,0-1-0.448-1-1V3z M11.709,11.227C13.11,10.582,14.668,9.846,14.943,8h18.114
		c0.275,1.846,1.833,2.582,3.234,3.227C38.198,12.104,40,12.933,40,16.423V17H8v-0.577C8,12.933,9.802,12.104,11.709,11.227z
		 M32.616,46H15.384c-3.598,0-6.599-2.588-7.249-6h31.731C39.215,43.412,36.214,46,32.616,46z"/>
	<path d="M19.5,23c0.553,0,1-0.447,1-1s-0.447-1-1-1c-4.136,0-7.5,3.364-7.5,7.5s3.364,7.5,7.5,7.5c0.553,0,1-0.447,1-1
		s-0.447-1-1-1c-3.032,0-5.5-2.468-5.5-5.5S16.468,23,19.5,23z"/>
	<path d="M28.5,21c-0.553,0-1,0.447-1,1s0.447,1,1,1c3.032,0,5.5,2.468,5.5,5.5S31.532,34,28.5,34c-0.553,0-1,0.447-1,1s0.447,1,1,1
		c4.136,0,7.5-3.364,7.5-7.5S32.636,21,28.5,21z"/>
</g>
<g>
</g>
<g>
</g>
<g>
</g>
<g>
</g>
<g>
</g>
<g>
</g>
<g>
</g>
<g>
</g>
<g>
</g>
<g>
</g>
<g>
</g>
<g>
</g>
<g>
</g>
<g>
</g>
<g>
</g>
</svg>
