<svg height="511pt" viewBox="0 1 511.99981 511" width="511pt" xmlns="http://www.w3.org/2000/svg"><path d="m506.8125 111.230469-199.40625-109.496094c-2.996094-1.6445312-6.628906-1.6445312-9.625 0l-75.160156 41.269531c-1.585938.417969-3.066406 1.214844-4.292969 2.359375l-119.949219 65.867188c-3.199218 1.753906-5.1875 5.113281-5.1875 8.765625v132.429687c-20.234375 6.328125-38.777344 17.488281-54.195312 32.910157-40.1875 40.183593-50.433594 101.472656-25.496094 152.507812 2.421875 4.960938 8.410156 7.019531 13.371094 4.59375 4.964844-2.425781 7.019531-8.414062 4.597656-13.375-21.1875-43.363281-12.480469-95.4375 21.667969-129.585938 21.355469-21.355468 49.746093-33.117187 79.945312-33.117187s58.589844 11.761719 79.945313 33.117187c21.351562 21.351563 33.113281 49.742188 33.113281 79.941407s-11.761719 58.589843-33.117187 79.945312c-34.148438 34.148438-86.222657 42.855469-129.585938 21.667969-4.960938-2.425781-10.949219-.367188-13.371094 4.59375-2.425781 4.964844-.371094 10.953125 4.59375 13.375 18.589844 9.085938 38.535156 13.5 58.335938 13.5 34.542968-.003906 68.625-13.449219 94.171875-38.996094 11.714843-11.714844 20.972656-25.230468 27.523437-39.921875l43.089844 23.660157c1.5.824218 3.15625 1.234374 4.8125 1.234374s3.316406-.410156 4.8125-1.234374l199.40625-109.492188c3.199219-1.757812 5.1875-5.117188 5.1875-8.765625v-69.496094c0-5.523437-4.476562-10-10-10s-10 4.476563-10 10v63.578125l-179.375 98.496094v-196.171875l59.199219-32.507813v51.53125c0 3.539063 1.867187 6.8125 4.910156 8.609376 1.570313.925781 3.328125 1.390624 5.089844 1.390624 1.65625 0 3.316406-.410156 4.820312-1.238281l42.730469-23.519531c3.195312-1.757812 5.175781-5.113281 5.175781-8.757812v-62.460938l57.449219-31.542969v52.597657c0 5.523437 4.476562 10 10 10s10-4.476563 10-10v-69.496094c0-3.648438-1.988281-7.011719-5.1875-8.765625zm-204.21875-89.324219 178.628906 98.089844-56.347656 30.941406-178.628906-98.089844zm0 196.175781-178.628906-98.085937 58.414062-32.078125 178.632813 98.085937zm79.191406-43.484375-178.628906-98.085937 22.3125-12.253907 178.632812 98.085938zm-154.617187 110.738282c-25.132813-25.132813-58.546875-38.972657-94.085938-38.972657-6.722656 0-13.363281.496094-19.890625 1.46875v-110.9375l179.4375 98.53125v196.171875l-31.144531-17.101562c3.066406-11.289063 4.652344-23.0625 4.652344-35.078125 0-35.539063-13.839844-68.953125-38.96875-94.082031zm187.386719-60.347657-22.730469 12.511719v-45.597656l22.730469-12.480469zm0 0"/><path d="m502 219.441406c-2.628906 0-5.210938 1.070313-7.070312 2.929688-1.859376 1.859375-2.929688 4.4375-2.929688 7.070312 0 2.628906 1.070312 5.207032 2.929688 7.066406 1.859374 1.863282 4.441406 2.929688 7.070312 2.929688s5.210938-1.066406 7.070312-2.929688c1.859376-1.859374 2.929688-4.4375 2.929688-7.066406 0-2.632812-1.070312-5.210937-2.929688-7.070312-1.859374-1.859375-4.441406-2.929688-7.070312-2.929688zm0 0"/><path d="m99.457031 389.417969c2.558594 0 5.121094-.976563 7.070313-2.925781 3.90625-3.90625 3.90625-10.238282 0-14.144532l-6.925782-6.929687h59.101563c14.335937 0 26 11.664062 26 26 0 14.335937-11.664063 26-26 26h-35.019531c-5.523438 0-10 4.476562-10 10 0 5.519531 4.476562 9.996093 10 9.996093h35.019531c25.363281 0 46-20.632812 46-45.996093s-20.636719-45.996094-46-45.996094h-59.101563l6.925782-6.929687c3.90625-3.90625 3.90625-10.238282 0-14.144532-3.902344-3.902344-10.234375-3.902344-14.140625 0l-24 24c-3.902344 3.90625-3.902344 10.238282 0 14.144532l24 23.996093c1.953125 1.953125 4.511719 2.929688 7.070312 2.929688zm0 0"/><path d="m46.074219 476.449219c-2.84375 0-5.667969-1.210938-7.640625-3.558594l-.019532-.023437c-3.554687-4.226563-3.007812-10.53125 1.21875-14.085938 4.226563-3.558594 10.535157-3.011719 14.089844 1.214844 3.550782 4.230468 3.015625 10.546875-1.210937 14.101562-1.878907 1.578125-4.164063 2.351563-6.4375 2.351563zm0 0"/></svg>