<svg xmlns="http://www.w3.org/2000/svg" version="1.1" xmlns:xlink="http://www.w3.org/1999/xlink" xmlns:svgjs="http://svgjs.com/svgjs" width="512" height="512" x="0" y="0" viewBox="0 0 512 512" style="enable-background:new 0 0 512 512" xml:space="preserve" class=""><g><path xmlns="http://www.w3.org/2000/svg" d="m467.823 122.616h-64.912c-11.057 0-21.029-6.128-26.027-15.991l-13.294-26.24c-7.566-14.935-22.666-24.212-39.407-24.212h-136.955c-16.933 0-32.11 9.432-39.609 24.614l-12.629 25.571c-4.574 9.262-13.477 15.272-23.622 16.138v-14.023c0-7.845-6.382-14.228-14.228-14.228h-41.165c-7.845 0-14.228 6.383-14.228 14.228v14.213c-23.233 1.266-41.747 20.564-41.747 44.108v244.855c0 24.359 19.817 44.178 44.177 44.178h14.536c4.142 0 7.5-3.357 7.5-7.5s-3.358-7.5-7.5-7.5h-14.536c-16.088 0-29.177-13.089-29.177-29.178v-244.855c0-16.089 13.089-29.178 29.177-29.178h64.653c16.934 0 32.111-9.432 39.609-24.615l12.629-25.571c4.952-10.027 14.976-16.257 26.16-16.257h136.956c11.057 0 21.029 6.127 26.026 15.991l13.294 26.24c7.567 14.935 22.667 24.212 39.408 24.212h64.912c16.088 0 29.177 13.089 29.177 29.178v244.855c0 16.089-13.089 29.178-29.177 29.178h-377.612c-4.142 0-7.5 3.357-7.5 7.5s3.358 7.5 7.5 7.5h377.611c24.359 0 44.177-19.818 44.177-44.178v-244.855c0-24.359-19.817-44.178-44.177-44.178zm-411.076 0v-13.371h39.621v13.371z" fill="#ffffff" data-original="#000000" style="" class=""></path><path xmlns="http://www.w3.org/2000/svg" d="m128.646 283.822c0 70.227 57.131 127.36 127.354 127.36s127.354-57.134 127.354-127.36-57.13-127.359-127.354-127.359-127.354 57.133-127.354 127.359zm127.354-112.359c61.953 0 112.354 50.404 112.354 112.359 0 61.956-50.402 112.36-112.354 112.36s-112.354-50.404-112.354-112.36c0-61.955 50.401-112.359 112.354-112.359z" fill="#ffffff" data-original="#000000" style="" class=""></path><path xmlns="http://www.w3.org/2000/svg" d="m256 376.077c50.867 0 92.25-41.386 92.25-92.255 0-12.806-2.577-25.206-7.658-36.856-1.657-3.797-6.077-5.532-9.873-3.875-3.797 1.655-5.532 6.076-3.876 9.873 4.251 9.746 6.407 20.129 6.407 30.858 0 42.599-34.654 77.255-77.25 77.255s-77.25-34.656-77.25-77.255c0-42.598 34.654-77.254 77.25-77.254 20 0 38.968 7.614 53.41 21.44 2.992 2.862 7.74 2.761 10.604-.231 2.865-2.992 2.761-7.74-.231-10.604-17.248-16.511-39.9-25.604-63.783-25.604-50.867 0-92.25 41.385-92.25 92.254s41.383 92.254 92.25 92.254z" fill="#ffffff" data-original="#000000" style="" class=""></path><path xmlns="http://www.w3.org/2000/svg" d="m59.584 156.463c-13.495 0-24.473 10.979-24.473 24.474s10.979 24.475 24.473 24.475 24.474-10.979 24.474-24.475-10.979-24.474-24.474-24.474zm0 33.948c-5.224 0-9.473-4.25-9.473-9.475 0-5.224 4.25-9.474 9.473-9.474s9.474 4.25 9.474 9.474c0 5.225-4.25 9.475-9.474 9.475z" fill="#ffffff" data-original="#000000" style="" class=""></path><path xmlns="http://www.w3.org/2000/svg" d="m293.156 109.245c4.142 0 7.5-3.357 7.5-7.5s-3.358-7.5-7.5-7.5h-74.313c-4.142 0-7.5 3.357-7.5 7.5s3.358 7.5 7.5 7.5z" fill="#ffffff" data-original="#000000" style="" class=""></path><path xmlns="http://www.w3.org/2000/svg" d="m461.782 178.9c4.142 0 7.5-3.357 7.5-7.5s-3.358-7.5-7.5-7.5h-11.8c-4.142 0-7.5 3.357-7.5 7.5s3.358 7.5 7.5 7.5z" fill="#ffffff" data-original="#000000" style="" class=""></path></g></svg>