<svg xmlns="http://www.w3.org/2000/svg" version="1.1" xmlns:xlink="http://www.w3.org/1999/xlink" xmlns:svgjs="http://svgjs.com/svgjs" width="512" height="512" x="0" y="0" viewBox="0 0 511.999 511.999" style="enable-background:new 0 0 512 512" xml:space="preserve" class=""><g>
<g xmlns="http://www.w3.org/2000/svg">
	<g>
		<path d="M424.338,144.29h-19.049l-31.991-76.779c-4.915-11.794-16.346-19.414-29.121-19.414h-64.646V23.532    C279.531,10.557,268.975,0,255.999,0c-12.976,0-23.532,10.557-23.532,23.532v24.564h-64.646c-12.775,0-24.206,7.62-29.121,19.414    l-31.991,76.78H87.66c-21.816,0-39.564,17.749-39.564,39.564v288.581c0,21.815,17.748,39.564,39.564,39.564h336.678    c21.816,0,39.564-17.749,39.564-39.564V183.854C463.902,162.039,446.154,144.29,424.338,144.29z M344.176,63.097    c6.702,0,12.698,3.997,15.276,10.183l29.587,71.01h-15.815l-33.831-81.193H344.176z M279.531,63.097h37.925    c3.455,0,6.547,2.061,7.876,5.251l31.643,75.942h-55.039l-5.079-20.311c-1.729-6.92-7.919-11.754-15.053-11.754h-2.273V63.097z     M247.467,23.532c0-4.705,3.827-8.532,8.532-8.532c4.705,0,8.532,3.827,8.532,8.532v88.693h-17.064V23.532z M281.805,127.226    c0.237,0,0.442,0.16,0.5,0.392l4.169,16.673h-60.949l4.169-16.674c0.058-0.23,0.263-0.391,0.5-0.391H281.805z M194.542,63.098    h37.925v49.128h-2.273c-7.134,0-13.323,4.834-15.053,11.753l-5.079,20.312h-55.039l31.643-75.942    C187.995,65.159,191.087,63.098,194.542,63.098z M152.546,73.28c2.578-6.187,8.574-10.184,15.275-10.184h4.783l-33.831,81.193    h-15.814L152.546,73.28z M448.902,384.775h-24.564c-4.143,0-7.5,3.357-7.5,7.5s3.357,7.5,7.5,7.5h24.564v72.661    c0,13.544-11.019,24.564-24.564,24.564H87.66c-13.545,0-24.564-11.02-24.564-24.564v-72.661h329.174c4.143,0,7.5-3.357,7.5-7.5    s-3.357-7.5-7.5-7.5H63.096v-200.92c0-13.545,11.02-24.564,24.564-24.564h336.678c13.545,0,24.564,11.02,24.564,24.564V384.775z" fill="#ffffff" data-original="#000000" style="" class=""></path>
	</g>
</g>
<g xmlns="http://www.w3.org/2000/svg">
	<g>
		<path d="M255.999,256.517c-12.976,0-23.532,10.557-23.532,23.532v32.064c0,12.976,10.557,23.532,23.532,23.532    c12.975,0,23.532-10.557,23.532-23.532v-32.064C279.531,267.073,268.975,256.517,255.999,256.517z M264.531,312.114    c0,4.704-3.827,8.532-8.532,8.532c-4.705,0-8.532-3.827-8.532-8.532v-10.14c2.647,1.034,5.523,1.608,8.532,1.608    c3.009,0,5.885-0.574,8.532-1.608V312.114z M255.999,288.581c-4.705,0-8.532-3.827-8.532-8.532s3.827-8.532,8.532-8.532    c4.705,0,8.532,3.827,8.532,8.532S260.704,288.581,255.999,288.581z" fill="#ffffff" data-original="#000000" style="" class=""></path>
	</g>
</g>
<g xmlns="http://www.w3.org/2000/svg">
	<g>
		<path d="M255.999,192.387c-12.976,0-23.532,10.557-23.532,23.532c0,12.975,10.557,23.532,23.532,23.532    c12.975,0,23.532-10.557,23.532-23.532C279.531,202.944,268.975,192.387,255.999,192.387z M255.999,224.451    c-4.705,0-8.532-3.827-8.532-8.532s3.827-8.532,8.532-8.532c4.705,0,8.532,3.827,8.532,8.532S260.704,224.451,255.999,224.451z" fill="#ffffff" data-original="#000000" style="" class=""></path>
	</g>
</g>
<g xmlns="http://www.w3.org/2000/svg">
	<g>
		<path d="M183.853,208.419h-24.564v-8.532c0-4.143-3.357-7.5-7.5-7.5s-7.5,3.357-7.5,7.5v8.532h-24.564    c-12.976,0-23.532,10.557-23.532,23.532v64.13c0,12.976,10.557,23.532,23.532,23.532h64.129c12.976,0,23.532-10.557,23.532-23.532    v-64.13C207.386,218.976,196.829,208.419,183.853,208.419z M183.854,304.613h-64.129c-4.705,0-8.532-3.827-8.532-8.532v-64.13    c0-4.705,3.827-8.532,8.532-8.532h24.564v9.957c-13.786,3.375-24.048,15.829-24.048,30.641c0,17.396,14.152,31.548,31.548,31.548    s31.549-14.152,31.549-31.548c0-4.143-3.357-7.5-7.5-7.5s-7.5,3.357-7.5,7.5c0,9.125-7.424,16.548-16.549,16.548    s-16.548-7.423-16.548-16.548s7.423-16.549,16.548-16.549c4.143,0,7.5-3.357,7.5-7.5v-16.549h24.564    c4.705,0,8.532,3.827,8.532,8.532v64.13h0.001C192.386,300.786,188.559,304.613,183.854,304.613z" fill="#ffffff" data-original="#000000" style="" class=""></path>
	</g>
</g>
<g xmlns="http://www.w3.org/2000/svg">
	<g>
		<path d="M392.273,208.419h-24.564v-8.532c0-4.143-3.357-7.5-7.5-7.5s-7.5,3.357-7.5,7.5v8.532h-24.564    c-12.976,0-23.532,10.557-23.532,23.532v64.13c0,12.976,10.557,23.532,23.532,23.532h64.129c12.976,0,23.532-10.557,23.532-23.532    v-64.13C415.806,218.976,405.249,208.419,392.273,208.419z M392.274,304.613h-64.129c-4.705,0-8.532-3.827-8.532-8.532v-64.13    c0-4.705,3.827-8.532,8.532-8.532h24.564v9.957c-13.786,3.375-24.049,15.829-24.049,30.641c0,17.396,14.152,31.548,31.549,31.548    c17.396,0,31.548-14.152,31.548-31.548c0-4.143-3.357-7.5-7.5-7.5s-7.5,3.357-7.5,7.5c0,9.125-7.423,16.548-16.548,16.548    s-16.549-7.423-16.549-16.548s7.424-16.549,16.549-16.549c4.143,0,7.5-3.357,7.5-7.5v-16.549h24.564    c4.705,0,8.532,3.827,8.532,8.532v64.13h0.001C400.806,300.786,396.979,304.613,392.274,304.613z" fill="#ffffff" data-original="#000000" style="" class=""></path>
	</g>
</g>
<g xmlns="http://www.w3.org/2000/svg">
	<g>
		<path d="M159.806,336.678h-16.032c-4.143,0-7.5,3.357-7.5,7.5s3.357,7.5,7.5,7.5h16.032c4.143,0,7.5-3.357,7.5-7.5    S163.949,336.678,159.806,336.678z" fill="#ffffff" data-original="#000000" style="" class=""></path>
	</g>
</g>
<g xmlns="http://www.w3.org/2000/svg">
	<g>
		<path d="M368.225,336.678h-16.032c-4.143,0-7.5,3.357-7.5,7.5s3.357,7.5,7.5,7.5h16.032c4.143,0,7.5-3.357,7.5-7.5    S372.367,336.678,368.225,336.678z" fill="#ffffff" data-original="#000000" style="" class=""></path>
	</g>
</g>
<g xmlns="http://www.w3.org/2000/svg">
	<g>
		<path d="M368.225,464.936H143.773c-4.143,0-7.5,3.357-7.5,7.5s3.357,7.5,7.5,7.5h224.451c4.143,0,7.5-3.357,7.5-7.5    S372.367,464.936,368.225,464.936z" fill="#ffffff" data-original="#000000" style="" class=""></path>
	</g>
</g>
<g xmlns="http://www.w3.org/2000/svg">
</g>
<g xmlns="http://www.w3.org/2000/svg">
</g>
<g xmlns="http://www.w3.org/2000/svg">
</g>
<g xmlns="http://www.w3.org/2000/svg">
</g>
<g xmlns="http://www.w3.org/2000/svg">
</g>
<g xmlns="http://www.w3.org/2000/svg">
</g>
<g xmlns="http://www.w3.org/2000/svg">
</g>
<g xmlns="http://www.w3.org/2000/svg">
</g>
<g xmlns="http://www.w3.org/2000/svg">
</g>
<g xmlns="http://www.w3.org/2000/svg">
</g>
<g xmlns="http://www.w3.org/2000/svg">
</g>
<g xmlns="http://www.w3.org/2000/svg">
</g>
<g xmlns="http://www.w3.org/2000/svg">
</g>
<g xmlns="http://www.w3.org/2000/svg">
</g>
<g xmlns="http://www.w3.org/2000/svg">
</g>
</g></svg>